<svg id="Capa_1" xmlns="http://www.w3.org/2000/svg" viewBox="0 0 300 300"><style>.st0{fill:#80CEF3;} .st1{fill:#FFFFFF;} .st2{fill:#1D97D3;} .st3{fill:#0966AC;} .st4{fill:#016AAE;} .st5{fill:#9BC23D;}</style><circle class="st1" cx="149.1" cy="148.7" r="131.8"/><path class="st2" d="M49.3 146.3c1.5 0 2.6 1.2 2.6 2.6 0 1.5-1.2 2.6-2.6 2.6-1.5 0-2.6-1.2-2.6-2.6-.1-1.4 1.1-2.6 2.6-2.6z"/><path class="st3" d="M61.4 164.8l1.6 6.4c.2 1 .3 1.9.3 2.7-.1.9-.3 1.6-.6 2.3-.3.7-.8 1.2-1.4 1.7-.6.5-1.3.8-2.2 1-.9.2-1.8.2-2.6.1-.8-.2-1.5-.5-2.1-1-.6-.5-1.2-1.1-1.6-1.9-.4-.8-.8-1.6-1-2.5l-1-4.2-6 1.5-.5-1.9 17.1-4.2zm-7.8 8.5c.2.7.4 1.3.7 1.9.3.5.7 1 1.1 1.3.4.3.9.6 1.4.7.5.1 1.1.1 1.6 0 1.2-.3 2-.9 2.5-1.9.4-1 .5-2.2.1-3.6l-1.1-4.3-7.5 1.9 1.2 4zM68.3 186l.8 1.7-12.7 14.8-.9-1.9 3.3-3.8-4-8.7-5.1.1-.9-1.8 19.5-.4zm-8.1 9.2l6.5-7.4-9.8.1 3.3 7.3zM74 197.1l1.2 1.6-12.8 9.2 5.8 8.1-1.5 1.1-6.9-9.7L74 197.1zM87.5 213.3l1.3 1.3-6.5 18.4-1.5-1.5 1.7-4.8-6.9-6.6-4.7 1.9-1.5-1.4 18.1-7.3zm-4.3 11.6l3.3-9.2-9.1 3.7 5.8 5.5zM96.7 221.6l6.3 4c.8.5 1.5 1.1 2 1.8.5.6.8 1.3 1 2 .2 1.1 0 2.1-.5 3-.3.5-.6.9-1 1.2-.4.3-.8.5-1.2.6-.4.1-.8.2-1.2.2-.4 0-.8 0-1.2-.1.4.4.7.8.9 1.3.3.5.4.9.5 1.4.1.5.1.9 0 1.4-.1.5-.3 1-.6 1.5-.4.6-.9 1.1-1.5 1.5-.6.3-1.2.5-1.9.6-.7 0-1.4 0-2.2-.3-.8-.2-1.6-.6-2.4-1.1l-6.6-4.2 9.6-14.8zm-1.8 17.6c1.1.7 2.2 1 3.1 1 .9-.1 1.7-.5 2.2-1.3.5-.8.6-1.6.2-2.5-.4-.9-1.2-1.7-2.5-2.5l-4.7-3-3.3 5.3 5 3zm3.7-7.1c1 .6 2 .9 2.9.9.9 0 1.6-.5 2.2-1.4.5-.7.5-1.5.3-2.3-.3-.8-1-1.5-2-2.2l-4.5-2.8-3.2 5.1 4.3 2.7zM111.5 230.5l7.1 2.7c1 .4 1.9.9 2.5 1.5.7.6 1.2 1.2 1.5 2 .2.6.4 1.2.4 1.8 0 .6-.1 1.3-.4 1.9-.3.7-.6 1.3-1 1.7-.4.5-.9.8-1.5 1-.6.2-1.2.4-1.8.4-.6 0-1.3 0-2-.1l2.4 8.7-2.3-.9-2.3-8.2-4.6-1.8-2.5 6.4-1.9-.7 6.4-16.4zm3.6 11c.6.2 1.2.4 1.8.4.6 0 1.1 0 1.6-.2.5-.1.9-.4 1.3-.7.4-.3.7-.8.9-1.3.4-1 .3-2-.2-2.8-.5-.9-1.4-1.5-2.8-2.1l-5.1-2-2.6 6.7 5.1 2zM134.1 237.4l1.8.3 5 18.8-2.1-.4-1.3-4.9-9.4-1.6-2.8 4.2-2-.3 10.8-16.1zm3 11.9l-2.4-9.5-5.5 8.2 7.9 1.3zM152.7 248.1c-.6-5.1 2.9-9.6 8.2-10.1 3.6-.4 6 .9 7.8 2.8l-3.3 3.2c-1.1-1.1-2.4-1.8-4-1.6-2.4.3-3.9 2.5-3.7 5.1v.1c.3 2.6 2.2 4.5 4.7 4.2 1.8-.2 2.8-1.2 3.7-2.6l3.9 2.2c-1.4 2.5-3.4 4.4-7.3 4.8-5 .5-9.5-2.9-10-8.1zM172.4 246.6l-3-9.4 4.7-1.5 3 9.3c.8 2.4 2.4 3.2 4.2 2.6 1.9-.6 2.7-2.1 2-4.4l-3-9.4 4.7-1.5 3 9.3c1.7 5.4-.6 8.8-5.4 10.3-4.8 1.5-8.5 0-10.2-5.3zM186.9 231.6l4.5-2.6 7 3.8.2-8 4.5-2.6 8.8 15.2-4.2 2.4-5.1-8.7-.4 8.2-.1.1-7.3-3.7 5 8.7-4.1 2.4-8.8-15.2zM204.7 220.7l5.6-5c3.3-3 7-3.2 9.6-.3 2.8 3.1 1.8 6.9-1.4 9.8l-1.8 1.6 3.3 3.8-3.6 3.2-11.7-13.1zm11.2 1.7c1.3-1.2 1.5-2.5.6-3.6-1-1.1-2.3-1-3.6.1l-1.7 1.5 3.1 3.5 1.6-1.5zM216.5 209.8l3-3.8 10.4 8.3 5.3-6.7 3.3 2.7-8.4 10.5-13.6-11zM225.4 198.1l2.6-4.2 15 9.2-2.6 4.2-15-9.2zM229.4 192l2.7-6.2c2.5-5.8 7.2-7.7 11.9-5.7s6.7 6.9 4.2 12.7l-2.6 6.1-16.2-6.9zm14.9-1.1c1.2-2.7.4-5.1-2.2-6.2-2.6-1.1-4.9 0-6 2.7l-.8 1.8 8.2 3.5.8-1.8zM237.2 170.3l1-4.6 18.9-3.6-1.1 5.1-3.3.6-1.4 6.6 2.8 1.9-1.1 5-15.8-11zm11.5-2l-5.3.9 4.5 3 .8-3.9z"/><path class="st2" d="M250.8 153.1c-1.5 0-2.6-1.2-2.6-2.7 0-1.5 1.2-2.6 2.7-2.6 1.5 0 2.6 1.2 2.6 2.7 0 1.4-1.2 2.6-2.7 2.6z"/><path class="st3" d="M239.1 135.9l-1.4-6.4c-.2-1-.3-1.9-.2-2.7.1-.8.3-1.6.6-2.3.3-.7.8-1.2 1.4-1.7.6-.4 1.3-.8 2.2-.9.9-.2 1.8-.2 2.6 0s1.5.6 2.1 1.1c.6.5 1.1 1.2 1.5 1.9.4.8.7 1.6.9 2.5l.9 4.2 6.1-1.3.4 1.9-17.1 3.7zm8-8.2c-.2-.7-.4-1.3-.7-1.9-.3-.5-.7-1-1.1-1.3-.4-.3-.9-.6-1.4-.7-.5-.1-1.1-.1-1.6 0-1.2.3-2.1.9-2.5 1.9-.4 1-.5 2.2-.2 3.6l.9 4.4 7.6-1.6-1-4.4zM232.8 114.5l-.7-1.7 13.1-14.4.8 2-3.5 3.7 3.8 8.8 5.1.1.8 1.9-19.4-.4zm8.4-9l-6.7 7.2 9.8.1-3.1-7.3zM227.4 103.3l-1.1-1.6 13.1-8.8-5.6-8.2 1.5-1 6.7 9.9-14.6 9.7zM214.4 86.7l-1.3-1.3 7-18.2 1.5 1.5-1.9 4.7 6.7 6.8 4.8-1.8 1.4 1.4-18.2 6.9zm4.6-11.4l-3.6 9.2 9.2-3.5-5.6-5.7zM205.4 78.1l-6.2-4.2c-.8-.6-1.5-1.2-2-1.8-.5-.7-.8-1.3-1-2-.2-1.1 0-2.1.6-3 .3-.5.7-.8 1-1.1.4-.3.8-.5 1.2-.6.4-.1.8-.2 1.2-.2.4 0 .8 0 1.2.1-.3-.4-.6-.9-.9-1.3-.2-.5-.4-.9-.5-1.4-.1-.5-.1-.9 0-1.4.1-.5.3-1 .6-1.5.4-.6.9-1.1 1.5-1.4.6-.3 1.2-.5 1.9-.5s1.4.1 2.2.3c.8.3 1.6.6 2.4 1.2l6.5 4.3-9.7 14.5zm-1.6-10.5c-1-.7-2-1-2.9-1-.9 0-1.7.5-2.2 1.3-.5.7-.6 1.5-.3 2.3.3.8.9 1.6 2 2.2l4.4 3 3.4-5-4.4-2.8zm3.8-7c-1.1-.7-2.1-1.1-3.1-1.1-.9 0-1.7.5-2.2 1.3-.5.8-.6 1.6-.3 2.5.4.9 1.2 1.7 2.5 2.6l4.6 3.1 3.5-5.2-5-3.2zM190.9 68.9l-7-2.9c-1-.4-1.8-.9-2.5-1.6-.7-.6-1.1-1.3-1.4-2-.2-.6-.3-1.2-.3-1.8 0-.6.2-1.3.4-1.9.3-.7.6-1.2 1.1-1.7.4-.4.9-.8 1.5-1 .6-.2 1.2-.4 1.8-.4.6 0 1.3 0 2 .2l-2.2-8.7 2.3.9 2.1 8.3 4.6 1.9 2.6-6.3 1.8.8-6.8 16.2zm-3.4-11.2c-.6-.3-1.2-.4-1.8-.5-.6-.1-1.1 0-1.6.1s-.9.4-1.3.7c-.4.3-.7.7-.9 1.3-.4 1-.4 1.9.1 2.8.5.9 1.4 1.6 2.7 2.1l5 2.1 2.8-6.6-5-2zM168.4 61.4l-1.8-.4-4.4-18.9 2.1.4 1.1 5 9.4 1.8 2.9-4.2 2 .4-11.3 15.9zm-2.6-12L168 59l5.7-8-7.9-1.6zM150.2 50.2c.4 5.2-3.2 9.5-8.5 9.9-3.6.3-6-1-7.7-3.1l3.4-3.1c1.1 1.2 2.3 1.9 4 1.7 2.5-.2 4-2.4 3.8-5v-.1c-.2-2.6-2.1-4.5-4.6-4.3-1.8.1-2.8 1.1-3.8 2.5l-3.9-2.3c1.5-2.4 3.6-4.3 7.4-4.6 5.1-.4 9.5 3.1 9.9 8.4zM130.4 51.1l2.7 9.5-4.8 1.4-2.7-9.4c-.7-2.4-2.3-3.2-4.2-2.7-1.9.5-2.8 2-2.1 4.4l2.7 9.5-4.8 1.4-2.7-9.4c-1.6-5.5.9-8.8 5.7-10.1 5-1.5 8.7.1 10.2 5.4zM115.5 65.7l-4.5 2.5-6.9-4-.4 8-4.5 2.5-8.4-15.5 4.3-2.3 4.8 8.9.7-8.2h.1l7.2 3.9-4.8-8.8 4.2-2.3 8.2 15.3zM97.4 76.1L91.6 81c-3.4 2.9-7.1 3-9.6 0-2.7-3.2-1.6-6.9 1.7-9.7l1.8-1.6-3.2-3.8 3.7-3.1 11.4 13.3zm-11.1-2c-1.3 1.1-1.5 2.5-.7 3.5 1 1.2 2.3 1.1 3.6-.1l1.7-1.5-3-3.6-1.6 1.7zM85.3 86.7l-3.1 3.7L72 81.8l-5.5 6.5-3.3-2.8 8.6-10.3 13.5 11.5zM76.1 98.2l-2.7 4.1-14.7-9.6 2.7-4.1 14.7 9.6zM71.9 104.2l-2.8 6.2c-2.6 5.7-7.4 7.5-12.1 5.4-4.6-2.1-6.5-7.1-3.8-12.8l2.8-6.1 15.9 7.3zm-14.9.6c-1.2 2.6-.6 5.1 2 6.3 2.6 1.2 4.9.1 6.1-2.5l.8-1.8-8.1-3.8-.8 1.8zM63.5 125.7l-1.1 4.6-19 3.1 1.2-5.1 3.4-.5 1.6-6.6-2.8-2 1.2-5 15.5 11.5zM52 127.3l5.3-.7-4.4-3.1-.9 3.8z"/><g><path class="st2" d="M149 221.5c-40-.6-72-33.5-71.5-73.5S111 76 151 76.6c40 .6 72 33.5 71.5 73.5s-33.5 72-73.5 71.4zm1.9-138c-36.2-.5-66 28.5-66.5 64.7s28.5 66 64.7 66.5 66-28.5 66.5-64.7-28.5-66-64.7-66.5z"/></g><g><path class="st4" d="M148.9 229.7c-44.5-.6-80.1-37.3-79.5-81.8.6-44.5 37.3-80.1 81.8-79.5 44.5.6 80.1 37.3 79.5 81.8-.7 44.4-37.4 80.1-81.8 79.5zm2.2-158.5c-42.9-.6-78.4 33.8-79 76.8-.6 42.9 33.8 78.4 76.8 79 42.9.6 78.4-33.8 79-76.8.6-43-33.9-78.4-76.8-79z"/></g><g><path class="st4" d="M148.3 273.1C79.9 272.1 25 215.7 26 147.3S83.4 24.1 151.7 25C220.1 26 275 82.4 274 150.8c-.9 68.4-57.4 123.2-125.7 122.3zm3.4-245.3c-66.9-.9-122 52.7-123 119.5s52.7 122 119.5 123c66.9.9 122-52.7 123-119.5 1-66.9-52.6-122.1-119.5-123z"/></g><g><path class="st2" d="M148.1 287.6c-76.4-1.1-137.6-64.1-136.6-140.5S75.6 9.5 151.9 10.5c76.4 1.1 137.6 64.1 136.6 140.5-1.1 76.4-64.1 137.6-140.4 136.6zm3.7-268.8c-71.8-1-131 56.6-132 128.4-1 71.8 56.6 131 128.4 132 71.8 1 131-56.6 132-128.4s-56.6-131-128.4-132z"/></g><g><circle class="st5" cx="149.3" cy="148.8" r="53.6"/></g><path class="st1" d="M165.8 112.5L141.7 153l-14.8-8.8-9 15 29.9 17.8 33-55.5z"/></svg>