<svg id="Capa_1" xmlns="http://www.w3.org/2000/svg" viewBox="0 0 300 300"><style>.st0{fill:#80CEF3;}</style><path class="st0" d="M254.8 160.9c-7.4-14.4-22.3-23.5-38.5-23.4-4.6 0-9.1.7-13.5 2.2l-17.7-35.4H213c1.8 0 3.3 1.5 3.3 3.3s-1.5 3.3-3.3 3.3h-13.3c-1.8 0-3.3 1.5-3.3 3.3s1.5 3.3 3.3 3.3H213c5.5 0 10-4.5 10-10s-4.5-10-10-10h-33.3c-1.8 0-3.3 1.5-3.3 3.3 0 .5.1 1 .4 1.5l4.3 8.5H122l-3.3-6.7h17.9c1.8 0 3.3-1.5 3.3-3.3s-1.5-3.3-3.3-3.3h-33.3c-1.8 0-3.3 1.5-3.3 3.3s1.5 3.3 3.3 3.3h7.9l5 10-12.7 25.5c-22.7-7.5-47.1 4.9-54.6 27.5s4.9 47.1 27.5 54.6 47.1-4.9 54.6-27.5c1.1-3.3 1.8-6.7 2-10.2h20.1c.3 0 .5 0 .8-.1h.1c.1 0 .1-.1.2-.1s.3-.1.4-.1c0 0 .1 0 .1-.1.1-.1.2-.1.3-.2.1-.1.3-.2.4-.3l.1-.1c0-.1.1-.1.1-.2s.2-.2.2-.3c0 0 0-.1.1-.1l.1-.1 30.3-60.6 10.3 20.6c-21.2 10.9-29.5 36.9-18.6 58.1 10.9 21.2 36.9 29.5 58.1 18.6 21.2-10.9 29.6-36.9 18.7-58.1zM89.9 217.3c-20.2 0-36.6-16.3-36.6-36.5s16.3-36.6 36.5-36.6c3.6 0 7.1.5 10.6 1.5l-16.8 33.6c-.8 1.6-.2 3.6 1.5 4.5.5.2 1 .4 1.5.4h39.7c-1.7 18.7-17.5 33.1-36.4 33.1zm2-39.9l14.6-29.2c11.1 5.7 18.6 16.7 19.8 29.2H91.9zm41 0c-1.2-15-10-28.3-23.4-35.1l10.3-20.6 27.9 55.8h-14.8zm20.2-4.1l-27.9-55.8H181l-27.9 55.8zm73.7 42.5c-3.4 1-7 1.6-10.6 1.5-20.2 0-36.6-16.3-36.6-36.5 0-13.7 7.7-26.3 19.9-32.6l17 34c.8 1.6 2.8 2.3 4.5 1.5 1.6-.8 2.3-2.8 1.5-4.5l-16.8-33.6c19.4-5.8 39.8 5.2 45.6 24.5 5.9 19.5-5.1 39.9-24.5 45.7z"/><path class="st0" d="M89.8 224.9c-4.6 0-9.2-.7-13.8-2.2-23.1-7.6-35.8-32.6-28.1-55.8 7.5-22.9 32.1-35.5 55-28.4l12.2-24.3-4.5-9h-7.3c-2.4 0-4.3-1.9-4.3-4.3s1.9-4.3 4.3-4.3h33.3c2.4 0 4.3 1.9 4.3 4.3s-1.9 4.3-4.3 4.3h-16.4l2.4 4.8h57l-3.6-7.1c-.3-.6-.5-1.3-.5-1.9 0-2.3 1.9-4.3 4.3-4.3h33.3c6 0 10.9 4.9 10.9 10.9s-4.9 10.9-10.9 10.9h-13.3c-2.4 0-4.3-1.9-4.3-4.3s1.9-4.3 4.3-4.3h13.3c1.3 0 2.4-1.1 2.4-2.4 0-1.3-1.1-2.4-2.4-2.4h-26.3l16.7 33.3c4.3-1.3 8.7-2 13.1-2 16.6 0 31.6 9.2 39.2 23.9 11.1 21.6 2.6 48.3-19.1 59.4-10.5 5.4-22.4 6.4-33.6 2.8-11.2-3.6-20.4-11.4-25.7-21.8-11-21.3-2.8-47.6 18.2-59l-9-18.1-29.4 58.9c0 .1-.1.2-.2.2-.1.2-.2.3-.3.4-.1.1-.1.2-.2.3l-.2.2c-.2.2-.3.3-.5.4-.1.1-.2.1-.3.2-.1.2-.3.2-.5.2-.1 0-.2.1-.3.1l-.2.1c-.4.1-.8.1-1.1.2h-19.3c-.3 3.3-1 6.5-2 9.6-6.4 18.7-23.7 30.5-42.3 30.5zm.1-86.4c-17.8 0-34.3 11.3-40.2 29.1-7.3 22.1 4.8 46.1 26.9 53.4 22.1 7.3 46.1-4.8 53.4-26.9 1.1-3.2 1.7-6.6 2-10 0-.5.4-.9.9-.9H153c.2 0 .4 0 .6-.1.1 0 .2-.1.3-.1.1 0 .1 0 .2-.1.2-.1.2-.2.3-.2.2-.1.3-.2.3-.3 0 0 .1-.2.2-.2l.8.5-.6-.7c0-.1.1-.2.2-.3l30.2-60.4c.3-.6 1.4-.6 1.7 0l10.3 20.6c.2.5 0 1-.4 1.3-20.7 10.6-28.9 36.1-18.2 56.8 5.2 10 13.9 17.4 24.6 20.9 10.7 3.4 22.2 2.5 32.2-2.7 20.7-10.6 28.9-36.1 18.2-56.8-7.3-14.1-21.6-22.9-37.5-22.9-4.5 0-9 .7-13.3 2.1-.4.1-.9-.1-1.1-.5l-17.7-35.4c-.1-.3-.1-.6 0-.9s.5-.4.8-.4H213c2.4 0 4.3 1.9 4.3 4.3s-1.9 4.3-4.3 4.3h-13.3c-1.3 0-2.4 1.1-2.4 2.4 0 1.3 1.1 2.4 2.4 2.4H213c5 0 9-4.1 9-9 0-5-4.1-9-9-9h-33.3c-.6-.1-1.2.2-1.7.7-.5.4-.7 1-.7 1.7 0 .4.1.7.3 1.1l4.3 8.5c.1.3.1.6 0 .9-.2.3-.5.4-.8.4H122c-.4 0-.7-.2-.8-.5l-3.3-6.7c-.1-.3-.1-.6 0-.9.2-.3.5-.4.8-.4h17.9c1.3 0 2.4-1.1 2.4-2.4 0-1.3-1.1-2.4-2.4-2.4h-33.3c-1.3 0-2.4 1.1-2.4 2.4 0 1.3 1.1 2.4 2.4 2.4h7.9c.4 0 .7.2.8.5l5 10c.1.3.1.6 0 .8l-12.7 25.5c-.2.4-.7.6-1.1.5-4.5-1.8-9-2.4-13.3-2.4zm-.1 79.8c-20.7 0-37.5-16.8-37.5-37.5s16.8-37.6 37.5-37.6c3.6.1 7.3.5 10.9 1.6.3.1.5.3.6.5s.1.5 0 .8l-16.8 33.6c-.3.6-.3 1.2-.1 1.8.2.6.6 1.1 1.2 1.4.3.2.7.3 1.1.3h39.7c.3 0 .5.1.7.3.2.2.3.5.2.7-1.9 19.4-17.9 34-37.5 34.1l.1-.9-.1.9c.1 0 0 0 0 0zm0-73.2c-19.7 0-35.7 16-35.6 35.7 0 19.6 16 35.6 35.6 35.6 18.2 0 33.2-13.4 35.4-31.4H86.6c-.7 0-1.3-.2-1.9-.5-1-.5-1.8-1.4-2.1-2.5-.4-1.1-.3-2.2.2-3.3L99 146.3c-3-.8-6.1-1.2-9.2-1.2zm126.5 73.2c-10.1 0-19.5-3.9-26.6-11-7.1-7.1-11-16.5-11-26.5 0-14.2 7.8-27 20.4-33.4.2-.1.5-.1.7-.1.2.1.4.3.6.5l17 34c.6 1.2 2 1.7 3.2 1.1.6-.3 1-.8 1.2-1.4.2-.6.2-1.2-.1-1.8l-16.8-33.6c-.1-.2-.1-.5 0-.8.1-.3.3-.5.6-.5 19.8-6 40.8 5.3 46.7 25.1 2.9 9.6 1.9 19.8-2.9 28.6s-12.7 15.3-22.3 18.2c-3.4 1-7 1.6-10.7 1.6zm0-1.9c3.5 0 7-.5 10.3-1.5 9.1-2.7 16.6-8.9 21.1-17.2 4.5-8.4 5.5-18 2.7-27.1-5.5-18.5-24.8-29.1-43.3-24.2l16.3 32.5c.5 1 .6 2.2.2 3.3-.4 1.1-1.1 2-2.1 2.5s-2.2.6-3.3.2c-1.1-.4-2-1.1-2.5-2.1l-16.6-33.2c-11.5 6.3-18.6 18.2-18.6 31.3.1 19.5 16.1 35.5 35.8 35.5-.1 0 0 0 0 0zm10.5-.6zm-79.1-37.4H133c-.5 0-.9-.4-.9-.9-1.1-14.6-9.9-27.7-22.9-34.4-.5-.2-.6-.8-.4-1.3l10.3-20.6c.3-.6 1.4-.6 1.7 0l27.9 55.8c.1.3.1.6 0 .9-.4.3-.7.5-1 .5zm-13.9-1.9h12.3l-26.3-52.7-9 18.1c12.8 6.9 21.6 20 23 34.6zm-7.5 1.9H91.9c-.3 0-.6-.2-.8-.4-.2-.3-.2-.6 0-.9l14.6-29.2c.1-.2.3-.4.6-.5.2-.1.5-.1.7.1 11.5 5.9 19.1 17.1 20.3 30 0 .3-.1.5-.2.7s-.5.2-.8.2zm-32.8-1.9h31.8c-1.4-11.5-8.1-21.4-18.3-27l-13.5 27zm59.6-2.3c-.4 0-.7-.2-.8-.5l-28-55.7c-.1-.3-.1-.6 0-.9.2-.3.5-.4.8-.4H181c.3 0 .6.2.8.4s.2.6 0 .9l-27.9 55.8c-.1.2-.5.4-.8.4zm-26.4-55.7l26.3 52.7 26.3-52.7h-52.6z"/></svg>