<svg id="Capa_1" xmlns="http://www.w3.org/2000/svg" viewBox="0 0 300 300"><style>.st0{fill:#80CEF3;}</style><g id="surface1_8_"><path class="st0" d="M204.4 146.5v-37.3c0-1.1-.5-2.1-1.2-2.8l-41.8-43.9c-.8-.8-1.9-1.3-3-1.3H92.1c-12.2 0-22 10-22 22.2v125.3c0 12.2 9.8 22 22 22h52.3c9.9 16.4 27.9 27.4 48.4 27.4 31.1 0 56.5-25.3 56.5-56.5.1-27.1-19.5-49.8-44.9-55.1zm-41.9-70.9l28 29.5h-18.2c-5.4 0-9.9-4.5-9.9-9.9V75.6zm-70.4 147c-7.7 0-13.8-6.2-13.8-13.8V83.4c0-7.7 6.1-14 13.8-14h62.2v25.8c0 10 8.1 18.1 18.1 18.1h23.8v32.1c-1.2 0-2.2-.2-3.3-.2-14.3 0-27.5 5.5-37.4 14.1h-52.1c-2.3 0-4.1 1.8-4.1 4.1s1.8 4.1 4.1 4.1h44.5c-2.9 4.1-5.3 8.2-7.2 12.7h-37.3c-2.3 0-4.1 1.8-4.1 4.1s1.8 4.1 4.1 4.1H138c-1 4.1-1.6 8.7-1.6 13.2 0 7.4 1.4 14.7 4 20.9l-48.3.1zM192.8 250c-26.6 0-48.2-21.6-48.2-48.2s21.6-48.2 48.2-48.2 48.2 21.6 48.2 48.2-21.6 48.2-48.2 48.2z"/><path class="st0" d="M103.3 147h41.6c2.3 0 4.1-1.8 4.1-4.1s-1.8-4.1-4.1-4.1h-41.6c-2.3 0-4.1 1.8-4.1 4.1s1.8 4.1 4.1 4.1zM103.3 125.6h41.6c2.3 0 4.1-1.8 4.1-4.1s-1.8-4.1-4.1-4.1h-41.6c-2.3 0-4.1 1.8-4.1 4.1s1.8 4.1 4.1 4.1zM103.3 102h41.6c2.3 0 4.1-1.8 4.1-4.1s-1.8-4.1-4.1-4.1h-41.6c-2.3 0-4.1 1.8-4.1 4.1 0 2.2 1.8 4.1 4.1 4.1z"/></g><path class="st0" d="M220.6 169.1c-.5-.8-1.3-1.4-2.3-1.6-1.7-.4-3.3.3-4.3 2.1L180.5 230l-4.7-22c-.4-1.6-1.2-2.5-2.5-2.9-.6-.2-1.3-.2-2 0L163 207c-1.7.3-2.6 1.2-3 2.6-.2.9-.1 1.8.4 2.6.4.7 1.1 1.2 1.9 1.4.7.2 1.5.1 1.8 0l5.1-1 .1.1 5.2 23.8c.5 2.3 1.3 4.5 3.8 5.1.4.1.8.2 1.2.2 1.8 0 3.3-1 4.4-3.1l36.5-65.7c.2-.5.4-.8.5-1.2.3-.9.2-1.9-.3-2.7z"/></svg>