<svg id="Capa_1" xmlns="http://www.w3.org/2000/svg" viewBox="0 0 300 300"><style>.st0{fill:#80CEF3;}</style><path class="st0" d="M241.3 132.8c-1.4-.6-3-.3-4.1.8l-6.3 6.3V87.5c0-2.1-1.7-3.8-3.8-3.8H209l5.7-5.7 7.3-7.3c1.8-1.8 2.7-4.1 2.7-6.6s-1-4.8-2.7-6.6l-8.4-8.4c-3.5-3.5-9.6-3.5-13.1 0L166 83.6H83.5V58c0-2.1-1.7-3.8-3.8-3.8-12.3 0-22.3 10-22.3 22.3v114.7c0 .3 0 .5.1.7.4 5.2 2.7 10.1 6.4 13.8 4 3.9 9.4 6.1 15 6.1h80l-13.7 13.7c-1.1 1.1-1.4 2.7-.8 4.1.6 1.4 2 2.3 3.5 2.3h92c2.1 0 3.8-1.7 3.8-3.8v-92c-.1-1.3-1-2.7-2.4-3.3zm-35.6-78.3c.7-.7 1.8-.7 2.5 0l8.4 8.4c.3.3.5.8.5 1.3s-.2.9-.5 1.3L212 70l-10.9-10.9 4.6-4.6zM182.4 199c1.5-1.5 1.5-3.8 0-5.3-.2-.2-.3-.3-.5-.4-1.5-1-3.5-.8-4.8.4l-10.6 10.6H79c-7.6 0-13.7-5.9-14-13.5 0-.5 0-1 .1-1.4 0-.2.1-.4.1-.7l.6-2.3-1-.3h1.1l.2-.6.3-.6c2-4.1 5.8-7.1 10.3-8.1l2.2-.3h.7c2.1 0 3.8-1.7 3.8-3.8v-19.6c0-2.1-1.7-3.8-3.8-3.8s-3.8 1.7-3.8 3.8v16.1c-4.1.7-7.9 2.5-11 5.3v-98c0-6.8 4.6-12.6 11-14.3v80.1c0 2.1 1.7 3.8 3.8 3.8s3.8-1.7 3.8-3.8V91.2h74.8l-13.1 13.1c-1.5 1.5-1.5 3.9 0 5.3 1.5 1.5 3.9 1.5 5.3 0L187 73.2l10.9 10.9-54.4 54.4-10.9-10.9 10-10c1.5-1.5 1.5-3.9 0-5.3-1.5-1.5-3.9-1.5-5.3 0L124.6 125c-.1.1-.2.2-.4.5l.8.7-1-.4-.2.3-.1.3-8.7 24.8h-8.2c-2.1 0-3.8 1.7-3.8 3.8s1.7 3.8 3.8 3.8h74.8c2.1 0 3.8-1.7 3.8-3.8s-1.7-3.8-3.8-3.8h-47.5l10.8-3.8s.3-.2.4-.2l-.5-.9.8.8.3-.2.3-.3 55.3-55.3h22v56.2l-38.3 38.3c-.7.7-1.1 1.6-1.1 2.7s.4 2 1.1 2.7l.3.3c1.3 1.1 3.4 1.1 4.8 0l.3-.3 45.7-45.7v20.2h-3.9c-2.1 0-3.8 1.7-3.8 3.8 0 2.1 1.7 3.8 3.8 3.8h3.9v6h-3.9c-2.1 0-3.8 1.7-3.8 3.8 0 2.1 1.7 3.8 3.8 3.8h3.9v6h-3.9c-2.1 0-3.8 1.7-3.8 3.8 0 2.1 1.7 3.8 3.8 3.8h3.9v6h-3.9c-2.1 0-3.8 1.7-3.8 3.8 0 2.1 1.7 3.8 3.8 3.8h3.9v10.8H157l25.4-25.9zm-37.3-53zm-8.5-3.7l-5.5 2-4.2-4.2 2-5.5 7.7 7.7zm66.6-63.5l-10.9-10.9 3.5-3.5 10.9 10.9-3.5 3.5z"/></svg>