<svg id="Capa_1" xmlns="http://www.w3.org/2000/svg" viewBox="0 0 300 300"><style>.st0{fill:#80CEF3;}</style><path class="st0" d="M166.2 245.4H152V186l43.2-43.2h1.2c7.5 0 15.1-3.3 20.9-9.1 6.4-6.4 9.8-15.2 9-23.4-.2-1.7-1.5-3-3.2-3.2-.8-.1-1.7-.1-2.5-.1-7.5 0-15.1 3.3-20.9 9.1-5.9 5.9-9.2 13.7-9.1 21.2L152 175.9v-1.6c0-2-1.6-3.6-3.6-3.6s-3.6 1.6-3.6 3.6v71.1h-14.2c-2 0-3.6 1.6-3.6 3.6s1.6 3.6 3.6 3.6h35.6c2 0 3.6-1.6 3.6-3.6s-1.6-3.6-3.6-3.6zm38.5-124.3c4.1-4.1 9.3-6.6 14.5-7-.4 5.2-2.8 10.4-7 14.5-4.1 4.1-9.3 6.6-14.5 7 .4-5.1 2.9-10.4 7-14.5zM88.7 93.4c-7.1 0-13.7 3-17.8 7.9-1.1 1.3-1.1 3.2 0 4.5 4.1 5 10.7 7.9 17.8 7.9 7.1 0 13.7-3 17.8-7.9 1.1-1.3 1.1-3.2 0-4.5-4.1-5-10.7-7.9-17.8-7.9zm0 13.2c-3.7 0-7.2-1.1-9.9-3.1 2.7-2 6.2-3.1 9.9-3.1s7.2 1.1 9.9 3.1c-2.7 2-6.2 3.1-9.9 3.1zM119.5 88.3c.7.5 1.5.8 2.2.8s1.6-.3 2.2-.8c5.3-4.3 8.4-11.4 8.4-18.9s-3.2-14.6-8.4-18.9c-1.3-1.1-3.2-1.1-4.5 0-5.3 4.3-8.4 11.4-8.4 18.9s3.2 14.6 8.5 18.9zm2.2-29.9c2.3 2.9 3.6 6.9 3.6 11 0 4.2-1.3 8.1-3.6 11-2.3-2.9-3.6-6.9-3.6-11s1.4-8.1 3.6-11z"/><path class="st0" d="M225.9 155.6c-4.1-5-10.7-7.9-17.8-7.9-7.1 0-13.7 3-17.8 7.9-1.1 1.3-1.1 3.2 0 4.5 4.1 5 10.7 7.9 17.8 7.9 7.1 0 13.7-3 17.8-7.9 1.1-1.4 1.1-3.2 0-4.5zm-17.7 5.3c-3.7 0-7.2-1.1-9.9-3.1 2.7-2 6.2-3.1 9.9-3.1s7.2 1.1 9.9 3.1c-2.7 2-6.2 3.1-9.9 3.1zM172.9 142.5c.7.5 1.5.8 2.2.8.8 0 1.6-.3 2.2-.8 5.3-4.3 8.4-11.4 8.4-18.9 0-7.5-3.2-14.6-8.4-18.9-1.3-1.1-3.2-1.1-4.5 0-5.3 4.3-8.4 11.4-8.4 18.9s3.2 14.6 8.5 18.9zm2.2-29.9c2.3 2.9 3.6 6.9 3.6 11s-1.3 8.1-3.6 11c-2.3-2.9-3.6-6.9-3.6-11s1.4-8 3.6-11zM133.2 139.7c-1.4-1.4-3.6-1.4-5 0s-1.4 3.6 0 5l17.8 17.8c.1.1.2.1.2.2l.1.1.1.1c.1 0 .1.1.2.1l.1.1c.1 0 .1.1.2.1s.1 0 .2.1c.1 0 .1 0 .2.1.1 0 .1 0 .2.1H149.9c.1 0 .1 0 .2-.1.1 0 .1 0 .2-.1.1 0 .1 0 .1-.1.1 0 .1-.1.2-.1l.1-.1c.1 0 .1-.1.2-.1l.1-.1.1-.1.2-.2s.1 0 .1-.1c0 0 0-.1.1-.1l.2-.2s.1-.1.1-.2l.1-.1c0-.1.1-.1.1-.2l.1-.1c0-.1.1-.1.1-.2 0 0 0-.1.1-.1 0-.1 0-.1.1-.2 0-.1 0-.1.1-.2v-.2-.2-.2-.1-67.2c0-2-1.6-3.6-3.6-3.6s-3.6 1.6-3.6 3.6v28.8l-39-38.7c.1-7.5-3.2-15.3-9.1-21.2-5.8-5.8-13.4-9.1-20.9-9.1-.8 0-1.7 0-2.5.1-1.7.2-3 1.5-3.2 3.2-.8 8.2 2.5 17 9 23.4 5.8 5.8 13.4 9.1 20.9 9.1h1.2l43.2 43.2v19.7l-11.7-11.7zM77.7 59.9c5.2.4 10.4 2.9 14.5 7s6.6 9.4 7 14.5c-5.2-.4-10.4-2.9-14.5-7-4.2-4.1-6.7-9.4-7-14.5z"/></svg>