<svg id="Capa_1" xmlns="http://www.w3.org/2000/svg" viewBox="0 0 300 300"><style>.st0{fill:#80CEF3;}</style><path class="st0" d="M125.7 177.5c-5.5 5.5-8.5 12.7-8.5 20.4 0 7.7 3 15 8.5 20.4 5.4 5.4 12.7 8.4 20.4 8.4s15-3 20.4-8.4c5.5-5.5 8.5-12.7 8.5-20.4 0-7.7-3-15-8.5-20.4-11.2-11.2-29.6-11.2-40.8 0zm11.5 11.5c2.4-2.4 5.6-3.7 8.9-3.7 3.4 0 6.6 1.3 8.9 3.7 2.4 2.4 3.7 5.6 3.7 8.9 0 3.4-1.3 6.6-3.7 8.9-2.5 2.5-5.7 3.7-8.9 3.7s-6.5-1.2-8.9-3.7c-2.4-2.4-3.7-5.6-3.7-8.9 0-3.3 1.3-6.5 3.7-8.9zM241 103c-22.8-22.8-53.1-36.7-85.3-39-31.8-2.3-63.5 6.8-89 25.6C60.8 94 57 100.7 56.5 108c-.6 7.3 2.1 14.5 7.3 19.8l1.1 1.1c4.9 4.9 11.4 7.4 17.9 7.4 5.2 0 10.3-1.6 14.7-4.8 27-19.8 64.1-21.1 92.4-3.2 2 1.3 3.4 3.4 3.6 5.8.3 2.5-.6 4.9-2.3 6.7-2.7 2.7-6.9 3.1-10.2 1.1-12.5-7.8-27.4-11.2-42.1-9.6-14.9 1.6-29 8.4-39.6 19-3.3 3.3-3.3 8.8 0 12.1 1.6 1.6 3.8 2.5 6.1 2.5s4.4-.9 6.1-2.5c16.2-16.2 41.1-19.1 60.5-7 4.2 2.6 8.9 3.9 13.5 3.9 6.5 0 12.9-2.5 17.8-7.4 5.5-5.5 8.1-13 7.2-20.7-.9-7.6-5.1-14.3-11.5-18.4-16.8-10.6-36.3-15.8-56.3-15.2-20.1.7-39.2 7.3-55.3 19.1-3.1 2.3-7.6 1.9-10.4-.9l-1.1-1.1c-1.7-1.7-2.5-4-2.4-6.4.2-2.4 1.4-4.5 3.3-5.9 46.1-33.9 111.5-28.9 152.1 11.7 1.6 1.6 3.8 2.5 6.1 2.5s4.4-.9 6.1-2.5c3.3-3.3 3.3-8.8-.1-12.1z"/></svg>