<svg id="Capa_1" xmlns="http://www.w3.org/2000/svg" viewBox="0 0 300 300"><style>.st0{fill:#80CEF3;}</style><path class="st0" d="M151.6 225.8c-2.3 0-4.1 1.8-4.1 4.1V254c0 2.3 1.8 4.1 4.1 4.1s4.1-1.8 4.1-4.1v-24.1c0-2.2-1.8-4.1-4.1-4.1zM151.6 181.1c-2.3 0-4.1 1.8-4.1 4.1v24.1c0 2.3 1.8 4.1 4.1 4.1s4.1-1.8 4.1-4.1v-24.1c0-2.2-1.8-4.1-4.1-4.1zM151.6 136.5c-2.3 0-4.1 1.8-4.1 4.1v24.1c0 2.3 1.8 4.1 4.1 4.1s4.1-1.8 4.1-4.1v-24.1c0-2.3-1.8-4.1-4.1-4.1zM151.6 91.8c-2.3 0-4.1 1.8-4.1 4.1V120c0 2.3 1.8 4.1 4.1 4.1s4.1-1.8 4.1-4.1V95.9c0-2.3-1.8-4.1-4.1-4.1zM151.6 47.1c-2.3 0-4.1 1.8-4.1 4.1v24.1c0 2.3 1.8 4.1 4.1 4.1s4.1-1.8 4.1-4.1V51.2c0-2.3-1.8-4.1-4.1-4.1zM128 47.4c-2.1-.8-4.5.3-5.3 2.4L46.3 252.6c-.8 2.1.3 4.5 2.4 5.3.5.2 1 .3 1.5.3 1.7 0 3.2-1 3.9-2.7l76.3-202.8c.8-2.2-.3-4.5-2.4-5.3zM48.4 168.3c.6.3 1.2.4 1.8.4 1.5 0 3-.8 3.7-2.3L91.1 91c.1-.1.2-.3.2-.4L109.9 53c1-2 .2-4.5-1.9-5.5-2-1-4.5-.2-5.5 1.9L86.4 82.1c-.1.1-.2.3-.3.5l-39.6 80.3c-1 2-.2 4.4 1.9 5.4zM256.9 252.6l-27.7-73.5c0-.3-.1-.5-.2-.8l-.1-.2c-.1-.3-.2-.5-.4-.7l-4.9-12.9c0-.1-.1-.3-.2-.4 0-.3-.1-.6-.2-.9L180.5 49.8c-.8-2.1-3.2-3.2-5.3-2.4-2.1.8-3.2 3.2-2.4 5.3l42.7 113.4c0 .1.1.3.2.4 0 .3.1.6.2.9l33.2 88.1c.6 1.7 2.2 2.7 3.9 2.7.5 0 1-.1 1.5-.3 2.1-.8 3.2-3.2 2.4-5.3zM249.3 166.5c.7 1.5 2.2 2.3 3.7 2.3.6 0 1.2-.1 1.8-.4 2-1 2.9-3.5 1.9-5.5l-56-113.4c-1-2-3.5-2.9-5.5-1.9s-2.9 3.5-1.9 5.5l56 113.4z"/></svg>