<svg id="Capa_1" xmlns="http://www.w3.org/2000/svg" viewBox="0 0 300 300"><style>.st0{fill:#80CEF3;}</style><path class="st0" d="M186.9 141.7c1.1 0 2.1-.6 2.7-1.5l18.5-29.7c.8-1.3.6-2.7-.2-3.8-.8-1.1-2.3-1.5-3.8-.8l-5.5 2.1-16.8-37.3c-.6-1.3-1.7-1.9-2.9-1.9h-54.7c-1.1 0-1.9.4-2.5 1.3l-31 37.1c-.6.6-.8 1.7-.6 2.5.2.8.6 1.7 1.3 2.3l31 22.9c1.5 1.1 3.6.8 4.6-.6l20.2-27.4 9.7 17.3-6.1 3.2c-1.3.6-1.9 1.9-1.7 3.2.2 1.3 1.1 2.5 2.5 2.7l34.5 8.4h.8zm-63.4-14.1l-25.5-19 27.8-33.3h4.4l13.7 25.5-20.4 26.8zm38.1 1.7l1.3-.6c.8-.4 1.5-1.1 1.7-1.9.2-.8.2-1.7-.2-2.5l-13.9-24.8-13.1-24.2h39.2l17.3 38.3c.6 1.3 2.1 2.1 3.4 1.9L185 135l-23.4-5.7zM135.1 191.8l-34.1-1.5 8.8-17.7 5.9 3.4c1.3.6 2.7.6 3.8-.4 1.1-.8 1.5-2.3.8-3.6l-12.4-33.3c-.4-1.3-1.7-2.1-3.2-2.1l-35.2 1.3c-1.5 0-2.5 1.1-2.9 2.3-.4 1.3.2 2.7 1.3 3.6l4.8 3.4-21.3 35c-.6 1.1-.6 2.5 0 3.6L75 220.5l9.1 13.7c.6.8 1.7 1.5 2.7 1.5h48c1.9 0 3.4-1.5 3.4-3.4v-37.1c0-1.7-1.4-3.2-3.1-3.4zm-55 24.4l-21.9-32.4L80.3 148c.8-1.3.6-2.7-.4-3.8l22.9-1.1 8.4 22.7-1.3-.6c-.8-.4-1.7-.6-2.5-.2-.8.2-1.5.8-1.9 1.7L93 192l-12.9 24.2zm51.4 12.9h-43l-4.2-6.5 13.5-25.7 33.7 1.5v30.7zM246.7 180.9l-21.1-43.4c-.4-.8-1.1-1.5-1.9-1.7-.8-.2-1.7-.2-2.5.4L187.5 155c-1.5.8-2.1 2.9-1.3 4.4l16.4 29.7-19.8 1.7-.2-6.7c0-1.5-1.1-2.5-2.3-2.9-1.3-.4-2.7 0-3.6 1.1l-21.9 28c-.8 1.1-.8 2.7-.2 3.8l19.6 29.1c.6.8 1.7 1.5 2.7 1.5.2 0 .6 0 .8-.2 1.3-.4 2.3-1.7 2.3-2.9l.2-5.9H221c1.3 0 2.5-.8 2.9-1.9l22.5-49.9c.7-1.1.7-2.2.3-3zm-27.2 48.2h-41.9c-1.5 0-2.7 1.1-3.2 2.3l-12.8-19.2 14.9-19.2v1.5c0 .8.4 1.7 1.1 2.3.6.6 1.5.8 2.5.8l28.2-2.5 27.4-1.9-16.2 35.9zm19-42.8l-28.8 2.1-16.3-29.4 27.8-15.6 19.2 39-1.9 3.9z"/></svg>