<svg id="Capa_1" xmlns="http://www.w3.org/2000/svg" viewBox="0 0 300 300"><style>.st0{fill:#80CEF3;}</style><path class="st0" d="M231.3 151.1c0-7.4-.9-14.5-2.7-21.3 2.5-5.8 3.7-11.9 3.7-18.2 0-25.7-20.9-46.7-46.7-46.7-6 0-11.8 1.1-17.3 3.3l.1.3c-7.3-2-15-3.1-22.9-3.1-8.5 0-16.6 1.2-24.4 3.5l.3-.7c-5.5-2.2-11.3-3.3-17.3-3.3-25.7 0-46.7 20.9-46.7 46.7 0 6.5 1.3 12.9 3.9 18.8l1-.4c-1.7 6.8-2.7 13.9-2.7 21.2 0 7.6 1 14.9 2.8 21.9l-1.2-.5c-2.6 5.9-3.9 12.3-3.9 18.8 0 25.7 20.9 46.7 46.7 46.7 6 0 11.8-1.1 17.3-3.3l-.5-1.4c7.8 2.3 16.1 3.6 24.6 3.6 8 0 15.8-1.1 23.2-3.2l-.4.9c5.5 2.2 11.3 3.3 17.3 3.3 25.7 0 46.7-20.9 46.7-46.7 0-6.4-1.3-12.6-3.8-18.5 2-6.9 2.9-14.2 2.9-21.7zm-8.4-10.8h-32.8c-4.1-16.8-17.4-30-34.2-33.9V73.7c34.7 4.6 62.2 32 67 66.6zm-77.4 49.1c-21.1 0-38.2-17.2-38.2-38.2s17.2-38.2 38.2-38.2 38.2 17.2 38.2 38.2-17.1 38.2-38.2 38.2zm-10.8-82.9c-16.8 4.1-30 17.4-33.9 34.2H68.1c4.6-34.6 32.1-62.2 66.6-67v32.8zM100.9 162c4.1 16.8 17.4 30 34.2 33.9v32.8c-34.6-4.6-62.2-32.1-67-66.6h32.8zm55.4 33.7c16.8-4.1 30-17.4 33.9-34.2H223c-4.6 34.6-32.1 62.2-66.6 67v-32.8zm29.4-123.2c21.5 0 39 17.5 39 39 0 1.9-.1 3.7-.4 5.6-8.5-19.6-24.2-35.5-43.7-44.3 1.7-.2 3.4-.3 5.1-.3zM65.1 111.6c0-21.5 17.5-39 39-39 2 0 4 .2 6 .5-20.1 9.1-36 25.7-44.3 46.3-.4-2.7-.7-5.2-.7-7.8zm39 118.8c-21.5 0-39-17.5-39-39 0-2.8.3-5.5.8-8.1 8.4 20.8 24.7 37.5 45.2 46.5-2.3.3-4.6.6-7 .6zm120.6-39.1c0 21.5-17.5 39-39 39-2 0-4.1-.2-6.1-.5 19.9-8.7 35.9-24.7 44.6-44.6.3 2.1.5 4.1.5 6.1z"/></svg>