<svg id="Capa_1" xmlns="http://www.w3.org/2000/svg" viewBox="0 0 300 300"><style>.st0{fill:#80CEF3;}</style><g id="surface1_8_"><path class="st0" d="M491.7 146.5v-37.3c0-1.1-.5-2.1-1.2-2.8l-41.8-43.9c-.8-.8-1.9-1.3-3-1.3h-66.3c-12.2 0-22 10-22 22.2v125.3c0 12.2 9.8 22 22 22h52.3c9.9 16.4 27.9 27.4 48.4 27.4 31.1 0 56.5-25.3 56.5-56.5.1-27.1-19.5-49.8-44.9-55.1zm-41.9-70.9l28 29.5h-18.2c-5.4 0-9.9-4.5-9.9-9.9V75.6zm-70.4 147c-7.7 0-13.8-6.2-13.8-13.8V83.4c0-7.7 6.1-14 13.8-14h62.2v25.8c0 10 8.1 18.1 18.1 18.1h23.8v32.1c-1.2 0-2.2-.2-3.3-.2-14.3 0-27.5 5.5-37.4 14.1h-52.1c-2.3 0-4.1 1.8-4.1 4.1s1.8 4.1 4.1 4.1h44.5c-2.9 4.1-5.3 8.2-7.2 12.7h-37.3c-2.3 0-4.1 1.8-4.1 4.1s1.8 4.1 4.1 4.1h34.6c-1 4.1-1.6 8.7-1.6 13.2 0 7.4 1.4 14.7 4 20.9l-48.3.1zM480.1 250c-26.6 0-48.2-21.6-48.2-48.2s21.6-48.2 48.2-48.2 48.2 21.6 48.2 48.2-21.6 48.2-48.2 48.2z"/><path class="st0" d="M390.6 147h41.6c2.3 0 4.1-1.8 4.1-4.1s-1.8-4.1-4.1-4.1h-41.6c-2.3 0-4.1 1.8-4.1 4.1s1.8 4.1 4.1 4.1zM390.6 125.6h41.6c2.3 0 4.1-1.8 4.1-4.1s-1.8-4.1-4.1-4.1h-41.6c-2.3 0-4.1 1.8-4.1 4.1s1.8 4.1 4.1 4.1zM390.6 102h41.6c2.3 0 4.1-1.8 4.1-4.1s-1.8-4.1-4.1-4.1h-41.6c-2.3 0-4.1 1.8-4.1 4.1 0 2.2 1.8 4.1 4.1 4.1z"/></g><path class="st0" d="M507.9 169.1c-.5-.8-1.3-1.4-2.3-1.6-1.7-.4-3.3.3-4.3 2.1L467.8 230l-4.7-22c-.4-1.6-1.2-2.5-2.5-2.9-.6-.2-1.3-.2-2 0l-8.3 1.9c-1.7.3-2.6 1.2-3 2.6-.2.9-.1 1.8.4 2.6.4.7 1.1 1.2 1.9 1.4.7.2 1.5.1 1.8 0l5.1-1 .1.1 5.2 23.8c.5 2.3 1.3 4.5 3.8 5.1.4.1.8.2 1.2.2 1.8 0 3.3-1 4.4-3.1l36.5-65.7c.2-.5.4-.8.5-1.2.3-.9.2-1.9-.3-2.7zM-318-287.3c-3.3 3.3-5.1 7.7-5.1 12.3 0 4.6 1.8 9 5.1 12.3 3.3 3.3 7.6 5.1 12.3 5.1 4.6 0 9-1.8 12.3-5.1 3.3-3.3 5.1-7.6 5.1-12.3 0-4.6-1.8-9-5.1-12.3-6.8-6.7-17.8-6.7-24.6 0zm6.9 6.9c1.4-1.4 3.3-2.2 5.4-2.2 2 0 3.9.8 5.4 2.2 1.4 1.4 2.2 3.4 2.2 5.4 0 2-.8 3.9-2.2 5.4-1.5 1.5-3.4 2.2-5.4 2.2-2 0-3.9-.7-5.4-2.2-1.4-1.4-2.2-3.4-2.2-5.4 0-2 .8-3.9 2.2-5.4zM-248.5-332.1c-13.7-13.7-32-22.1-51.3-23.5-19.2-1.4-38.2 4.1-53.6 15.4-3.6 2.6-5.8 6.7-6.1 11.1-.3 4.4 1.3 8.8 4.4 11.9l.7.7c2.9 2.9 6.9 4.4 10.8 4.4 3.1 0 6.2-.9 8.8-2.9 16.2-11.9 38.6-12.7 55.6-2 1.2.8 2 2 2.2 3.5.2 1.5-.3 3-1.4 4-1.6 1.6-4.1 1.9-6.1.6-7.5-4.7-16.5-6.7-25.3-5.8-9 1-17.4 5-23.8 11.4-2 2-2 5.3 0 7.3 1 1 2.3 1.5 3.6 1.5 1.4 0 2.7-.5 3.6-1.5 9.8-9.8 24.7-11.5 36.4-4.2 2.5 1.6 5.4 2.3 8.1 2.3 3.9 0 7.8-1.5 10.7-4.4 3.3-3.3 4.9-7.8 4.4-12.5-.5-4.6-3-8.6-6.9-11.1-10.1-6.4-21.8-9.5-33.9-9.1-12.1.4-23.6 4.4-33.3 11.5-1.9 1.4-4.6 1.1-6.2-.6l-.7-.7c-1-1-1.5-2.4-1.4-3.8.1-1.4.8-2.7 2-3.6 27.8-20.4 67.1-17.4 91.5 7 1 1 2.3 1.5 3.6 1.5s2.7-.5 3.6-1.5c2-1.7 2-4.9 0-6.9zM873.2-323.6c-.7-.3-1.5-.1-2 .4l-3.1 3.1v-26.2c0-1-.8-1.9-1.9-1.9h-9.1l2.9-2.9 3.6-3.6c.9-.9 1.4-2 1.4-3.3 0-1.2-.5-2.4-1.4-3.3l-4.2-4.2c-1.8-1.8-4.8-1.8-6.6 0l-17.2 17.2h-41.1v-12.8c0-1-.8-1.9-1.9-1.9-6.1 0-11.1 5-11.1 11.1v57.5c.2 2.6 1.3 5 3.2 6.9 2 2 4.7 3 7.5 3h39.9l-6.9 6.9c-.5.5-.7 1.3-.4 2 .3.7 1 1.2 1.7 1.2h45.9c1 0 1.9-.8 1.9-1.9v-45.9c.1-.4-.4-1.1-1.1-1.4zm-17.7-39c.3-.3.9-.3 1.2 0l4.2 4.2c.2.2.3.4.3.6 0 .2-.1.5-.3.6l-2.3 2.3-5.4-5.4 2.3-2.3zm-11.6 72.1c.7-.7.7-1.9 0-2.7-.1-.1-.2-.2-.3-.2-.7-.5-1.7-.4-2.4.2l-5.3 5.3h-43.6c-3.8 0-6.9-3-7-6.7 0-.2 0-.5.1-.7 0-.1 0-.2.1-.4l.3-1.1-.5-.2h.6l.1-.3c0-.1.1-.2.1-.3 1-2.1 2.9-3.6 5.2-4l1.1-.1h.4c1 0 1.9-.8 1.9-1.9v-9.8c0-1-.8-1.9-1.9-1.9-1 0-1.9.8-1.9 1.9v8c-2.1.3-3.9 1.2-5.5 2.6v-48.9c0-3.4 2.3-6.3 5.5-7.1v39.9c0 1 .8 1.9 1.9 1.9 1 0 1.9-.8 1.9-1.9v-25.5H832l-6.5 6.5c-.7.7-.7 1.9 0 2.7.7.7 1.9.7 2.7 0l18.2-18.2 5.4 5.4-27.1 27.1-5.4-5.4 5-5c.7-.7.7-1.9 0-2.7-.7-.7-1.9-.7-2.7 0l-6.3 6.3-.2.2.4.4-.5-.2s-.1.1-.1.2c0 0-.1.1-.1.2l-4.4 12.4h-4.1c-1 0-1.9.8-1.9 1.9 0 1 .8 1.9 1.9 1.9h37.3c1 0 1.9-.8 1.9-1.9 0-1-.8-1.9-1.9-1.9h-23.7l5.4-1.9.2-.1-.3-.5.4.4.2-.1c.1 0 .1-.1.2-.1l27.6-27.6h11v28l-19.1 19.1c-.4.4-.5.8-.5 1.3s.2 1 .5 1.3l.1.1c.7.5 1.7.5 2.4 0l.1-.1 22.8-22.8v10.1h-2c-1 0-1.9.8-1.9 1.9 0 1 .8 1.9 1.9 1.9h2v3h-2c-1 0-1.9.8-1.9 1.9 0 1 .8 1.9 1.9 1.9h2v3h-2c-1 0-1.9.8-1.9 1.9 0 1 .8 1.9 1.9 1.9h2v3h-2c-1 0-1.9.8-1.9 1.9s.8 1.9 1.9 1.9h2v5.4h-39.5l12.5-12.7zM825.3-317zm-4.3-1.8l-2.8 1-2.1-2.1 1-2.8 3.9 3.9zm33.3-31.7l-5.4-5.4 1.7-1.7 5.4 5.4-1.7 1.7zM-1017.7 33.4c-.7-1-1.5-2-2.3-3-8.8-10.6-22.1-17.3-36.9-17.3H-1057.2c-14.7.1-27.9 6.8-36.6 17.3-.8 1-1.6 2-2.3 3-5.5 7.8-8.8 17.4-8.8 27.7s3.3 19.9 8.8 27.7c.7 1 1.5 2 2.3 3 8.8 10.5 21.9 17.2 36.6 17.3H-1056.9c14.8 0 28.1-6.7 36.9-17.3.8-1 1.6-2 2.3-3 5.5-7.8 8.8-17.4 8.8-27.7s-3.2-19.9-8.8-27.7zm-53.2-14.1c-4.4 4.3-8.1 10.5-10.6 18-3.4-1.3-6.4-2.8-9.1-4.5 5.1-6.2 11.9-10.9 19.7-13.5zm-22 16.4c3 2 6.4 3.7 10.3 5.2-1.6 6-2.6 12.7-2.6 19.7h-15.7c0-9.2 3-17.8 8-24.9zm-7.9 28.9h15.6c.3 5.9 1.2 11.5 2.5 16.6-3.8 1.4-7.3 3.2-10.3 5.2-4.3-6.3-7.2-13.7-7.8-21.8zm10.2 24.8c2.6-1.7 5.7-3.2 9-4.5 2.5 7.5 6.2 13.7 10.6 18-7.7-2.7-14.4-7.4-19.6-13.5zm31.7 15.6c-8.1-1.1-15.1-9.4-19-21.3 5.7-1.7 12.2-2.7 19-2.9V105zm0-28.2c-7.2.2-14.1 1.3-20.1 3.2-1.2-4.7-2-9.9-2.3-15.4h22.4v12.2zm0-16.1h-22.5c0-6.6.9-12.9 2.4-18.5 6.1 1.9 12.9 3 20.1 3.1v15.4zm0-19.3c-6.9-.2-13.3-1.2-19-2.9 4-11.9 10.9-20.2 19-21.4v24.3zm46.1 19.3h-15.9c0-7-1-13.7-2.6-19.7 3.9-1.5 7.4-3.2 10.5-5.3 4.9 7.1 7.9 15.7 8 25zm-10.4-28c-2.7 1.8-5.8 3.3-9.3 4.6-2.6-7.6-6.3-13.9-10.8-18.1 8 2.5 14.9 7.3 20.1 13.5zm-31.7-15.6c8 1.2 14.9 9.5 18.8 21.4-5.6 1.7-12 2.7-18.8 2.9V17.1zm0 28.2c7.1-.2 13.9-1.3 19.9-3.1 1.5 5.6 2.3 11.8 2.4 18.4h-22.3V45.3zm0 19.3h22.2c-.2 5.4-1 10.6-2.3 15.3-6-1.8-12.8-2.9-19.9-3.1V64.6zm0 40.4V80.8c6.8.2 13.2 1.2 18.8 2.9-3.9 11.8-10.8 20-18.8 21.3zm11.7-2c4.5-4.3 8.2-10.6 10.8-18.1 3.5 1.3 6.6 2.8 9.3 4.6-5.3 6.1-12.2 10.9-20.1 13.5zm22.3-16.6c-3-2-6.6-3.8-10.5-5.3 1.4-5.1 2.3-10.7 2.5-16.5h15.8c-.5 8.1-3.3 15.5-7.8 21.8zM891.1 55.5c-4.6-9-13.8-14.6-23.9-14.5-2.8 0-5.7.5-8.4 1.4l-11-22h17.3c1.1 0 2.1.9 2.1 2.1 0 1.1-.9 2.1-2.1 2.1h-8.3c-1.1 0-2.1.9-2.1 2.1 0 1.1.9 2.1 2.1 2.1h8.3c3.4 0 6.2-2.8 6.2-6.2s-2.8-6.2-6.2-6.2h-20.7c-1.1 0-2.1.9-2.1 2.1 0 .3.1.6.2.9l2.6 5.3h-36.7l-2.1-4.1h11.1c1.1 0 2.1-.9 2.1-2.1s-.9-2.1-2.1-2.1H797c-1.1 0-2.1.9-2.1 2.1s.9 2.1 2.1 2.1h4.9l3.1 6.2-7.9 15.8c-14.1-4.6-29.3 3-33.9 17.1s3 29.3 17.1 33.9c14.1 4.6 29.3-3 33.9-17.1.7-2.1 1.1-4.2 1.3-6.3H828c.2 0 .3 0 .5-.1 0 0 .1 0 .1-.1.1 0 .2-.1.2-.1h.1c.1 0 .1-.1.2-.1.1-.1.2-.1.3-.2l.1-.1s0-.1.1-.1c0 0 .1-.1.1-.2v-.1l.1-.1 18.8-37.6 6.4 12.8c-13.2 6.8-18.3 22.9-11.6 36.1 6.8 13.2 22.9 18.3 36.1 11.6 13.2-7.1 18.4-23.2 11.6-36.4zm-102.4 35c-12.5 0-22.7-10.1-22.7-22.7 0-12.5 10.1-22.7 22.7-22.7 2.2 0 4.4.3 6.6 1l-10.4 20.8c-.5 1-.1 2.3.9 2.8.3.1.6.2.9.2h24.7c-1.1 11.7-10.9 20.6-22.7 20.6zm1.3-24.8l9.1-18.1c6.9 3.5 11.6 10.4 12.3 18.1H790zm25.5 0c-.7-9.3-6.2-17.6-14.6-21.8l6.4-12.8 17.3 34.6h-9.1zm12.5-2.5l-17.3-34.6h34.6L828 63.2zm45.8 26.4c-2.1.6-4.3 1-6.6 1-12.5 0-22.7-10.1-22.7-22.7 0-8.5 4.8-16.4 12.4-20.2l10.6 21.1c.5 1 1.8 1.4 2.8.9s1.4-1.8.9-2.8l-10.4-20.8c12-3.6 24.7 3.2 28.3 15.2 3.5 12-3.3 24.7-15.3 28.3z"/><path class="st0" d="M788.7 95.3c-2.8 0-5.7-.4-8.6-1.4-14.4-4.7-22.2-20.3-17.5-34.6 4.7-14.2 19.9-22 34.2-17.6l7.5-15.1-2.8-5.6H797c-1.5 0-2.7-1.2-2.7-2.7 0-1.5 1.2-2.7 2.7-2.7h20.7c1.5 0 2.7 1.2 2.7 2.7 0 1.5-1.2 2.7-2.7 2.7h-10.2l1.5 3h35.4l-2.2-4.4c-.2-.4-.3-.8-.3-1.2 0-1.5 1.2-2.6 2.7-2.6h20.6c3.7 0 6.8 3 6.8 6.8s-3 6.8-6.8 6.8h-8.3c-1.5 0-2.7-1.2-2.7-2.7s1.2-2.7 2.7-2.7h8.3c.8 0 1.5-.7 1.5-1.5s-.7-1.5-1.5-1.5h-16.4l10.4 20.7c2.6-.8 5.4-1.2 8.1-1.2 10.3 0 19.6 5.7 24.4 14.9 6.9 13.4 1.6 30-11.8 36.9-6.5 3.3-13.9 4-20.9 1.7-7-2.2-12.6-7-16-13.6-6.8-13.3-1.7-29.5 11.3-36.6l-5.6-11.2L830.3 69l-.1.1c-.1.1-.1.2-.2.3 0 .1-.1.1-.1.2l-.1.1-.3.3s-.1.1-.2.1c-.1.1-.2.1-.3.2-.1 0-.1.1-.2.1 0 0-.1 0-.2.1-.3.1-.5.1-.7.1h-12c-.2 2-.6 4-1.2 5.9-3.7 11.4-14.5 18.8-26 18.8zm0-53.7c-11 0-21.3 7-25 18-4.5 13.8 3 28.6 16.7 33.2 13.8 4.5 28.6-3 33.2-16.7.7-2 1.1-4.1 1.2-6.2 0-.3.3-.5.6-.5h12.9c.1 0 .1 0 .2-.1h.1c.1-.1.2-.1.2-.1.1-.1.2-.1.2-.2l.1-.1.5.3-.4-.4.1-.2 18.8-37.5c.2-.4.9-.4 1.1 0l6.4 12.8c.1.3 0 .6-.3.8-12.9 6.6-17.9 22.4-11.3 35.3 3.2 6.2 8.6 10.8 15.3 13 6.7 2.1 13.8 1.6 20-1.6 12.9-6.6 17.9-22.4 11.3-35.3-4.5-8.8-13.4-14.2-23.3-14.2-2.8 0-5.6.4-8.3 1.3-.3.1-.6 0-.7-.3l-11-22c-.1-.2-.1-.4 0-.6.1-.2.3-.3.5-.3h17.3c1.5 0 2.7 1.2 2.7 2.7s-1.2 2.7-2.7 2.7h-8.3c-.8 0-1.5.7-1.5 1.5s.7 1.5 1.5 1.5h8.3c3.1 0 5.6-2.5 5.6-5.6s-2.5-5.6-5.6-5.6h-20.7c-.4 0-.8.1-1 .4-.3.3-.4.6-.4 1 0 .2.1.5.2.7l2.6 5.3c.1.2.1.4 0 .6-.1.2-.3.3-.5.3h-36.7c-.2 0-.4-.1-.5-.3l-2.1-4.1c-.1-.2-.1-.4 0-.6.1-.2.3-.3.5-.3h11.1c.8 0 1.5-.7 1.5-1.5s-.7-1.5-1.5-1.5H797c-.8 0-1.5.7-1.5 1.5s.7 1.5 1.5 1.5h4.9c.2 0 .4.1.5.3l3.1 6.2c.1.2.1.4 0 .5L797.6 43c-.1.3-.4.4-.7.3-2.7-1.3-5.5-1.7-8.2-1.7zm0 49.5c-12.8 0-23.3-10.4-23.3-23.3s10.4-23.3 23.3-23.3c2.3 0 4.5.3 6.7 1 .2 0 .3.2.4.3.1.2.1.3 0 .5l-10.4 20.8c-.2.4-.2.8-.1 1.1.1.4.4.7.7.9.2.1.4.2.7.2h24.7c.2 0 .3.1.4.2s.2.3.2.5c-1.2 12-11.2 21.1-23.3 21.1v-.6.6zm0-45.4c-12.2 0-22.1 10-22.1 22.2S776.5 90 788.7 90c11.3 0 20.6-8.3 22-19.5h-24c-.4 0-.8-.1-1.2-.3-.6-.3-1.1-.9-1.3-1.5-.2-.7-.2-1.4.1-2l10.1-20.2c-1.9-.6-3.8-.8-5.7-.8zm78.5 45.4c-6.3 0-12.1-2.4-16.5-6.8s-6.8-10.2-6.8-16.5c0-8.8 4.9-16.8 12.7-20.8.1-.1.3-.1.5 0 .1 0 .3.2.3.3L868 68.4c.4.7 1.3 1 2 .7.4-.2.6-.5.7-.9.1-.4.1-.8-.1-1.1l-10.4-20.8c-.1-.2-.1-.3 0-.5s.2-.3.4-.3c12.3-3.7 25.3 3.3 29 15.6 1.8 6 1.2 12.3-1.8 17.7-2.9 5.5-7.9 9.5-13.8 11.3-2.2.7-4.5 1-6.8 1zm0-1.2c2.2 0 4.3-.3 6.4-.9 5.7-1.7 10.3-5.5 13.1-10.7 2.8-5.2 3.4-11.2 1.7-16.8C885 50 873 43.4 861.5 46.4l10.1 20.2c.3.6.4 1.4.1 2-.2.7-.7 1.2-1.3 1.5-.6.3-1.4.4-2 .1-.7-.2-1.2-.7-1.5-1.3l-10.3-20.6c-7.1 3.9-11.5 11.3-11.5 19.4 0 12.3 9.9 22.2 22.1 22.2zm6.6-.3zm-49.2-23.3h-9.2c-.3 0-.6-.2-.6-.5-.7-9-6.2-17.2-14.2-21.3-.3-.1-.4-.5-.3-.8l6.4-12.8c.2-.4.9-.4 1.1 0l17.3 34.6c.1.2.1.4 0 .6-.1.1-.3.2-.5.2zm-8.6-1.1h7.7l-16.4-32.7-5.6 11.2c8 4.3 13.4 12.4 14.3 21.5zm-4.7 1.1H790c-.2 0-.4-.1-.5-.3s-.1-.4 0-.6l9.1-18.1.3-.3h.5c7.1 3.7 11.8 10.6 12.6 18.6 0 .2 0 .3-.2.5s-.3.2-.5.2zM791 65.2h19.7c-.9-7.1-5.1-13.3-11.4-16.7L791 65.2zm37-1.4c-.2 0-.4-.1-.5-.3l-17.3-34.6c-.1-.2-.1-.4 0-.6s.3-.3.5-.3h34.6c.2 0 .4.1.5.3s.1.4 0 .6l-17.3 34.6c-.1.2-.3.3-.5.3zm-16.4-34.6L828 61.9l16.4-32.7h-32.8zM-303.3 33.1c-17.9 0-32.5 14.6-32.5 32.5s14.6 32.5 32.5 32.5 32.5-14.6 32.5-32.5-14.6-32.5-32.5-32.5m0 57.1c-13.5 0-24.5-11-24.5-24.5s11-24.5 24.5-24.5 24.5 11 24.5 24.5-11 24.5-24.5 24.5M-320.7 30.5c8.6 0 15.7-7 15.7-15.7 0-8.6-7-15.7-15.7-15.7-8.6 0-15.7 7-15.7 15.7.1 8.7 7.1 15.7 15.7 15.7m0-23.3c4.2 0 7.6 3.4 7.6 7.6 0 4.2-3.4 7.6-7.6 7.6-4.2 0-7.6-3.4-7.6-7.6s3.4-7.6 7.6-7.6M-286 30.5c8.6 0 15.7-7 15.7-15.7 0-8.6-7-15.7-15.7-15.7-8.6 0-15.7 7-15.7 15.7s7.1 15.7 15.7 15.7m0-23.3c4.2 0 7.6 3.4 7.6 7.6 0 4.2-3.4 7.6-7.6 7.6-4.2 0-7.6-3.4-7.6-7.6s3.4-7.6 7.6-7.6M-331.1 39c0-8-6.5-14.5-14.5-14.5S-360.1 31-360.1 39s6.5 14.5 14.5 14.5 14.5-6.5 14.5-14.5m-14.5 6.5c-3.6 0-6.5-2.9-6.5-6.5s2.9-6.5 6.5-6.5 6.5 2.9 6.5 6.5c-.1 3.6-3 6.5-6.5 6.5M-261 24.5c-8 0-14.5 6.5-14.5 14.5s6.5 14.5 14.5 14.5 14.5-6.5 14.5-14.5-6.5-14.5-14.5-14.5m0 21c-3.6 0-6.5-2.9-6.5-6.5s2.9-6.5 6.5-6.5 6.5 2.9 6.5 6.5c-.1 3.6-3 6.5-6.5 6.5"/><path class="st0" d="M-292 60.5h-6.2v-6.2c0-.7-.6-1.3-1.3-1.3h-7.6c-.7 0-1.3.6-1.3 1.3v6.2h-6.2c-.7 0-1.3.6-1.3 1.3v7.6c0 .7.6 1.3 1.3 1.3h6.2V77c0 .7.6 1.3 1.3 1.3h7.6c.7 0 1.3-.6 1.3-1.3v-6.2h6.2c.7 0 1.3-.6 1.3-1.3v-7.6c0-.8-.6-1.4-1.3-1.4"/><g><path class="st0" d="M877.7 356.8l-21.6-18c-.3-.2-.9-.4-1.3-.4h-53.9c-.4 0-1 .1-1.3.4l-21.4 18c-1 .7-1.5 1.6-1.5 2.7v81.3h102.5v-81.4c0-1-.6-1.8-1.5-2.6zm-22.5 10.8c0 4.1-3.5 7.6-7.6 7.6s-7.6-3.5-7.6-7.6v-6.5h15.3v6.5zm-19.6 0c0 4.1-3.5 7.6-7.6 7.6s-7.6-3.5-7.6-7.6v-6.5h15.3v6.5zm-19.6 0c0 4.1-3.5 7.6-7.6 7.6s-7.6-3.5-7.6-7.6v-6.5H816v6.5zm15.5-24.8l3.4 14H821l3.3-14h7.2zm11.5 0l10.1 14h-13.6l-2.1-8.4-1.3-5.6h6.9zm-26.6 13.9h-13.6l10.1-14h6.8l-3.3 14zm54.5 0h-12.4l-10.1-14h5.8l16.7 14zm-69.1-13.9h5.8l-10 14H785l16.8-14zm-20.7 18.3h15.3v6.5c0 4.1-3.5 7.6-7.6 7.6s-7.6-3.5-7.6-7.6v-6.5zm0 75.4v-59.7c2.1 1.7 4.7 2.8 7.6 2.8 4 0 7.6-2.1 9.8-5.2 2.2 3.1 5.8 5.2 9.8 5.2s7.6-2.1 9.8-5.2c2.2 3.1 5.8 5.2 9.8 5.2s7.6-2.1 9.8-5.2c2.2 3.1 5.8 5.2 9.8 5.2s7.6-2.1 9.8-5.2c2.2 3.1 5.8 5.2 9.8 5.2 2.9 0 5.5-1.1 7.6-2.8v59.7h-93.6zm93.7-68.9c0 4.1-3.5 7.6-7.6 7.6s-7.6-3.5-7.6-7.6V361h15.3v6.6z"/><path class="st0" d="M779.1 406.2h98.1v4.4h-98.1z"/></g><g><path class="st0" d="M114.9 216.5h6.5v6.5h-6.5v-6.5zM114.9 229.4h6.5v6.5h-6.5v-6.5z"/><path class="st0" d="M189.2 152c2.9 0 5.7-1.3 7.5-3.5l13.2-15.8h24.3c8.9 0 16.1-7.2 16.1-16.1V84.2c0-8.9-7.2-16.1-16.1-16.1h-16.1c0-10.7-8.7-19.4-19.4-19.4s-19.4 8.7-19.4 19.4h-16.1c-8.9 0-16.1 7.2-16.1 16.1V102c-6.1-5.1-14-8.1-22.6-8.1h-3.2c-10.7 0-20.9 4.9-27.6 13.2-10.2 2.5-17.5 11.7-17.5 22.3 0 11.1 4.8 21.6 13.1 28.9 1.1 10 7.3 18.5 16 22.8v7l-22.5 5.3c-19 4.5-32.3 21.3-32.3 40.8v14.5H186v-14.5c0-6.3-1.4-12.3-3.9-17.8H194l13.2 15.8c1.9 2.2 4.6 3.5 7.5 3.5 5.4 0 9.8-4.4 9.8-9.8v-9.5h9.7c8.9 0 16.1-7.2 16.1-16.1v-25.8c0-8.9-7.2-16.1-16.1-16.1h-64.5c-8.9 0-16.1 7.2-16.1 16.1v18.9h-.1l-22.5-5.3v-7c8.7-4.3 14.9-12.8 16-22.8 7.5-6.6 12.1-15.8 12.9-25.7h19.5v9.5c0 5.5 4.4 9.9 9.8 9.9zm9.6-96.8c7.1 0 12.9 5.8 12.9 12.9S205.9 81 198.8 81s-12.9-5.8-12.9-12.9 5.7-12.9 12.9-12.9zm-91.7 139.1l7 9.3-7.5 10-6.5-17.6 7-1.7zm11 14.7l8.9 11.9-7.9 21.5h-2l-7.9-21.5 8.9-11.9zm-61.3 25.2c0-16.5 11.2-30.7 27.4-34.5l9.6-2.2 16.5 44.8H82.6v-19.4h-6.5v19.4H56.8v-8.1zm103.3-59.7c0-5.3 4.3-9.7 9.7-9.7h64.5c5.3 0 9.7 4.3 9.7 9.7v25.8c0 5.3-4.3 9.7-9.7 9.7h-16.1v16c0 1.9-1.5 3.4-3.4 3.4-1 0-1.9-.4-2.6-1.2L197 210h-18.9c-4.5-6.3-10.7-11.4-18.1-14.5l.1-21zm19.3 59.7v8.1H160v-19.4h-6.5v19.4H126l16.5-44.8 9.6 2.2c16.1 3.8 27.3 18 27.3 34.5zM136.2 196l-6.5 17.6-7.5-10 7-9.3 7 1.7zm-11.6-6.4l-6.5 8.6-6.5-8.6v-6.1c2.1.5 4.2.7 6.5.7s4.4-.3 6.5-.7v6.1zm16.1-34.4c0 12.5-10.1 22.6-22.6 22.6s-22.6-10.1-22.6-22.6V140c0-2.3 1.9-4.2 4.2-4.2.8 0 1.6.2 2.3.7l8.6 5.7H131c5.3 0 9.7 4.3 9.7 9.7v3.3zm6.2-6.1c-1.4-7.5-7.9-13.3-15.8-13.3h-18.4l-7-4.7c-1.8-1.2-3.8-1.8-5.9-1.8-5.9 0-10.7 4.8-10.7 10.7v8.7c-4.1-5.5-6.5-12.3-6.5-19.3 0-7.8 5.6-14.6 13.2-16.1l1.5-.3.7-1c5.5-7.3 14.1-11.6 23.2-11.6h3.2c16 0 29 13 29 29 .2 7.2-2.2 14.1-6.5 19.7zm13-22.9c-.6-6.3-2.8-12.2-6.3-17.1V84.2c0-5.3 4.3-9.7 9.7-9.7h17.3c1.2 3.5 3.4 6.5 6.3 8.8-11.9 4.8-20.3 16.4-20.3 29.9v6.5H231v-6.5c0-13.6-8.4-25.2-20.3-29.9 2.9-2.2 5.1-5.3 6.3-8.8h17.3c5.3 0 9.7 4.3 9.7 9.7v32.3c0 5.3-4.3 9.7-9.7 9.7H207l-15.1 18.1c-.6.8-1.6 1.2-2.6 1.2-1.9 0-3.4-1.5-3.4-3.4v-16h-26zm38.9-38.7c14.2 0 25.8 11.6 25.8 25.8H173c0-14.3 11.5-25.8 25.8-25.8z"/><path class="st0" d="M166.5 171.3h71v6.5h-71v-6.5zM166.5 184.2h71v6.5h-71v-6.5zM179.4 197.1h45.2v6.5h-45.2v-6.5zM231 197.1h6.5v6.5H231v-6.5z"/></g><path class="st0" d="M-256.8 398.9c0-4-.5-7.8-1.4-11.5 1.3-3.1 2-6.4 2-9.8 0-13.9-11.3-25.2-25.2-25.2-3.2 0-6.4.6-9.3 1.8l.1.1c-3.9-1.1-8.1-1.7-12.4-1.7-4.6 0-9 .7-13.1 1.9l.1-.4c-3-1.2-6.1-1.8-9.3-1.8-13.9 0-25.2 11.3-25.2 25.2 0 3.5.7 6.9 2.1 10.1l.5-.2c-.9 3.7-1.4 7.5-1.4 11.4 0 4.1.5 8 1.5 11.8l-.6-.3c-1.4 3.2-2.1 6.6-2.1 10.1 0 13.9 11.3 25.2 25.2 25.2 3.2 0 6.4-.6 9.3-1.8l-.3-.7c4.2 1.3 8.7 1.9 13.3 1.9 4.3 0 8.5-.6 12.5-1.7l-.2.5c3 1.2 6.1 1.8 9.3 1.8 13.9 0 25.2-11.3 25.2-25.2 0-3.5-.7-6.8-2.1-10 1-3.5 1.5-7.5 1.5-11.5zm-4.5-5.8H-279c-2.2-9-9.4-16.1-18.4-18.3v-17.6c18.7 2.5 33.5 17.2 36.1 35.9zm-41.7 26.4c-11.4 0-20.6-9.2-20.6-20.6s9.2-20.6 20.6-20.6c11.4 0 20.6 9.2 20.6 20.6s-9.2 20.6-20.6 20.6zm-5.8-44.6c-9 2.2-16.1 9.4-18.3 18.4h-17.6c2.5-18.7 17.3-33.5 35.9-36.1v17.7zm-18.2 29.8c2.2 9 9.4 16.1 18.4 18.3v17.6c-18.7-2.5-33.5-17.3-36.1-35.9h17.7zm29.8 18.2c9-2.2 16.1-9.4 18.3-18.4h17.6c-2.5 18.7-17.3 33.5-35.9 36.1v-17.7zm15.8-66.4c11.6 0 21 9.4 21 21 0 1-.1 2-.2 3-4.6-10.6-13-19.1-23.5-23.9.9 0 1.8-.1 2.7-.1zm-64.9 21.1c0-11.6 9.4-21 21-21 1.1 0 2.2.1 3.2.2-10.8 4.9-19.4 13.9-23.8 24.9-.3-1.3-.4-2.7-.4-4.1zm21 64c-11.6 0-21-9.4-21-21 0-1.5.2-2.9.5-4.4 4.5 11.2 13.3 20.2 24.3 25.1-1.3.2-2.5.3-3.8.3zm65-21c0 11.6-9.4 21-21 21-1.1 0-2.2-.1-3.3-.3 10.7-4.7 19.4-13.3 24-24 .2 1.1.3 2.2.3 3.3z"/><g><path class="st0" d="M-673 436.4h-9.1v-38l27.6-27.6h.8c4.8 0 9.7-2.1 13.4-5.8 4.1-4.1 6.3-9.7 5.7-15-.1-1.1-1-1.9-2-2-.5-.1-1.1-.1-1.6-.1-4.8 0-9.7 2.1-13.4 5.8-3.8 3.8-5.9 8.7-5.8 13.6l-24.7 24.7v-1c0-1.3-1-2.3-2.3-2.3s-2.3 1-2.3 2.3v45.5h-9.1c-1.3 0-2.3 1-2.3 2.3s1 2.3 2.3 2.3h22.8c1.3 0 2.3-1 2.3-2.3s-1-2.4-2.3-2.4zm24.6-79.5c2.6-2.6 6-4.2 9.3-4.4-.2 3.3-1.8 6.6-4.4 9.3-2.6 2.6-6 4.2-9.3 4.4.2-3.3 1.8-6.6 4.4-9.3zM-722.5 339.2c-4.5 0-8.8 1.9-11.4 5.1-.7.8-.7 2 0 2.9 2.6 3.2 6.8 5.1 11.4 5.1 4.5 0 8.8-1.9 11.4-5.1.7-.8.7-2 0-2.9-2.7-3.2-6.9-5.1-11.4-5.1zm0 8.5c-2.4 0-4.6-.7-6.3-2 1.7-1.3 3.9-2 6.3-2s4.6.7 6.3 2c-1.7 1.3-4 2-6.3 2zM-702.9 335.9c.4.3.9.5 1.4.5s1-.2 1.4-.5c3.4-2.8 5.4-7.3 5.4-12.1s-2-9.3-5.4-12.1c-.8-.7-2-.7-2.9 0-3.4 2.8-5.4 7.3-5.4 12.1s2.2 9.4 5.5 12.1zm1.5-19.1c1.5 1.9 2.3 4.4 2.3 7.1s-.8 5.2-2.3 7.1c-1.5-1.9-2.3-4.4-2.3-7.1s.8-5.2 2.3-7.1z"/><path class="st0" d="M-634.8 379c-2.6-3.2-6.8-5.1-11.4-5.1-4.5 0-8.8 1.9-11.4 5.1-.7.8-.7 2 0 2.9 2.6 3.2 6.8 5.1 11.4 5.1 4.5 0 8.8-1.9 11.4-5.1.7-.9.7-2.1 0-2.9zm-11.4 3.4c-2.4 0-4.6-.7-6.3-2 1.7-1.3 3.9-2 6.3-2s4.6.7 6.3 2c-1.7 1.3-3.9 2-6.3 2zM-668.7 370.6c.4.3.9.5 1.4.5s1-.2 1.4-.5c3.4-2.8 5.4-7.3 5.4-12.1s-2-9.3-5.4-12.1c-.8-.7-2-.7-2.9 0-3.4 2.8-5.4 7.3-5.4 12.1s2.1 9.4 5.5 12.1zm1.4-19.1c1.5 1.9 2.3 4.4 2.3 7.1s-.8 5.2-2.3 7.1c-1.5-1.9-2.3-4.4-2.3-7.1s.9-5.2 2.3-7.1zM-694.1 368.8c-.9-.9-2.3-.9-3.2 0-.9.9-.9 2.3 0 3.2l11.4 11.4.1.1s.1 0 .1.1c0 0 .1 0 .1.1 0 0 .1 0 .1.1 0 0 .1 0 .1.1H-683.5s.1 0 .1-.1c0 0 .1 0 .1-.1 0 0 .1 0 .1-.1 0 0 .1 0 .1-.1 0 0 .1 0 .1-.1l.1-.1v-.1l.1-.1s0-.1.1-.1c0 0 0-.1.1-.1 0 0 0-.1.1-.1v-.1s0-.1.1-.1v-.1-.1-.1-.1-.1-.1-.1-43.2c0-1.3-1-2.3-2.3-2.3s-2.3 1-2.3 2.3v18.4l-24.7-24.7c.1-4.8-2-9.8-5.8-13.6-3.7-3.7-8.6-5.8-13.4-5.8-.5 0-1.1 0-1.6.1-1.1.1-1.9 1-2 2-.5 5.2 1.6 10.8 5.7 15 3.7 3.7 8.6 5.8 13.4 5.8h.8l27.6 27.6v12.6l-7.1-7.3zm-35.5-51c3.3.2 6.7 1.8 9.3 4.4 2.6 2.6 4.2 6 4.4 9.3-3.3-.2-6.7-1.8-9.3-4.4-2.6-2.7-4.2-6-4.4-9.3z"/></g><g><path class="st0" d="M440.9-258.2c-1.4 0-2.6 1.2-2.6 2.6v15.3c0 1.4 1.2 2.6 2.6 2.6s2.6-1.2 2.6-2.6v-15.3c0-1.4-1.2-2.6-2.6-2.6zM440.9-286.6c-1.4 0-2.6 1.2-2.6 2.6v15.3c0 1.4 1.2 2.6 2.6 2.6s2.6-1.2 2.6-2.6V-284c0-1.5-1.2-2.6-2.6-2.6zM440.9-315.1c-1.4 0-2.6 1.2-2.6 2.6v15.3c0 1.4 1.2 2.6 2.6 2.6s2.6-1.2 2.6-2.6v-15.3c0-1.4-1.2-2.6-2.6-2.6zM440.9-343.5c-1.4 0-2.6 1.2-2.6 2.6v15.3c0 1.4 1.2 2.6 2.6 2.6s2.6-1.2 2.6-2.6v-15.3c0-1.5-1.2-2.6-2.6-2.6zM440.9-372c-1.4 0-2.6 1.2-2.6 2.6v15.3c0 1.4 1.2 2.6 2.6 2.6s2.6-1.2 2.6-2.6v-15.3c0-1.4-1.2-2.6-2.6-2.6zM425.8-371.8c-1.4-.5-2.9.2-3.4 1.5l-48.6 129.1c-.5 1.4.2 2.9 1.5 3.4.3.1.6.2.9.2 1.1 0 2.1-.6 2.5-1.7l48.6-129.1c.6-1.4-.1-2.9-1.5-3.4zM375.1-294.8c.4.2.8.3 1.2.3 1 0 1.9-.5 2.4-1.5l23.7-48.1c.1-.1.1-.2.2-.3l11.8-23.9c.6-1.3.1-2.9-1.2-3.5-1.3-.6-2.9-.1-3.5 1.2l-10.3 20.8c-.1.1-.1.2-.2.3L374-298.3c-.7 1.3-.2 2.9 1.1 3.5zM507.9-241.1l-17.7-46.8c0-.2-.1-.3-.1-.5v-.1c-.1-.2-.1-.3-.2-.5l-3.1-8.2c0-.1-.1-.2-.1-.2 0-.2-.1-.4-.1-.6l-27.2-72.2c-.5-1.4-2-2-3.4-1.5s-2 2-1.5 3.4l27.2 72.2c0 .1.1.2.1.2 0 .2.1.4.1.6l21.2 56.1c.4 1.1 1.4 1.7 2.5 1.7.3 0 .6-.1.9-.2 1.2-.6 1.9-2.1 1.4-3.4zM503.1-296c.5.9 1.4 1.5 2.4 1.5.4 0 .8-.1 1.2-.3 1.3-.6 1.8-2.2 1.2-3.5l-35.7-72.2c-.6-1.3-2.2-1.8-3.5-1.2-1.3.6-1.8 2.2-1.2 3.5l35.6 72.2z"/></g><g><path class="st0" d="M456.6 402.2h-2.5c-.9 0-1.8-.6-2.1-1.4l-.9-2.1c-.4-.8-.2-1.8.4-2.5l1.8-1.8c2.6-2.6 2.6-6.9 0-9.5l-6.3-6.3c-2.6-2.6-6.9-2.6-9.5 0l-1.8 1.8c-.7.7-1.7.8-2.5.4l-2.1-.9c-.9-.3-1.5-1.2-1.5-2.1v-2.5c0-3.7-3-6.7-6.7-6.7h-9c-3.7 0-6.7 3-6.7 6.7v2.5c0 .9-.6 1.8-1.4 2.1l-2.1.9c-.8.4-1.8.2-2.5-.4l-1.8-1.8c-2.6-2.6-6.9-2.6-9.5 0l-6.3 6.4c-2.6 2.6-2.6 6.9 0 9.5l1.8 1.8c.7.7.8 1.7.4 2.5l-.9 2.1c-.3.9-1.2 1.5-2.1 1.4h-2.5c-3.7 0-6.7 3-6.7 6.7v9c0 3.7 3 6.7 6.7 6.7h2.5c.9 0 1.8.6 2.1 1.4l.9 2.1c.4.8.2 1.8-.4 2.5l-1.8 1.8c-2.6 2.6-2.6 6.9 0 9.5l6.3 6.3c2.6 2.6 6.9 2.6 9.5 0l1.8-1.8c.7-.7 1.7-.8 2.5-.4l2.1.9c.9.3 1.5 1.1 1.5 2.1v2.5c0 3.7 3 6.7 6.7 6.7h9c3.7 0 6.7-3 6.7-6.7v-2.5c0-.9.6-1.8 1.4-2.1l2.1-.9c.8-.4 1.8-.2 2.5.4l1.8 1.8c2.6 2.6 6.9 2.6 9.5 0l6.3-6.3c2.6-2.6 2.6-6.9 0-9.5l-1.8-1.8c-.7-.7-.8-1.7-.4-2.5l.9-2.1c.3-.9 1.2-1.5 2.1-1.5h2.5c3.7 0 6.7-3 6.7-6.7v-9c0-3.7-3-6.7-6.7-6.7zm2.2 15.7c0 1.2-1 2.2-2.2 2.2h-2.5c-2.8 0-5.3 1.7-6.3 4.3-.2.6-.5 1.2-.8 1.9-1.2 2.5-.6 5.5 1.3 7.5l1.8 1.8c.9.9.9 2.3 0 3.2l-6.3 6.3c-.9.9-2.3.9-3.2 0l-1.8-1.8c-2-2-5-2.5-7.5-1.3-.6.3-1.2.5-1.9.8-2.6 1-4.3 3.5-4.3 6.3v2.5c0 1.2-1 2.2-2.2 2.2h-9c-1.2 0-2.2-1-2.2-2.2v-2.5c0-2.8-1.7-5.3-4.3-6.3-.6-.2-1.2-.5-1.9-.8-2.5-1.2-5.5-.6-7.5 1.3l-1.8 1.8c-.9.9-2.3.9-3.2 0l-6.3-6.3c-.9-.9-.9-2.3 0-3.2l1.8-1.8c2-2 2.5-5 1.3-7.5-.3-.6-.5-1.2-.8-1.9-1-2.6-3.5-4.3-6.3-4.3h-2.5c-1.2 0-2.2-1-2.2-2.2v-9c0-1.2 1-2.2 2.2-2.2h2.5c2.8 0 5.3-1.7 6.3-4.3.2-.6.5-1.2.8-1.9 1.2-2.5.6-5.5-1.3-7.5l-1.8-1.8c-.9-.9-.9-2.3 0-3.2l6.3-6.3c.9-.9 2.3-.9 3.2 0l1.8 1.8c2 2 5 2.5 7.5 1.3.6-.3 1.2-.5 1.9-.8 2.6-1 4.3-3.5 4.3-6.3v-2.5c0-1.2 1-2.2 2.2-2.2h9c1.2 0 2.2 1 2.2 2.2v2.5c0 2.8 1.7 5.3 4.3 6.3.6.2 1.2.5 1.9.8 2.5 1.2 5.5.6 7.5-1.3l1.8-1.8c.9-.9 2.3-.9 3.2 0l6.3 6.3c.9.9.9 2.3 0 3.2l-1.8 1.8c-2 2-2.5 5-1.3 7.5.3.6.5 1.2.8 1.9 1 2.6 3.5 4.3 6.3 4.3h2.5c1.2 0 2.2 1 2.2 2.2v9z"/><path class="st0" d="M438.6 412.5c0-.5-.1-1.1-.1-1.6-.1-.6-.2-1.1-.3-1.7-.1-.4-.2-.7-.3-1.1-.1-.5-.3-.9-.4-1.4l-.3-.9c-.3-.7-.6-1.4-1-2.1 0-.1 0-.1-.1-.2-.6-1-1.3-2-2-2.9-.1-.1-.1-.2-.2-.2-.3-.4-.6-.7-1-1.1l-.5-.5c-.2-.2-.4-.4-.7-.6-.3-.2-.5-.5-.8-.7l-.4-.3c-3.5-2.6-7.7-4-12-4h-.7c-.5 0-1 0-1.4.1-.3 0-.5.1-.8.1-.7.1-1.5.2-2.2.4-10.8 2.8-17.3 13.8-14.5 24.6 1.8 7.1 7.4 12.7 14.5 14.5h.1c.8.2 1.6.3 2.4.4.5.1 1 .1 1.6.1.4 0 .7.1 1 .1.6 0 1.3 0 2-.1h.2c.5-.1 1.1-.1 1.7-.3.2 0 .4-.1.6-.1l1.2-.3.9-.3.9-.3c.3-.1.6-.3.9-.4.4-.2.8-.3 1.1-.5 2.1-1.1 4-2.5 5.8-4.2.5-.4.9-.9 1.2-1.5 1.8-2.8 2.9-5.9 3.4-9.2.1-.4.1-.9.2-1.3 0-.4.1-.8.1-1.2v-.4c-.1-.3-.1-.6-.1-.9zm-4.5 1.5v.6c0 .5-.1 1.1-.2 1.6-.8 4.7-3.7 8.7-7.9 11-.3.1-.6.3-.8.4l-.2.1c-1.3.6-2.7 1-4.1 1.2h-.3c-.3 0-.6.1-.8.1-.4 0-.7 0-1.1.1h-.5c-.5 0-1.1 0-1.6-.1h-.3l-1.8-.3c-8.4-2.2-13.5-10.7-11.3-19.1 1.4-5.6 5.8-9.9 11.3-11.3 1.3-.3 2.6-.5 3.9-.5.6 0 1.3 0 1.9.1.2 0 .3.1.5.1.5.1 1 .2 1.4.3.2 0 .3.1.5.1 1.2.3 2.3.8 3.4 1.4.2.1.3.2.5.3.4.2.7.4 1 .7.2.1.4.3.5.4.4.4.9.7 1.3 1.1l.5.5c.3.3.5.6.7.9.2.2.3.4.5.6.2.3.4.7.7 1l.3.6c.3.5.5 1.1.8 1.6.1.2.2.4.2.7.1.4.3.8.4 1.3.1.2.1.4.2.6l.3 1.8v.5c.1.5.1 1.1.1 1.6zM501.5 370.8h-7.1c-.9 0-1.8-.6-2.1-1.5-.7-2.1-1.5-4.1-2.5-6.1-.4-.8-.2-1.9.4-2.5l5-5c2.6-2.6 2.6-6.9 0-9.5l-9.5-9.5c-2.6-2.6-6.9-2.6-9.5 0l-5 5c-.7.7-1.7.8-2.5.4-2-1-4-1.8-6.1-2.5-.9-.3-1.5-1.1-1.5-2.1v-7.1c0-3.7-3-6.7-6.7-6.7h-13.5c-3.7 0-6.7 3-6.7 6.7v7.1c0 .9-.6 1.8-1.5 2.1-2.1.7-4.1 1.5-6.1 2.5-.8.4-1.9.2-2.5-.4l-5-5c-2.6-2.6-6.9-2.6-9.5 0l-9.5 9.5c-2.6 2.6-2.6 6.9 0 9.5l7.4 7.4c.9.9 2.3.8 3.2-.1.8-.9.8-2.2 0-3.1l-7.4-7.4c-.9-.9-.9-2.3 0-3.2l9.5-9.5c.9-.9 2.3-.9 3.2 0l5 5c2 2 5.1 2.6 7.7 1.3 1.8-.9 3.6-1.7 5.5-2.3 2.7-.9 4.5-3.5 4.5-6.4v-7.1c0-1.2 1-2.2 2.2-2.2h13.5c1.2 0 2.2 1 2.2 2.2v7.1c0 2.9 1.8 5.4 4.5 6.3 1.9.6 3.7 1.4 5.5 2.3 2.6 1.3 5.7.8 7.7-1.3l5-5c.9-.9 2.3-.9 3.2 0l9.5 9.5c.9.9.9 2.3 0 3.2l-5 5c-2 2-2.5 5.1-1.3 7.7.9 1.8 1.7 3.6 2.3 5.5.9 2.7 3.5 4.5 6.4 4.5h7.1c1.2 0 2.2 1 2.2 2.2V391c0 1.2-1 2.2-2.2 2.2h-7.1c-2.9 0-5.4 1.8-6.3 4.5-.6 1.9-1.4 3.7-2.3 5.5-1.3 2.6-.8 5.7 1.3 7.7l5 5c.9.9.9 2.3 0 3.2l-9.5 9.5c-.9.9-2.3.9-3.2 0l-7.4-7.4c-.9-.9-2.3-.9-3.2-.1-.9.9-.9 2.3-.1 3.2l.1.1 7.4 7.4c2.6 2.6 6.9 2.6 9.5 0l9.5-9.5c2.6-2.6 2.6-6.9 0-9.5l-5-5c-.7-.7-.8-1.7-.4-2.5 1-2 1.8-4 2.5-6.1.3-.9 1.1-1.5 2.1-1.5h7.1c3.7 0 6.7-3 6.7-6.7v-13.5c0-3.7-3-6.7-6.7-6.7z"/><path class="st0" d="M468.2 363.6c-11.4-11.4-29.9-11.4-41.3 0-.9.9-.8 2.3.1 3.2.9.8 2.2.8 3.1 0 9.6-9.7 25.2-9.8 34.9-.2s9.8 25.2.2 34.9l-.2.2c-.9.9-.9 2.3-.1 3.2.9.9 2.3.9 3.2.1l.1-.1c11.4-11.4 11.4-29.9 0-41.3z"/></g><g><path class="st0" d="M-1033.3 374.9c.7 0 1.3-.4 1.7-.9l11.6-18.5c.5-.8.4-1.7-.1-2.4s-1.4-.9-2.4-.5l-3.4 1.3-10.5-23.2c-.4-.8-1.1-1.2-1.8-1.2h-34.1c-.7 0-1.2.3-1.6.8l-19.3 23.1c-.4.4-.5 1.1-.4 1.6s.4 1.1.8 1.4l19.3 14.3c.9.7 2.2.5 2.9-.4l12.6-17.1 6 10.8-3.8 2c-.8.4-1.2 1.2-1.1 2s.7 1.6 1.6 1.7l21.5 5.3c.1-.1.3-.1.5-.1zm-39.5-8.8l-15.9-11.8 17.3-20.8h2.8l8.5 15.9-12.7 16.7zm23.8 1.1l.8-.4c.5-.3.9-.7 1.1-1.2.1-.5.1-1.1-.1-1.6l-8.7-15.5-8.1-15.1h24.4l10.8 23.9c.4.8 1.3 1.3 2.1 1.2l-7.6 12.2-14.7-3.5zM-1065.6 406.2l-21.3-.9 5.5-11 3.7 2.1c.8.4 1.7.4 2.4-.3.7-.5.9-1.4.5-2.2l-7.7-20.8c-.3-.8-1.1-1.3-2-1.3l-21.9.8c-.9 0-1.6.7-1.8 1.4-.3.8.1 1.7.8 2.2l3 2.1-13.3 21.8c-.4.7-.4 1.6 0 2.2l14.7 21.7 5.6 8.5c.4.5 1.1.9 1.7.9h29.9c1.2 0 2.1-.9 2.1-2.1v-23.1c.1-1-.8-1.9-1.9-2zm-34.3 15.2l-13.7-20.2 13.8-22.3c.5-.8.4-1.7-.3-2.4l14.3-.7 5.3 14.2-.8-.4c-.5-.3-1.1-.4-1.6-.1-.5.1-.9.5-1.2 1.1l-7.9 15.8-7.9 15zm32.1 8h-26.8l-2.6-4.1 8.4-16 21 .9v19.2zM-996 399.3l-13.1-27.1c-.3-.5-.7-.9-1.2-1.1-.5-.1-1.1-.1-1.6.3l-21 11.7c-.9.5-1.3 1.8-.8 2.8l10.2 18.5-12.3 1.1-.1-4.2c0-.9-.7-1.6-1.4-1.8-.8-.3-1.7 0-2.2.7l-13.7 17.5c-.5.7-.5 1.7-.1 2.4l12.2 18.1c.4.5 1.1.9 1.7.9.1 0 .4 0 .5-.1.8-.3 1.4-1.1 1.4-1.8l.1-3.7h25.5c.8 0 1.6-.5 1.8-1.2L-996 401c.3-.5.3-1.1 0-1.7zm-16.9 30.1h-26.1c-.9 0-1.7.7-2 1.4l-8-12 9.3-12v.9c0 .5.3 1.1.7 1.4s.9.5 1.6.5l17.6-1.6 17.1-1.2-10.2 22.6zm11.8-26.7l-18 1.3-10.1-18.4 17.3-9.7 12 24.3-1.2 2.5z"/></g></svg>