<svg id="Capa_1" xmlns="http://www.w3.org/2000/svg" viewBox="0 0 300 300"><style>.st0{fill:#80CEF3;}</style><path class="st0" d="M150.8 127c-29.3 0-53.2 23.9-53.2 53.2 0 29.3 23.9 53.2 53.2 53.2 29.3 0 53.2-23.9 53.2-53.2 0-29.3-23.9-53.2-53.2-53.2m0 93.2c-22.1 0-40-18-40-40 0-22.1 18-40 40-40 22.1 0 40 18 40 40 .1 22.1-17.9 40-40 40M122.5 122.7c14.1 0 25.6-11.5 25.6-25.6 0-14.1-11.5-25.6-25.6-25.6-14.1 0-25.6 11.5-25.6 25.6 0 14.2 11.5 25.6 25.6 25.6m0-38c6.9 0 12.5 5.6 12.5 12.5s-5.6 12.5-12.5 12.5-12.5-5.6-12.5-12.5 5.6-12.5 12.5-12.5M179.1 122.7c14.1 0 25.6-11.5 25.6-25.6 0-14.1-11.5-25.6-25.6-25.6-14.1 0-25.6 11.5-25.6 25.6 0 14.2 11.5 25.6 25.6 25.6m0-38c6.9 0 12.5 5.6 12.5 12.5s-5.6 12.5-12.5 12.5-12.5-5.6-12.5-12.5c.1-6.9 5.7-12.5 12.5-12.5M105.4 136.7c0-13.1-10.6-23.7-23.7-23.7S58 123.6 58 136.7s10.6 23.7 23.7 23.7 23.7-10.7 23.7-23.7m-23.7 10.5c-5.8 0-10.6-4.7-10.6-10.6 0-5.8 4.7-10.6 10.6-10.6 5.8 0 10.6 4.7 10.6 10.6 0 5.9-4.8 10.6-10.6 10.6M219.9 113c-13.1 0-23.7 10.6-23.7 23.7s10.6 23.7 23.7 23.7 23.7-10.6 23.7-23.7S233 113 219.9 113m0 34.2c-5.8 0-10.6-4.7-10.6-10.6 0-5.8 4.7-10.6 10.6-10.6 5.8 0 10.6 4.7 10.6 10.6 0 5.9-4.7 10.6-10.6 10.6"/><path class="st0" d="M169.3 171.8h-10.2v-10.2c0-1.2-1-2.2-2.2-2.2h-12.3c-1.2 0-2.2 1-2.2 2.2v10.2h-10.2c-1.2 0-2.2 1-2.2 2.2v12.3c0 1.2 1 2.2 2.2 2.2h10.2v10.2c0 1.2 1 2.2 2.2 2.2H157c1.2 0 2.2-1 2.2-2.2v-10.2h10.2c1.2 0 2.2-1 2.2-2.2V174c-.1-1.2-1.1-2.2-2.3-2.2"/></svg>