<svg id="Capa_1" xmlns="http://www.w3.org/2000/svg" viewBox="0 0 300 300"><style>.st0{fill:#80CEF3;}</style><path class="st0" d="M227 101.8c-1.4-1.9-2.8-3.8-4.3-5.7-16.6-19.9-41.6-32.6-69.5-32.6h-.1-.4c-27.7.2-52.4 12.8-68.9 32.6-1.5 1.8-3 3.7-4.3 5.7-10.4 14.7-16.6 32.7-16.6 52.1s6.2 37.4 16.6 52.1c1.4 1.9 2.8 3.8 4.3 5.7 16.5 19.8 41.3 32.5 68.9 32.6h.5c27.9 0 52.9-12.7 69.5-32.6 1.5-1.8 3-3.7 4.3-5.7 10.4-14.7 16.6-32.7 16.6-52.1 0-19.3-6.2-37.3-16.6-52.1zM126.8 75.3c-8.3 8-15.2 19.7-20 33.8-6.4-2.4-12.1-5.2-17.1-8.5 9.7-11.5 22.5-20.4 37.1-25.3zm-41.4 31c5.6 3.8 12.1 7 19.3 9.7-3.1 11.3-4.9 23.9-4.9 37.2H70.2c.2-17.4 5.8-33.6 15.2-46.9zm-14.9 54.3h29.4c.5 11.1 2.2 21.6 4.8 31.3-7.2 2.7-13.7 6-19.3 9.7-8.4-11.7-13.7-25.8-14.9-41zm19.2 46.7c4.9-3.2 10.7-6.1 17-8.5 4.8 14.1 11.7 25.8 20 33.8-14.5-4.9-27.3-13.8-37-25.3zm59.8 29.4c-15.2-2.1-28.4-17.7-35.8-40.2 10.7-3.2 22.9-5.2 35.8-5.5v45.7zm0-53.1c-13.6.3-26.5 2.4-37.9 5.9-2.3-8.9-3.8-18.6-4.3-28.9h42.2v23zm0-30.4h-42.3c.1-12.5 1.7-24.2 4.5-34.8 11.4 3.5 24.3 5.6 37.9 5.9l-.1 28.9zm0-36.3c-12.9-.3-25.1-2.3-35.8-5.5 7.4-22.5 20.6-38.1 35.8-40.2v45.7zm86.7 36.3h-29.9c-.1-13.2-1.8-25.7-4.9-37 7.3-2.7 14-6.1 19.7-9.9 9.3 13.3 14.9 29.5 15.1 46.9zm-19.5-52.6c-5 3.3-10.9 6.2-17.4 8.6-4.9-14.2-11.9-26.1-20.3-34.1 14.8 4.8 27.8 13.8 37.7 25.5zm-59.8-29.3c15.1 2.3 28 17.9 35.4 40.3-10.6 3.1-22.6 5.1-35.4 5.4V71.3zm0 53c13.4-.3 26.1-2.4 37.5-5.8 2.8 10.6 4.4 22.3 4.4 34.7h-41.9v-28.9zm0 36.3h41.8c-.4 10.2-1.9 19.9-4.3 28.8-11.3-3.4-24-5.5-37.5-5.8v-23zm0 76.1V191c12.8.3 24.8 2.2 35.4 5.4-7.4 22.3-20.3 37.9-35.4 40.3zm22.1-3.8c8.4-8 15.5-19.9 20.3-34.2 6.5 2.4 12.4 5.3 17.4 8.6-9.9 11.7-22.9 20.7-37.7 25.6zm42-31.2c-5.7-3.8-12.4-7.2-19.7-9.9 2.6-9.6 4.3-20.1 4.7-31.1h29.8c-1.1 15.1-6.5 29.2-14.8 41z"/></svg>