<svg id="Capa_1" xmlns="http://www.w3.org/2000/svg" viewBox="0 0 300 300"><style>.st0{fill:#80CEF3;}</style><path class="st0" d="M177.7 170.2h-3.3c-1.2 0-2.4-.8-2.8-1.9-.4-1-.8-1.9-1.2-2.8-.5-1.1-.3-2.5.6-3.4l2.4-2.4c3.5-3.5 3.5-9.2 0-12.8l-8.5-8.5c-3.5-3.5-9.2-3.5-12.8 0l-2.4 2.4c-.9.9-2.2 1.1-3.4.6-.9-.4-1.9-.8-2.8-1.2-1.2-.4-2-1.5-2-2.8v-3.3c0-5-4-9-9-9h-12.1c-5 0-9 4-9 9v3.3c0 1.2-.8 2.4-1.9 2.8-1 .4-1.9.8-2.8 1.2-1.1.5-2.5.3-3.4-.6l-2.4-2.4c-3.5-3.5-9.2-3.5-12.8 0l-8.5 8.5c-3.5 3.5-3.5 9.2 0 12.8l2.4 2.4c.9.9 1.1 2.2.6 3.4-.4.9-.8 1.9-1.2 2.8-.4 1.2-1.6 2-2.8 1.9h-3.3c-5 0-9 4-9 9v12.1c0 5 4 9 9 9h3.3c1.2 0 2.4.8 2.8 1.9.4 1 .8 1.9 1.2 2.8.5 1.1.3 2.5-.6 3.4l-2.4 2.4c-3.5 3.5-3.5 9.2 0 12.8l8.5 8.5c3.5 3.5 9.2 3.5 12.8 0l2.4-2.4c.9-.9 2.2-1.1 3.4-.6.9.4 1.9.8 2.8 1.2 1.2.4 2 1.5 2 2.8v3.3c0 5 4 9 9 9h12.1c5 0 9-4 9-9v-3.3c0-1.2.8-2.4 1.9-2.8 1-.4 1.9-.8 2.8-1.2 1.1-.5 2.5-.3 3.4.6l2.4 2.4c3.5 3.5 9.2 3.5 12.8 0l8.5-8.5c3.5-3.5 3.5-9.2 0-12.8l-2.4-2.4c-.9-.9-1.1-2.2-.6-3.4.4-.9.8-1.9 1.2-2.8.4-1.2 1.5-2 2.8-2h3.3c5 0 9-4 9-9v-12.1c0-4.8-4-8.9-9-8.9zm3 21.1c0 1.7-1.3 3-3 3h-3.3c-3.7 0-7.1 2.3-8.4 5.8-.3.8-.7 1.7-1 2.5-1.5 3.4-.8 7.4 1.8 10.1l2.4 2.4c1.2 1.2 1.2 3.1 0 4.3l-8.5 8.5c-1.2 1.2-3.1 1.2-4.3 0l-2.4-2.4c-2.7-2.6-6.7-3.4-10.1-1.8-.8.4-1.6.7-2.5 1-3.5 1.3-5.8 4.7-5.8 8.4v3.3c0 1.7-1.3 3-3 3h-12.1c-1.7 0-3-1.3-3-3v-3.3c0-3.7-2.3-7.1-5.8-8.4-.8-.3-1.7-.7-2.5-1-3.4-1.5-7.4-.8-10.1 1.8l-2.4 2.4c-1.2 1.2-3.1 1.2-4.3 0l-8.5-8.5c-1.2-1.2-1.2-3.1 0-4.3l2.4-2.4c2.6-2.7 3.4-6.7 1.8-10.1-.4-.8-.7-1.6-1-2.5-1.3-3.5-4.7-5.8-8.4-5.8h-3.3c-1.7 0-3-1.3-3-3v-12.1c0-1.7 1.3-3 3-3h3.3c3.7 0 7.1-2.3 8.4-5.8.3-.8.7-1.7 1-2.5 1.5-3.4.8-7.4-1.8-10.1l-2.4-2.4c-1.2-1.2-1.2-3.1 0-4.3l8.5-8.5c1.2-1.2 3.1-1.2 4.3 0l2.4 2.4c2.7 2.6 6.7 3.4 10.1 1.8.8-.4 1.6-.7 2.5-1 3.5-1.3 5.8-4.7 5.8-8.4v-3.3c0-1.7 1.3-3 3-3h12.1c1.7 0 3 1.3 3 3v3.3c0 3.7 2.3 7.1 5.8 8.4.8.3 1.7.7 2.5 1 3.4 1.6 7.4.8 10.1-1.8l2.4-2.4c1.2-1.2 3.1-1.2 4.3 0l8.5 8.5c1.2 1.2 1.2 3.1 0 4.3l-2.4 2.4c-2.6 2.7-3.4 6.7-1.8 10.1.4.8.7 1.6 1 2.5 1.3 3.5 4.7 5.8 8.4 5.8h3.3c1.7 0 3 1.3 3 3v12.1z"/><path class="st0" d="M153.5 184.1c0-.7-.1-1.4-.2-2.2-.1-.8-.2-1.5-.4-2.3-.1-.5-.2-1-.4-1.5l-.6-1.8c-.1-.4-.3-.8-.5-1.2-.4-1-.8-1.9-1.3-2.8 0-.1-.1-.1-.1-.2-.8-1.4-1.7-2.7-2.7-4l-.3-.3c-.4-.5-.8-1-1.3-1.4l-.7-.7c-.3-.3-.6-.6-.9-.8-.4-.3-.7-.6-1.1-.9l-.5-.4c-4.7-3.5-10.3-5.4-16.2-5.4-.3 0-.6 0-.9.1-.6 0-1.3.1-1.9.1-.3 0-.7.1-1 .1-1 .1-2 .3-2.9.5-14.5 3.8-23.2 18.6-19.5 33.1 2.5 9.6 9.9 17 19.5 19.5h.2c1 .3 2.1.5 3.2.6.7.1 1.4.1 2.1.1.5 0 .9.1 1.4.1.9 0 1.8-.1 2.7-.1h.3c.7-.1 1.5-.2 2.2-.3.3-.1.6-.1.9-.2.5-.1 1.1-.3 1.6-.4.4-.1.8-.3 1.2-.4.4-.1.8-.3 1.3-.5s.8-.3 1.2-.5c.5-.2 1-.5 1.5-.7 2.8-1.5 5.4-3.4 7.7-5.6.6-.6 1.2-1.2 1.6-2 2.4-3.8 3.9-8 4.5-12.4.1-.6.2-1.2.2-1.8 0-.5.1-1.1.1-1.6v-.5-1.3zm-6 2v.7c-.1.7-.1 1.5-.3 2.2-1.1 6.3-5 11.7-10.6 14.8-.4.2-.7.4-1.1.5l-.3.1c-1.8.8-3.6 1.4-5.5 1.7-.1 0-.3 0-.4.1-.4.1-.7.1-1.1.1-.5 0-1 .1-1.5.1h-.6c-.7 0-1.4-.1-2.1-.1h-.4c-.8-.1-1.7-.3-2.5-.5-11.3-2.9-18.1-14.4-15.2-25.7 1.9-7.5 7.7-13.3 15.2-15.2 1.7-.4 3.5-.7 5.3-.7.9 0 1.7.1 2.6.2.2 0 .5.1.7.1.7.1 1.3.2 1.9.4.2.1.4.1.6.2 1.6.5 3.1 1.1 4.6 1.9.2.1.5.3.7.4.5.3.9.6 1.4.9.2.2.5.4.7.5.6.5 1.2 1 1.7 1.5.2.2.4.5.6.7.3.4.7.8 1 1.2l.6.9c.3.4.6.9.9 1.3.2.3.3.5.5.8.4.7.7 1.5 1 2.2l.3.9c.2.6.4 1.1.5 1.7.1.3.2.6.2.9.2.8.3 1.6.4 2.5v.7c.2.6.2 1.3.2 2zM237.9 128h-9.5c-1.3 0-2.4-.8-2.8-2-.9-2.8-2.1-5.5-3.4-8.2-.6-1.1-.3-2.5.6-3.4l6.7-6.7c3.5-3.5 3.5-9.3 0-12.8l-12.8-12.8c-3.5-3.5-9.3-3.5-12.8 0l-6.7 6.7c-.9.9-2.3 1.1-3.4.6-2.6-1.3-5.4-2.5-8.2-3.4-1.2-.4-2-1.5-2-2.8v-9.5c0-5-4-9-9-9h-18.1c-5 0-9 4-9 9v9.5c0 1.3-.8 2.4-2 2.8-2.8.9-5.5 2.1-8.2 3.4-1.1.6-2.5.3-3.4-.6l-6.7-6.7c-3.5-3.5-9.2-3.5-12.8 0L101.6 95c-3.5 3.5-3.5 9.3 0 12.8l9.9 9.9c1.2 1.2 3.1 1.1 4.3-.1 1.1-1.2 1.1-3 0-4.2l-9.9-9.9c-1.2-1.2-1.2-3.1 0-4.3l12.8-12.8c1.2-1.2 3.1-1.2 4.3 0l6.7 6.7c2.7 2.7 6.9 3.4 10.4 1.7 2.4-1.2 4.9-2.2 7.4-3.1 3.7-1.2 6.1-4.7 6.1-8.5v-9.5c0-1.7 1.3-3 3-3h18.1c1.7 0 3 1.3 3 3v9.5c0 3.9 2.4 7.3 6.1 8.5 2.5.9 5 1.9 7.4 3.1 3.5 1.7 7.6 1 10.4-1.7l6.7-6.7c1.2-1.2 3.1-1.2 4.3 0l12.8 12.8c1.2 1.2 1.2 3.1 0 4.3l-6.7 6.7c-2.7 2.7-3.4 6.9-1.7 10.4 1.2 2.4 2.2 4.9 3.1 7.4 1.2 3.7 4.7 6.1 8.5 6.1h9.5c1.7 0 3 1.3 3 3v18.1c0 1.7-1.3 3-3 3h-9.5c-3.9 0-7.3 2.4-8.5 6.1-.8 2.5-1.9 5-3.1 7.4-1.7 3.5-1 7.6 1.7 10.4l6.7 6.7c1.2 1.2 1.2 3.1 0 4.3l-12.8 12.8c-1.2 1.2-3.1 1.2-4.3 0l-9.9-9.9c-1.2-1.2-3.1-1.2-4.3-.1-1.2 1.2-1.2 3.1-.1 4.3l.1.1 9.9 9.9c3.5 3.5 9.3 3.5 12.8 0l12.8-12.8c3.5-3.5 3.5-9.3 0-12.8l-6.7-6.7c-.9-.9-1.1-2.3-.6-3.4 1.3-2.6 2.5-5.4 3.4-8.2.4-1.2 1.5-2 2.8-2h9.5c5 0 9-4 9-9v-18.1c0-5.1-4.1-9.2-9.1-9.2z"/><path class="st0" d="M193.3 118.4c-15.3-15.3-40.1-15.3-55.4 0-1.2 1.2-1.1 3.1.1 4.3 1.2 1.1 3 1.1 4.2 0 12.9-13 33.9-13.2 46.9-.3 13 12.9 13.2 33.9.3 46.9l-.3.3c-1.2 1.2-1.2 3.1-.1 4.3s3.1 1.2 4.3.1l.1-.1c15.2-15.4 15.2-40.2-.1-55.5z"/></svg>