<svg id="Capa_1" xmlns="http://www.w3.org/2000/svg" viewBox="0 0 300 300"><style>.st0{fill:#80CEF3;}</style><path class="st0" d="M241.9 89.5l-38.3-31.8c-.6-.4-1.6-.8-2.3-.8H106c-.8 0-1.7.3-2.3.8L66 89.5c-1.8 1.2-2.7 2.8-2.7 4.8v143.8h181.2v-144c0-1.8-1.2-3.3-2.6-4.6zm-39.8 19.1c0 7.3-6.2 13.5-13.5 13.5s-13.5-6.2-13.5-13.5V97h27v11.6zm-34.7 0c0 7.3-6.2 13.5-13.5 13.5s-13.5-6.2-13.5-13.5V97h27v11.6zm-34.7 0c0 7.3-6.2 13.5-13.5 13.5s-13.5-6.2-13.5-13.5V97h27v11.6zm27.4-43.9l6.1 24.7h-24.6l5.8-24.7h12.7zm20.4 0l17.8 24.7h-24.1l-3.7-14.8-2.4-9.8h12.4v-.1zm-47.1 24.6h-24l17.8-24.7h11.9l-5.7 24.7zm96.4 0h-22L190 64.7h10.2l29.6 24.6zM107.6 64.7h10.2l-17.7 24.7H78l29.6-24.7zM71 97h27v11.6c0 7.3-6.2 13.5-13.5 13.5S71 115.9 71 108.6V97zm0 133.4V124.9c3.7 3.1 8.4 5 13.5 5 7.1 0 13.5-3.7 17.3-9.1 3.8 5.5 10.2 9.1 17.3 9.1 7.1 0 13.5-3.7 17.3-9.1 3.8 5.5 10.2 9.1 17.3 9.1 7.1 0 13.5-3.7 17.3-9.1 3.8 5.5 10.2 9.1 17.3 9.1s13.5-3.7 17.3-9.1c3.8 5.5 10.2 9.1 17.3 9.1 5.1 0 9.8-1.9 13.5-5v105.6L71 230.4zm165.8-121.8c0 7.3-6.2 13.5-13.5 13.5s-13.5-6.2-13.5-13.5V97h27v11.6z"/><path class="st0" d="M67.5 176.8H241v7.7H67.5z"/></svg>