<?xml version="1.0" encoding="utf-8"?>
<!-- Generator: Adobe Illustrator 25.2.0, SVG Export Plug-In . SVG Version: 6.00 Build 0)  -->
<svg version="1.1" id="Capa_1" xmlns="http://www.w3.org/2000/svg" xmlns:xlink="http://www.w3.org/1999/xlink" x="0px" y="0px"
	 viewBox="0 0 300 300" style="enable-background:new 0 0 300 300;" xml:space="preserve">
<style type="text/css">
	.st0{fill:#80CEF3;}
</style>
<g>
	<g>
		<path class="st0" d="M241.9,89.5l-38.3-31.8c-0.6-0.4-1.6-0.8-2.3-0.8H106c-0.8,0-1.7,0.3-2.3,0.8L66,89.5
			c-1.8,1.2-2.7,2.8-2.7,4.8v143.8h181.2v-144C244.5,92.3,243.3,90.8,241.9,89.5z M202.1,108.6c0,7.3-6.2,13.5-13.5,13.5
			c-7.3,0-13.5-6.2-13.5-13.5V97h27V108.6z M167.4,108.6c0,7.3-6.2,13.5-13.5,13.5c-7.3,0-13.5-6.2-13.5-13.5V97h27V108.6z
			 M132.7,108.6c0,7.3-6.2,13.5-13.5,13.5s-13.5-6.2-13.5-13.5V97h27V108.6z M160.1,64.7l6.1,24.7h-24.6l5.8-24.7H160.1z
			 M180.5,64.7l17.8,24.7h-24.1l-3.7-14.8l-2.4-9.8H180.5L180.5,64.7z M133.4,89.3h-24l17.8-24.7h11.9L133.4,89.3z M229.8,89.3h-22
			L190,64.7h10.2L229.8,89.3z M107.6,64.7h10.2l-17.7,24.7H78L107.6,64.7z M71,97h27v11.6c0,7.3-6.2,13.5-13.5,13.5
			c-7.3,0-13.5-6.2-13.5-13.5V97z M71,230.4V124.9c3.7,3.1,8.4,5,13.5,5c7.1,0,13.5-3.7,17.3-9.1c3.8,5.5,10.2,9.1,17.3,9.1
			c7.1,0,13.5-3.7,17.3-9.1c3.8,5.5,10.2,9.1,17.3,9.1c7.1,0,13.5-3.7,17.3-9.1c3.8,5.5,10.2,9.1,17.3,9.1s13.5-3.7,17.3-9.1
			c3.8,5.5,10.2,9.1,17.3,9.1c5.1,0,9.8-1.9,13.5-5v105.6L71,230.4L71,230.4z M236.8,108.6c0,7.3-6.2,13.5-13.5,13.5
			c-7.3,0-13.5-6.2-13.5-13.5V97h27V108.6z"/>
		<g>
			<rect x="67.5" y="176.8" class="st0" width="173.5" height="7.7"/>
		</g>
	</g>
</g>
</svg>
