<?xml version="1.0" encoding="utf-8"?>
<!-- Generator: Adobe Illustrator 25.2.0, SVG Export Plug-In . SVG Version: 6.00 Build 0)  -->
<svg version="1.1" id="Capa_1" xmlns="http://www.w3.org/2000/svg" xmlns:xlink="http://www.w3.org/1999/xlink" x="0px" y="0px"
	 viewBox="0 0 300 300" style="enable-background:new 0 0 300 300;" xml:space="preserve">
<style type="text/css">
	.st0{fill:#80CEF3;}
</style>
<g>
	<g>
		<g>
			<g id="surface1_8_">
				<path class="st0" d="M204.4,146.5v-37.3c0-1.1-0.5-2.1-1.2-2.8l-41.8-43.9c-0.8-0.8-1.9-1.3-3-1.3H92.1c-12.2,0-22,10-22,22.2
					v125.3c0,12.2,9.8,22,22,22h52.3c9.9,16.4,27.9,27.4,48.4,27.4c31.1,0,56.5-25.3,56.5-56.5C249.4,174.5,229.8,151.8,204.4,146.5
					z M162.5,75.6l28,29.5h-18.2c-5.4,0-9.9-4.5-9.9-9.9V75.6z M92.1,222.6c-7.7,0-13.8-6.2-13.8-13.8V83.4c0-7.7,6.1-14,13.8-14
					h62.2v25.8c0,10,8.1,18.1,18.1,18.1h23.8v32.1c-1.2,0-2.2-0.2-3.3-0.2c-14.3,0-27.5,5.5-37.4,14.1h-52.1c-2.3,0-4.1,1.8-4.1,4.1
					c0,2.3,1.8,4.1,4.1,4.1h44.5c-2.9,4.1-5.3,8.2-7.2,12.7h-37.3c-2.3,0-4.1,1.8-4.1,4.1c0,2.3,1.8,4.1,4.1,4.1h34.6
					c-1,4.1-1.6,8.7-1.6,13.2c0,7.4,1.4,14.7,4,20.9L92.1,222.6L92.1,222.6z M192.8,250c-26.6,0-48.2-21.6-48.2-48.2
					s21.6-48.2,48.2-48.2c26.6,0,48.2,21.6,48.2,48.2S219.4,250,192.8,250z"/>
				<path class="st0" d="M103.3,147h41.6c2.3,0,4.1-1.8,4.1-4.1c0-2.3-1.8-4.1-4.1-4.1h-41.6c-2.3,0-4.1,1.8-4.1,4.1
					C99.2,145.2,101,147,103.3,147z"/>
				<path class="st0" d="M103.3,125.6h41.6c2.3,0,4.1-1.8,4.1-4.1c0-2.3-1.8-4.1-4.1-4.1h-41.6c-2.3,0-4.1,1.8-4.1,4.1
					C99.2,123.8,101,125.6,103.3,125.6z"/>
				<path class="st0" d="M103.3,102h41.6c2.3,0,4.1-1.8,4.1-4.1c0-2.3-1.8-4.1-4.1-4.1h-41.6c-2.3,0-4.1,1.8-4.1,4.1
					C99.2,100.1,101,102,103.3,102z"/>
			</g>
		</g>
		<path class="st0" d="M220.6,169.1c-0.5-0.8-1.3-1.4-2.3-1.6c-1.7-0.4-3.3,0.3-4.3,2.1L180.5,230l-4.7-22c-0.4-1.6-1.2-2.5-2.5-2.9
			c-0.6-0.2-1.3-0.2-2,0l-8.3,1.9c-1.7,0.3-2.6,1.2-3,2.6c-0.2,0.9-0.1,1.8,0.4,2.6c0.4,0.7,1.1,1.2,1.9,1.4c0.7,0.2,1.5,0.1,1.8,0
			l5.1-1l0.1,0.1l0,0l5.2,23.8c0.5,2.3,1.3,4.5,3.8,5.1c0.4,0.1,0.8,0.2,1.2,0.2c1.8,0,3.3-1,4.4-3.1l36.5-65.7
			c0.2-0.5,0.4-0.8,0.5-1.2C221.2,170.9,221.1,169.9,220.6,169.1z"/>
	</g>
</g>
</svg>
