<?xml version="1.0" encoding="utf-8"?>
<!-- Generator: Adobe Illustrator 25.2.0, SVG Export Plug-In . SVG Version: 6.00 Build 0)  -->
<svg version="1.1" id="Capa_1" xmlns="http://www.w3.org/2000/svg" xmlns:xlink="http://www.w3.org/1999/xlink" x="0px" y="0px"
	 viewBox="0 0 300 300" style="enable-background:new 0 0 300 300;" xml:space="preserve">
<style type="text/css">
	.st0{fill:#80CEF3;}
</style>
<g>
	<g>
		<path class="st0" d="M186.9,141.7c1.1,0,2.1-0.6,2.7-1.5l18.5-29.7c0.8-1.3,0.6-2.7-0.2-3.8c-0.8-1.1-2.3-1.5-3.8-0.8l-5.5,2.1
			l-16.8-37.3c-0.6-1.3-1.7-1.9-2.9-1.9h-54.7c-1.1,0-1.9,0.4-2.5,1.3l-31,37.1c-0.6,0.6-0.8,1.7-0.6,2.5c0.2,0.8,0.6,1.7,1.3,2.3
			l31,22.9c1.5,1.1,3.6,0.8,4.6-0.6l20.2-27.4l9.7,17.3l-6.1,3.2c-1.3,0.6-1.9,1.9-1.7,3.2c0.2,1.3,1.1,2.5,2.5,2.7l34.5,8.4
			C186.2,141.7,186.5,141.7,186.9,141.7z M123.5,127.6L98,108.6l27.8-33.3h4.4l13.7,25.5L123.5,127.6z M161.6,129.3l1.3-0.6
			c0.8-0.4,1.5-1.1,1.7-1.9c0.2-0.8,0.2-1.7-0.2-2.5l-13.9-24.8l-13.1-24.2h39.2l17.3,38.3c0.6,1.3,2.1,2.1,3.4,1.9L185,135
			L161.6,129.3z"/>
		<path class="st0" d="M135.1,191.8l-34.1-1.5l8.8-17.7l5.9,3.4c1.3,0.6,2.7,0.6,3.8-0.4c1.1-0.8,1.5-2.3,0.8-3.6l-12.4-33.3
			c-0.4-1.3-1.7-2.1-3.2-2.1l-35.2,1.3c-1.5,0-2.5,1.1-2.9,2.3c-0.4,1.3,0.2,2.7,1.3,3.6l4.8,3.4l-21.3,35c-0.6,1.1-0.6,2.5,0,3.6
			l23.6,34.7l9.1,13.7c0.6,0.8,1.7,1.5,2.7,1.5h48c1.9,0,3.4-1.5,3.4-3.4v-37.1C138.2,193.5,136.8,192,135.1,191.8z M80.1,216.2
			l-21.9-32.4L80.3,148c0.8-1.3,0.6-2.7-0.4-3.8l22.9-1.1l8.4,22.7l-1.3-0.6c-0.8-0.4-1.7-0.6-2.5-0.2c-0.8,0.2-1.5,0.8-1.9,1.7
			L93,192L80.1,216.2z M131.5,229.1h-43l-4.2-6.5l13.5-25.7l33.7,1.5V229.1z"/>
		<path class="st0" d="M246.7,180.9l-21.1-43.4c-0.4-0.8-1.1-1.5-1.9-1.7c-0.8-0.2-1.7-0.2-2.5,0.4L187.5,155
			c-1.5,0.8-2.1,2.9-1.3,4.4l16.4,29.7l-19.8,1.7l-0.2-6.7c0-1.5-1.1-2.5-2.3-2.9c-1.3-0.4-2.7,0-3.6,1.1l-21.9,28
			c-0.8,1.1-0.8,2.7-0.2,3.8l19.6,29.1c0.6,0.8,1.7,1.5,2.7,1.5c0.2,0,0.6,0,0.8-0.2c1.3-0.4,2.3-1.7,2.3-2.9l0.2-5.9h40.8
			c1.3,0,2.5-0.8,2.9-1.9l22.5-49.9C247.1,182.8,247.1,181.7,246.7,180.9z M219.5,229.1h-41.9c-1.5,0-2.7,1.1-3.2,2.3l-12.8-19.2
			l14.9-19.2v1.5c0,0.8,0.4,1.7,1.1,2.3c0.6,0.6,1.5,0.8,2.5,0.8l28.2-2.5l27.4-1.9L219.5,229.1z M238.5,186.3l-28.8,2.1L193.4,159
			l27.8-15.6l19.2,39L238.5,186.3z"/>
	</g>
</g>
</svg>
