<?xml version="1.0" encoding="utf-8"?>
<!-- Generator: Adobe Illustrator 25.2.0, SVG Export Plug-In . SVG Version: 6.00 Build 0)  -->
<svg version="1.1" id="Capa_1" xmlns="http://www.w3.org/2000/svg" xmlns:xlink="http://www.w3.org/1999/xlink" x="0px" y="0px"
	 viewBox="0 0 300 300" style="enable-background:new 0 0 300 300;" xml:space="preserve">
<style type="text/css">
	.st0{fill:#80CEF3;}
</style>
<path class="st0" d="M241.3,132.8C241.3,132.8,241.3,132.8,241.3,132.8c-1.4-0.6-3-0.3-4.1,0.8l-6.3,6.3V87.5c0-2.1-1.7-3.8-3.8-3.8
	H209l5.7-5.7c0,0,0,0,0,0l7.3-7.3c1.8-1.8,2.7-4.1,2.7-6.6c0-2.5-1-4.8-2.7-6.6l-8.4-8.4c-3.5-3.5-9.6-3.5-13.1,0l-34.5,34.5H83.5
	V58c0-2.1-1.7-3.8-3.8-3.8c-12.3,0-22.3,10-22.3,22.3v114.7c0,0.3,0,0.5,0.1,0.7c0.4,5.2,2.7,10.1,6.4,13.8c4,3.9,9.4,6.1,15,6.1h80
	l-13.7,13.7c-1.1,1.1-1.4,2.7-0.8,4.1c0.6,1.4,2,2.3,3.5,2.3h92c2.1,0,3.8-1.7,3.8-3.8v-92C243.6,134.8,242.7,133.4,241.3,132.8z
	 M205.7,54.5c0.7-0.7,1.8-0.7,2.5,0l8.4,8.4c0.3,0.3,0.5,0.8,0.5,1.3c0,0.5-0.2,0.9-0.5,1.3L212,70l-10.9-10.9L205.7,54.5z
	 M182.4,199c1.5-1.5,1.5-3.8,0-5.3c-0.2-0.2-0.3-0.3-0.5-0.4c-1.5-1-3.5-0.8-4.8,0.4l-10.6,10.6H79c-7.6,0-13.7-5.9-14-13.5
	c0-0.5,0-1,0.1-1.4c0-0.2,0.1-0.4,0.1-0.7l0.6-2.3l-1-0.3c0,0,0,0,0,0l0,0l1.1,0l0.2-0.6c0.1-0.2,0.2-0.4,0.3-0.6
	c2-4.1,5.8-7.1,10.3-8.1l2.2-0.3c0.2,0,0.5,0,0.7,0c2.1,0,3.8-1.7,3.8-3.8v-19.6c0-2.1-1.7-3.8-3.8-3.8s-3.8,1.7-3.8,3.8v16.1
	c-4.1,0.7-7.9,2.5-11,5.3v-98c0-6.8,4.6-12.6,11-14.3v80.1c0,2.1,1.7,3.8,3.8,3.8s3.8-1.7,3.8-3.8V91.2h74.8l-13.1,13.1
	c-1.5,1.5-1.5,3.9,0,5.3c1.5,1.5,3.9,1.5,5.3,0L187,73.2l10.9,10.9l-54.4,54.4l-10.9-10.9l10-10c1.5-1.5,1.5-3.9,0-5.3
	c-1.5-1.5-3.9-1.5-5.3,0L124.6,125c-0.1,0.1-0.2,0.2-0.4,0.5l0.8,0.7c0,0,0,0,0,0l-1-0.4c0,0-0.2,0.3-0.2,0.3c0,0-0.1,0.3-0.1,0.3
	l-8.7,24.8h-8.2c-2.1,0-3.8,1.7-3.8,3.8s1.7,3.8,3.8,3.8h74.8c2.1,0,3.8-1.7,3.8-3.8s-1.7-3.8-3.8-3.8h-47.5l10.8-3.8
	c0,0,0.3-0.2,0.4-0.2l-0.5-0.9l0.8,0.8l0.3-0.2c0.1-0.1,0.2-0.2,0.3-0.3l55.3-55.3h22v56.2l-38.3,38.3c-0.7,0.7-1.1,1.6-1.1,2.7
	s0.4,2,1.1,2.7c0.1,0.1,0.2,0.2,0.3,0.3c1.3,1.1,3.4,1.1,4.8,0c0.1-0.1,0.2-0.2,0.3-0.3l45.7-45.7v20.2h-3.9c-2.1,0-3.8,1.7-3.8,3.8
	c0,2.1,1.7,3.8,3.8,3.8h3.9v6h-3.9c-2.1,0-3.8,1.7-3.8,3.8c0,2.1,1.7,3.8,3.8,3.8h3.9v6h-3.9c-2.1,0-3.8,1.7-3.8,3.8
	c0,2.1,1.7,3.8,3.8,3.8h3.9v6h-3.9c-2.1,0-3.8,1.7-3.8,3.8c0,2.1,1.7,3.8,3.8,3.8h3.9v10.8H157L182.4,199z M145.1,146L145.1,146
	L145.1,146L145.1,146z M136.6,142.3l-5.5,2l-4.2-4.2l2-5.5L136.6,142.3z M203.2,78.8l-10.9-10.9l3.5-3.5l10.9,10.9L203.2,78.8z"/>
</svg>
