<?xml version="1.0" encoding="utf-8"?>
<!-- Generator: Adobe Illustrator 25.2.0, SVG Export Plug-In . SVG Version: 6.00 Build 0)  -->
<svg version="1.1" id="Capa_1" xmlns="http://www.w3.org/2000/svg" xmlns:xlink="http://www.w3.org/1999/xlink" x="0px" y="0px"
	 viewBox="0 0 300 300" style="enable-background:new 0 0 300 300;" xml:space="preserve">
<style type="text/css">
	.st0{fill:#80CEF3;}
</style>
<g>
	<g>
		<g>
			<g id="surface1_8_">
				<path class="st0" d="M491.7,146.5v-37.3c0-1.1-0.5-2.1-1.2-2.8l-41.8-43.9c-0.8-0.8-1.9-1.3-3-1.3h-66.3c-12.2,0-22,10-22,22.2
					v125.3c0,12.2,9.8,22,22,22h52.3c9.9,16.4,27.9,27.4,48.4,27.4c31.1,0,56.5-25.3,56.5-56.5C536.7,174.5,517.1,151.8,491.7,146.5
					z M449.8,75.6l28,29.5h-18.2c-5.4,0-9.9-4.5-9.9-9.9V75.6z M379.4,222.6c-7.7,0-13.8-6.2-13.8-13.8V83.4c0-7.7,6.1-14,13.8-14
					h62.2v25.8c0,10,8.1,18.1,18.1,18.1h23.8v32.1c-1.2,0-2.2-0.2-3.3-0.2c-14.3,0-27.5,5.5-37.4,14.1h-52.1c-2.3,0-4.1,1.8-4.1,4.1
					c0,2.3,1.8,4.1,4.1,4.1h44.5c-2.9,4.1-5.3,8.2-7.2,12.7h-37.3c-2.3,0-4.1,1.8-4.1,4.1c0,2.3,1.8,4.1,4.1,4.1h34.6
					c-1,4.1-1.6,8.7-1.6,13.2c0,7.4,1.4,14.7,4,20.9L379.4,222.6L379.4,222.6z M480.1,250c-26.6,0-48.2-21.6-48.2-48.2
					s21.6-48.2,48.2-48.2c26.6,0,48.2,21.6,48.2,48.2S506.7,250,480.1,250z"/>
				<path class="st0" d="M390.6,147h41.6c2.3,0,4.1-1.8,4.1-4.1c0-2.3-1.8-4.1-4.1-4.1h-41.6c-2.3,0-4.1,1.8-4.1,4.1
					C386.5,145.2,388.3,147,390.6,147z"/>
				<path class="st0" d="M390.6,125.6h41.6c2.3,0,4.1-1.8,4.1-4.1c0-2.3-1.8-4.1-4.1-4.1h-41.6c-2.3,0-4.1,1.8-4.1,4.1
					C386.5,123.8,388.3,125.6,390.6,125.6z"/>
				<path class="st0" d="M390.6,102h41.6c2.3,0,4.1-1.8,4.1-4.1c0-2.3-1.8-4.1-4.1-4.1h-41.6c-2.3,0-4.1,1.8-4.1,4.1
					C386.5,100.1,388.3,102,390.6,102z"/>
			</g>
		</g>
		<path class="st0" d="M507.9,169.1c-0.5-0.8-1.3-1.4-2.3-1.6c-1.7-0.4-3.3,0.3-4.3,2.1L467.8,230l-4.7-22c-0.4-1.6-1.2-2.5-2.5-2.9
			c-0.6-0.2-1.3-0.2-2,0l-8.3,1.9c-1.7,0.3-2.6,1.2-3,2.6c-0.2,0.9-0.1,1.8,0.4,2.6c0.4,0.7,1.1,1.2,1.9,1.4c0.7,0.2,1.5,0.1,1.8,0
			l5.1-1l0.1,0.1l0,0l5.2,23.8c0.5,2.3,1.3,4.5,3.8,5.1c0.4,0.1,0.8,0.2,1.2,0.2c1.8,0,3.3-1,4.4-3.1l36.5-65.7
			c0.2-0.5,0.4-0.8,0.5-1.2C508.5,170.9,508.4,169.9,507.9,169.1z"/>
	</g>
</g>
<g>
	<g>
		<path class="st0" d="M-318-287.3L-318-287.3c-3.3,3.3-5.1,7.7-5.1,12.3c0,4.6,1.8,9,5.1,12.3c3.3,3.3,7.6,5.1,12.3,5.1
			c4.6,0,9-1.8,12.3-5.1c3.3-3.3,5.1-7.6,5.1-12.3c0-4.6-1.8-9-5.1-12.3C-300.2-294-311.2-294-318-287.3z M-311.1-280.4
			c1.4-1.4,3.3-2.2,5.4-2.2c2,0,3.9,0.8,5.4,2.2c1.4,1.4,2.2,3.4,2.2,5.4v0c0,2-0.8,3.9-2.2,5.4c-1.5,1.5-3.4,2.2-5.4,2.2
			c-2,0-3.9-0.7-5.4-2.2c-1.4-1.4-2.2-3.4-2.2-5.4C-313.3-277-312.5-278.9-311.1-280.4z"/>
		<path class="st0" d="M-248.5-332.1c-13.7-13.7-32-22.1-51.3-23.5c-19.2-1.4-38.2,4.1-53.6,15.4c-3.6,2.6-5.8,6.7-6.1,11.1
			c-0.3,4.4,1.3,8.8,4.4,11.9l0.7,0.7c2.9,2.9,6.9,4.4,10.8,4.4c3.1,0,6.2-0.9,8.8-2.9c16.2-11.9,38.6-12.7,55.6-2
			c1.2,0.8,2,2,2.2,3.5c0.2,1.5-0.3,3-1.4,4c-1.6,1.6-4.1,1.9-6.1,0.6c-7.5-4.7-16.5-6.7-25.3-5.8c-9,1-17.4,5-23.8,11.4
			c-2,2-2,5.3,0,7.3c1,1,2.3,1.5,3.6,1.5c1.4,0,2.7-0.5,3.6-1.5c9.8-9.8,24.7-11.5,36.4-4.2c2.5,1.6,5.4,2.3,8.1,2.3
			c3.9,0,7.8-1.5,10.7-4.4c3.3-3.3,4.9-7.8,4.4-12.5c-0.5-4.6-3-8.6-6.9-11.1c-10.1-6.4-21.8-9.5-33.9-9.1
			c-12.1,0.4-23.6,4.4-33.3,11.5c-1.9,1.4-4.6,1.1-6.2-0.6l-0.7-0.7c-1-1-1.5-2.4-1.4-3.8c0.1-1.4,0.8-2.7,2-3.6
			c27.8-20.4,67.1-17.4,91.5,7c1,1,2.3,1.5,3.6,1.5s2.7-0.5,3.6-1.5C-246.5-326.9-246.5-330.1-248.5-332.1z"/>
	</g>
</g>
<path class="st0" d="M873.2-323.6C873.2-323.6,873.2-323.6,873.2-323.6c-0.7-0.3-1.5-0.1-2,0.4l-3.1,3.1v-26.2c0-1-0.8-1.9-1.9-1.9
	h-9.1l2.9-2.9c0,0,0,0,0,0l3.6-3.6c0.9-0.9,1.4-2,1.4-3.3c0-1.2-0.5-2.4-1.4-3.3l-4.2-4.2c-1.8-1.8-4.8-1.8-6.6,0l-17.2,17.2h-41.1
	v-12.8c0-1-0.8-1.9-1.9-1.9c-6.1,0-11.1,5-11.1,11.1v57.2c0,0.1,0,0.3,0,0.3c0.2,2.6,1.3,5,3.2,6.9c2,2,4.7,3,7.5,3h39.9l-6.9,6.9
	c-0.5,0.5-0.7,1.3-0.4,2c0.3,0.7,1,1.2,1.7,1.2h45.9c1,0,1.9-0.8,1.9-1.9v-45.9C874.4-322.6,873.9-323.3,873.2-323.6z M855.5-362.6
	c0.3-0.3,0.9-0.3,1.2,0l4.2,4.2c0.2,0.2,0.3,0.4,0.3,0.6c0,0.2-0.1,0.5-0.3,0.6l-2.3,2.3l-5.4-5.4L855.5-362.6z M843.9-290.5
	c0.7-0.7,0.7-1.9,0-2.7c-0.1-0.1-0.2-0.2-0.3-0.2c-0.7-0.5-1.7-0.4-2.4,0.2l-5.3,5.3h-43.6c-3.8,0-6.9-3-7-6.7c0-0.2,0-0.5,0.1-0.7
	c0-0.1,0-0.2,0.1-0.4l0.3-1.1l-0.5-0.2c0,0,0,0,0,0l0,0l0.6,0l0.1-0.3c0-0.1,0.1-0.2,0.1-0.3c1-2.1,2.9-3.6,5.2-4l1.1-0.1
	c0.1,0,0.2,0,0.4,0c1,0,1.9-0.8,1.9-1.9v-9.8c0-1-0.8-1.9-1.9-1.9c-1,0-1.9,0.8-1.9,1.9v8c-2.1,0.3-3.9,1.2-5.5,2.6v-48.9
	c0-3.4,2.3-6.3,5.5-7.1v39.9c0,1,0.8,1.9,1.9,1.9c1,0,1.9-0.8,1.9-1.9v-25.5h37.3l-6.5,6.5c-0.7,0.7-0.7,1.9,0,2.7
	c0.7,0.7,1.9,0.7,2.7,0l18.2-18.2l5.4,5.4l-27.1,27.1l-5.4-5.4l5-5c0.7-0.7,0.7-1.9,0-2.7c-0.7-0.7-1.9-0.7-2.7,0l-6.3,6.3
	c0,0-0.1,0.1-0.2,0.2l0.4,0.4c0,0,0,0,0,0l-0.5-0.2c0,0-0.1,0.1-0.1,0.2c0,0-0.1,0.1-0.1,0.2l-4.4,12.4h-4.1c-1,0-1.9,0.8-1.9,1.9
	c0,1,0.8,1.9,1.9,1.9h37.3c1,0,1.9-0.8,1.9-1.9c0-1-0.8-1.9-1.9-1.9h-23.7l5.4-1.9c0,0,0.2-0.1,0.2-0.1l-0.3-0.5l0.4,0.4l0.2-0.1
	c0.1,0,0.1-0.1,0.2-0.1l27.6-27.6h11v28l-19.1,19.1c-0.4,0.4-0.5,0.8-0.5,1.3c0,0.5,0.2,1,0.5,1.3c0,0,0.1,0.1,0.1,0.1
	c0.7,0.5,1.7,0.5,2.4,0c0,0,0.1-0.1,0.1-0.1l22.8-22.8v10.1h-2c-1,0-1.9,0.8-1.9,1.9c0,1,0.8,1.9,1.9,1.9h2v3h-2
	c-1,0-1.9,0.8-1.9,1.9c0,1,0.8,1.9,1.9,1.9h2v3h-2c-1,0-1.9,0.8-1.9,1.9c0,1,0.8,1.9,1.9,1.9h2v3h-2c-1,0-1.9,0.8-1.9,1.9
	s0.8,1.9,1.9,1.9h2v5.4h-39.5L843.9-290.5z M825.3-317L825.3-317L825.3-317L825.3-317z M821-318.8l-2.8,1l-2.1-2.1l1-2.8L821-318.8z
	 M854.3-350.5l-5.4-5.4l1.7-1.7l5.4,5.4L854.3-350.5z"/>
<path class="st0" d="M-1017.7,33.4c-0.7-1-1.5-2-2.3-3c-8.8-10.6-22.1-17.3-36.9-17.3c0,0,0,0-0.1,0c0,0,0,0,0,0c-0.1,0-0.1,0-0.2,0
	c-14.7,0.1-27.9,6.8-36.6,17.3c-0.8,1-1.6,2-2.3,3c-5.5,7.8-8.8,17.4-8.8,27.7c0,10.3,3.3,19.9,8.8,27.7c0.7,1,1.5,2,2.3,3
	c8.8,10.5,21.9,17.2,36.6,17.3c0.1,0,0.1,0,0.2,0c0,0,0,0,0,0c0,0,0,0,0.1,0c14.8,0,28.1-6.7,36.9-17.3c0.8-1,1.6-2,2.3-3
	c5.5-7.8,8.8-17.4,8.8-27.7C-1008.9,50.8-1012.1,41.2-1017.7,33.4z M-1070.9,19.3c-4.4,4.3-8.1,10.5-10.6,18
	c-3.4-1.3-6.4-2.8-9.1-4.5C-1085.5,26.6-1078.7,21.9-1070.9,19.3z M-1092.9,35.7c3,2,6.4,3.7,10.3,5.2c-1.6,6-2.6,12.7-2.6,19.7
	h-15.7C-1100.9,51.4-1097.9,42.8-1092.9,35.7z M-1100.8,64.6h15.6c0.3,5.9,1.2,11.5,2.5,16.6c-3.8,1.4-7.3,3.2-10.3,5.2
	C-1097.3,80.1-1100.2,72.7-1100.8,64.6z M-1090.6,89.4c2.6-1.7,5.7-3.2,9-4.5c2.5,7.5,6.2,13.7,10.6,18
	C-1078.7,100.2-1085.4,95.5-1090.6,89.4z M-1058.9,105c-8.1-1.1-15.1-9.4-19-21.3c5.7-1.7,12.2-2.7,19-2.9V105z M-1058.9,76.8
	c-7.2,0.2-14.1,1.3-20.1,3.2c-1.2-4.7-2-9.9-2.3-15.4h22.4V76.8z M-1058.9,60.7h-22.5c0-6.6,0.9-12.9,2.4-18.5
	c6.1,1.9,12.9,3,20.1,3.1L-1058.9,60.7L-1058.9,60.7z M-1058.9,41.4c-6.9-0.2-13.3-1.2-19-2.9c4-11.9,10.9-20.2,19-21.4V41.4z
	 M-1012.8,60.7h-15.9c0-7-1-13.7-2.6-19.7c3.9-1.5,7.4-3.2,10.5-5.3C-1015.9,42.8-1012.9,51.4-1012.8,60.7z M-1023.2,32.7
	c-2.7,1.8-5.8,3.3-9.3,4.6c-2.6-7.6-6.3-13.9-10.8-18.1C-1035.3,21.7-1028.4,26.5-1023.2,32.7z M-1054.9,17.1
	c8,1.2,14.9,9.5,18.8,21.4c-5.6,1.7-12,2.7-18.8,2.9V17.1z M-1054.9,45.3c7.1-0.2,13.9-1.3,19.9-3.1c1.5,5.6,2.3,11.8,2.4,18.4
	h-22.3V45.3z M-1054.9,64.6h22.2c-0.2,5.4-1,10.6-2.3,15.3c-6-1.8-12.8-2.9-19.9-3.1L-1054.9,64.6L-1054.9,64.6z M-1054.9,105V80.8
	c6.8,0.2,13.2,1.2,18.8,2.9C-1040,95.5-1046.9,103.7-1054.9,105z M-1043.2,103c4.5-4.3,8.2-10.6,10.8-18.1c3.5,1.3,6.6,2.8,9.3,4.6
	C-1028.4,95.6-1035.3,100.4-1043.2,103z M-1020.9,86.4c-3-2-6.6-3.8-10.5-5.3c1.4-5.1,2.3-10.7,2.5-16.5h15.8
	C-1013.6,72.7-1016.4,80.1-1020.9,86.4z"/>
<g>
	<g>
		<g>
			<g>
				<path class="st0" d="M891.1,55.5c-4.6-9-13.8-14.6-23.9-14.5c-2.8,0-5.7,0.5-8.4,1.4l-11-22h17.3c1.1,0,2.1,0.9,2.1,2.1
					c0,1.1-0.9,2.1-2.1,2.1h-8.3c-1.1,0-2.1,0.9-2.1,2.1c0,1.1,0.9,2.1,2.1,2.1h8.3c3.4,0,6.2-2.8,6.2-6.2s-2.8-6.2-6.2-6.2h-20.7
					c-1.1,0-2.1,0.9-2.1,2.1c0,0.3,0.1,0.6,0.2,0.9l2.6,5.3h-36.7l-2.1-4.1h11.1c1.1,0,2.1-0.9,2.1-2.1s-0.9-2.1-2.1-2.1H797
					c-1.1,0-2.1,0.9-2.1,2.1s0.9,2.1,2.1,2.1h4.9l3.1,6.2l-7.9,15.8c-14.1-4.6-29.3,3-33.9,17.1s3,29.3,17.1,33.9
					c14.1,4.6,29.3-3,33.9-17.1c0.7-2.1,1.1-4.2,1.3-6.3H828c0.2,0,0.3,0,0.5-0.1l0,0c0,0,0.1,0,0.1-0.1c0.1,0,0.2-0.1,0.2-0.1
					c0,0,0,0,0,0c0,0,0.1,0,0.1,0c0.1,0,0.1-0.1,0.2-0.1c0.1-0.1,0.2-0.1,0.3-0.2l0.1-0.1c0,0,0-0.1,0.1-0.1c0,0,0.1-0.1,0.1-0.2
					c0,0,0-0.1,0-0.1c0,0,0,0,0.1-0.1l18.8-37.6l6.4,12.8c-13.2,6.8-18.3,22.9-11.6,36.1c6.8,13.2,22.9,18.3,36.1,11.6
					C892.7,84.8,897.9,68.7,891.1,55.5z M788.7,90.5c-12.5,0-22.7-10.1-22.7-22.7c0-12.5,10.1-22.7,22.7-22.7c2.2,0,4.4,0.3,6.6,1
					l-10.4,20.8c-0.5,1-0.1,2.3,0.9,2.8c0.3,0.1,0.6,0.2,0.9,0.2h24.7C810.3,81.6,800.5,90.5,788.7,90.5z M790,65.7l9.1-18.1
					c6.9,3.5,11.6,10.4,12.3,18.1H790z M815.5,65.7c-0.7-9.3-6.2-17.6-14.6-21.8l6.4-12.8l17.3,34.6H815.5z M828,63.2l-17.3-34.6
					h34.6L828,63.2z M873.8,89.6c-2.1,0.6-4.3,1-6.6,1c-12.5,0-22.7-10.1-22.7-22.7c0-8.5,4.8-16.4,12.4-20.2l10.6,21.1
					c0.5,1,1.8,1.4,2.8,0.9s1.4-1.8,0.9-2.8l-10.4-20.8c12-3.6,24.7,3.2,28.3,15.2C892.6,73.3,885.8,86,873.8,89.6z"/>
				<path class="st0" d="M788.7,95.3c-2.8,0-5.7-0.4-8.6-1.4c-14.4-4.7-22.2-20.3-17.5-34.6c4.7-14.2,19.9-22,34.2-17.6l7.5-15.1
					l-2.8-5.6H797c-1.5,0-2.7-1.2-2.7-2.7c0-1.5,1.2-2.7,2.7-2.7h20.7c1.5,0,2.7,1.2,2.7,2.7c0,1.5-1.2,2.7-2.7,2.7h-10.2l1.5,3
					h35.4l-2.2-4.4c-0.2-0.4-0.3-0.8-0.3-1.2c0-1.5,1.2-2.6,2.7-2.6c0,0,0,0,0,0h20.6c3.7,0,6.8,3,6.8,6.8s-3,6.8-6.8,6.8h-8.3
					c-1.5,0-2.7-1.2-2.7-2.7s1.2-2.7,2.7-2.7h8.3c0.8,0,1.5-0.7,1.5-1.5s-0.7-1.5-1.5-1.5h-16.4l10.4,20.7c2.6-0.8,5.4-1.2,8.1-1.2
					c10.3,0,19.6,5.7,24.4,14.9l0,0c6.9,13.4,1.6,30-11.8,36.9c-6.5,3.3-13.9,4-20.9,1.7c-7-2.2-12.6-7-16-13.6
					c-6.8-13.3-1.7-29.5,11.3-36.6l-5.6-11.2L830.3,69c0,0-0.1,0.1-0.1,0.1c-0.1,0.1-0.1,0.2-0.2,0.3c0,0.1-0.1,0.1-0.1,0.2
					c0,0-0.1,0.1-0.1,0.1c-0.1,0.1-0.2,0.2-0.3,0.3c0,0-0.1,0.1-0.2,0.1c-0.1,0.1-0.2,0.1-0.3,0.2c-0.1,0-0.1,0.1-0.2,0.1
					c0,0-0.1,0-0.2,0.1c-0.3,0.1-0.5,0.1-0.7,0.1h-12c-0.2,2-0.6,4-1.2,5.9C811,87.9,800.2,95.3,788.7,95.3z M788.7,41.6
					c-11,0-21.3,7-25,18c-4.5,13.8,3,28.6,16.7,33.2c13.8,4.5,28.6-3,33.2-16.7c0.7-2,1.1-4.1,1.2-6.2c0-0.3,0.3-0.5,0.6-0.5H828
					c0.1,0,0.2,0,0.3,0c0.1,0,0.1,0,0.2-0.1c0,0,0.1,0,0.1,0c0,0,0,0,0,0c0.1-0.1,0.2-0.1,0.2-0.1c0.1-0.1,0.2-0.1,0.2-0.2
					c0,0,0.1-0.1,0.1-0.1l0.5,0.3l-0.4-0.4c0,0,0.1-0.2,0.1-0.2l18.8-37.5c0.2-0.4,0.9-0.4,1.1,0l6.4,12.8c0.1,0.3,0,0.6-0.3,0.8
					c-12.9,6.6-17.9,22.4-11.3,35.3c3.2,6.2,8.6,10.8,15.3,13c6.7,2.1,13.8,1.6,20-1.6c12.9-6.6,17.9-22.4,11.3-35.3l0,0
					c-4.5-8.8-13.4-14.2-23.3-14.2c-2.8,0-5.6,0.4-8.3,1.3c-0.3,0.1-0.6,0-0.7-0.3l-11-22c-0.1-0.2-0.1-0.4,0-0.6
					c0.1-0.2,0.3-0.3,0.5-0.3h17.3c1.5,0,2.7,1.2,2.7,2.7s-1.2,2.7-2.7,2.7h-8.3c-0.8,0-1.5,0.7-1.5,1.5s0.7,1.5,1.5,1.5h8.3
					c3.1,0,5.6-2.5,5.6-5.6s-2.5-5.6-5.6-5.6h-20.7c-0.4,0-0.8,0.1-1,0.4c-0.3,0.3-0.4,0.6-0.4,1c0,0.2,0.1,0.5,0.2,0.7l2.6,5.3
					c0.1,0.2,0.1,0.4,0,0.6c-0.1,0.2-0.3,0.3-0.5,0.3h-36.7c-0.2,0-0.4-0.1-0.5-0.3l-2.1-4.1c-0.1-0.2-0.1-0.4,0-0.6
					c0.1-0.2,0.3-0.3,0.5-0.3h11.1c0.8,0,1.5-0.7,1.5-1.5c0-0.8-0.7-1.5-1.5-1.5H797c-0.8,0-1.5,0.7-1.5,1.5c0,0.8,0.7,1.5,1.5,1.5
					h4.9c0.2,0,0.4,0.1,0.5,0.3l3.1,6.2c0.1,0.2,0.1,0.4,0,0.5l-7.9,15.8c-0.1,0.3-0.4,0.4-0.7,0.3C794.2,42,791.4,41.6,788.7,41.6z
					 M788.7,91.1c-12.8,0-23.3-10.4-23.3-23.3c0-12.9,10.4-23.3,23.3-23.3c2.3,0,4.5,0.3,6.7,1c0.2,0,0.3,0.2,0.4,0.3
					c0.1,0.2,0.1,0.3,0,0.5l-10.4,20.8c-0.2,0.4-0.2,0.8-0.1,1.1c0.1,0.4,0.4,0.7,0.7,0.9c0.2,0.1,0.4,0.2,0.7,0.2h24.7
					c0.2,0,0.3,0.1,0.4,0.2s0.2,0.3,0.2,0.5C810.8,82,800.8,91.1,788.7,91.1l0-0.6L788.7,91.1C788.7,91.1,788.7,91.1,788.7,91.1z
					 M788.7,45.7C788.7,45.7,788.7,45.7,788.7,45.7c-12.2,0-22.1,10-22.1,22.2c0,12.2,9.9,22.1,22.1,22.1c0,0,0,0,0,0
					c11.3,0,20.6-8.3,22-19.5h-24c-0.4,0-0.8-0.1-1.2-0.3c-0.6-0.3-1.1-0.9-1.3-1.5c-0.2-0.7-0.2-1.4,0.1-2l10.1-20.2
					C792.5,45.9,790.6,45.7,788.7,45.7z M867.2,91.1C867.2,91.1,867.2,91.1,867.2,91.1c-6.3,0-12.1-2.4-16.5-6.8
					c-4.4-4.4-6.8-10.2-6.8-16.5c0-8.8,4.9-16.8,12.7-20.8c0.1-0.1,0.3-0.1,0.5,0c0.1,0,0.3,0.2,0.3,0.3l10.6,21.1
					c0.4,0.7,1.3,1,2,0.7c0.4-0.2,0.6-0.5,0.7-0.9c0.1-0.4,0.1-0.8-0.1-1.1l-10.4-20.8c-0.1-0.2-0.1-0.3,0-0.5s0.2-0.3,0.4-0.3
					c12.3-3.7,25.3,3.3,29,15.6c1.8,6,1.2,12.3-1.8,17.7c-2.9,5.5-7.9,9.5-13.8,11.3l0,0C871.8,90.8,869.5,91.1,867.2,91.1z
					 M867.2,89.9C867.2,89.9,867.2,89.9,867.2,89.9c2.2,0,4.3-0.3,6.4-0.9l0,0c5.7-1.7,10.3-5.5,13.1-10.7
					c2.8-5.2,3.4-11.2,1.7-16.8C885,50,873,43.4,861.5,46.4l10.1,20.2c0.3,0.6,0.4,1.4,0.1,2c-0.2,0.7-0.7,1.2-1.3,1.5
					c-0.6,0.3-1.4,0.4-2,0.1c-0.7-0.2-1.2-0.7-1.5-1.3l-10.3-20.6c-7.1,3.9-11.5,11.3-11.5,19.4C845.1,80,855,89.9,867.2,89.9
					C867.2,89.9,867.2,89.9,867.2,89.9z M873.8,89.6L873.8,89.6L873.8,89.6z M824.6,66.3h-9.2c-0.3,0-0.6-0.2-0.6-0.5
					c-0.7-9-6.2-17.2-14.2-21.3c-0.3-0.1-0.4-0.5-0.3-0.8l6.4-12.8c0.2-0.4,0.9-0.4,1.1,0l17.3,34.6c0.1,0.2,0.1,0.4,0,0.6
					C825,66.2,824.8,66.3,824.6,66.3z M816,65.2h7.7l-16.4-32.7l-5.6,11.2C809.7,48,815.1,56.1,816,65.2z M811.3,66.3H790
					c-0.2,0-0.4-0.1-0.5-0.3s-0.1-0.4,0-0.6l9.1-18.1c0.1-0.1,0.2-0.2,0.3-0.3c0.1,0,0.3,0,0.5,0c7.1,3.7,11.8,10.6,12.6,18.6
					c0,0.2,0,0.3-0.2,0.5S811.5,66.3,811.3,66.3z M791,65.2h19.7c-0.9-7.1-5.1-13.3-11.4-16.7L791,65.2z M828,63.8
					c-0.2,0-0.4-0.1-0.5-0.3l-17.3-34.6c-0.1-0.2-0.1-0.4,0-0.6s0.3-0.3,0.5-0.3h34.6c0.2,0,0.4,0.1,0.5,0.3s0.1,0.4,0,0.6
					l-17.3,34.6C828.4,63.7,828.2,63.8,828,63.8z M811.6,29.2L828,61.9l16.4-32.7H811.6z"/>
			</g>
		</g>
	</g>
</g>
<g>
	<g>
		<path class="st0" d="M-303.3,33.1c-17.9,0-32.5,14.6-32.5,32.5c0,17.9,14.6,32.5,32.5,32.5c17.9,0,32.5-14.6,32.5-32.5
			C-270.8,47.7-285.4,33.1-303.3,33.1 M-303.3,90.2c-13.5,0-24.5-11-24.5-24.5c0-13.5,11-24.5,24.5-24.5c13.5,0,24.5,11,24.5,24.5
			C-278.8,79.2-289.8,90.2-303.3,90.2"/>
		<path class="st0" d="M-320.7,30.5c8.6,0,15.7-7,15.7-15.7c0-8.6-7-15.7-15.7-15.7c-8.6,0-15.7,7-15.7,15.7
			C-336.3,23.5-329.3,30.5-320.7,30.5 M-320.7,7.2c4.2,0,7.6,3.4,7.6,7.6c0,4.2-3.4,7.6-7.6,7.6c-4.2,0-7.6-3.4-7.6-7.6
			S-324.9,7.2-320.7,7.2"/>
		<path class="st0" d="M-286,30.5c8.6,0,15.7-7,15.7-15.7c0-8.6-7-15.7-15.7-15.7c-8.6,0-15.7,7-15.7,15.7
			C-301.7,23.5-294.6,30.5-286,30.5 M-286,7.2c4.2,0,7.6,3.4,7.6,7.6c0,4.2-3.4,7.6-7.6,7.6c-4.2,0-7.6-3.4-7.6-7.6
			S-290.2,7.2-286,7.2"/>
		<path class="st0" d="M-331.1,39c0-8-6.5-14.5-14.5-14.5c-8,0-14.5,6.5-14.5,14.5c0,8,6.5,14.5,14.5,14.5
			C-337.6,53.5-331.1,47-331.1,39 M-345.6,45.5c-3.6,0-6.5-2.9-6.5-6.5c0-3.6,2.9-6.5,6.5-6.5c3.6,0,6.5,2.9,6.5,6.5
			C-339.2,42.6-342.1,45.5-345.6,45.5"/>
		<path class="st0" d="M-261,24.5c-8,0-14.5,6.5-14.5,14.5s6.5,14.5,14.5,14.5c8,0,14.5-6.5,14.5-14.5S-253,24.5-261,24.5
			 M-261,45.5c-3.6,0-6.5-2.9-6.5-6.5c0-3.6,2.9-6.5,6.5-6.5c3.6,0,6.5,2.9,6.5,6.5C-254.6,42.6-257.5,45.5-261,45.5"/>
		<path class="st0" d="M-292,60.5h-6.2v-6.2c0-0.7-0.6-1.3-1.3-1.3h-7.6c-0.7,0-1.3,0.6-1.3,1.3v6.2h-6.2c-0.7,0-1.3,0.6-1.3,1.3
			v7.6c0,0.7,0.6,1.3,1.3,1.3h6.2V77c0,0.7,0.6,1.3,1.3,1.3h7.6c0.7,0,1.3-0.6,1.3-1.3v-6.2h6.2c0.7,0,1.3-0.6,1.3-1.3v-7.6
			C-290.7,61.1-291.3,60.5-292,60.5"/>
	</g>
</g>
<g>
	<g>
		<path class="st0" d="M877.7,356.8l-21.6-18c-0.3-0.2-0.9-0.4-1.3-0.4h-53.9c-0.4,0-1,0.1-1.3,0.4l-21.4,18c-1,0.7-1.5,1.6-1.5,2.7
			v81.3h102.5v-81.4C879.2,358.4,878.6,357.6,877.7,356.8z M855.2,367.6c0,4.1-3.5,7.6-7.6,7.6s-7.6-3.5-7.6-7.6v-6.5h15.3V367.6z
			 M835.6,367.6c0,4.1-3.5,7.6-7.6,7.6s-7.6-3.5-7.6-7.6v-6.5h15.3V367.6z M816,367.6c0,4.1-3.5,7.6-7.6,7.6c-4.1,0-7.6-3.5-7.6-7.6
			v-6.5H816V367.6z M831.5,342.8l3.4,14H821l3.3-14H831.5z M843,342.8l10.1,14h-13.6l-2.1-8.4l-1.3-5.6H843L843,342.8z M816.4,356.7
			h-13.6l10.1-14h6.8L816.4,356.7z M870.9,356.7h-12.4l-10.1-14h5.8L870.9,356.7z M801.8,342.8h5.8l-10,14H785L801.8,342.8z
			 M781.1,361.1h15.3v6.5c0,4.1-3.5,7.6-7.6,7.6c-4.1,0-7.6-3.5-7.6-7.6V361.1z M781.1,436.5v-59.7c2.1,1.7,4.7,2.8,7.6,2.8
			c4,0,7.6-2.1,9.8-5.2c2.2,3.1,5.8,5.2,9.8,5.2s7.6-2.1,9.8-5.2c2.2,3.1,5.8,5.2,9.8,5.2s7.6-2.1,9.8-5.2c2.2,3.1,5.8,5.2,9.8,5.2
			s7.6-2.1,9.8-5.2c2.2,3.1,5.8,5.2,9.8,5.2c2.9,0,5.5-1.1,7.6-2.8v59.7L781.1,436.5L781.1,436.5z M874.8,367.6
			c0,4.1-3.5,7.6-7.6,7.6s-7.6-3.5-7.6-7.6V361h15.3V367.6z"/>
		<g>
			<rect x="779.1" y="406.2" class="st0" width="98.1" height="4.4"/>
		</g>
	</g>
</g>
<g>
	<g>
		<g>
			<path class="st0" d="M114.9,216.5h6.5v6.5h-6.5V216.5z"/>
			<path class="st0" d="M114.9,229.4h6.5v6.5h-6.5V229.4z"/>
			<path class="st0" d="M189.2,152c2.9,0,5.7-1.3,7.5-3.5l13.2-15.8h24.3c8.9,0,16.1-7.2,16.1-16.1V84.2c0-8.9-7.2-16.1-16.1-16.1
				h-16.1c0-10.7-8.7-19.4-19.4-19.4s-19.4,8.7-19.4,19.4h-16.1c-8.9,0-16.1,7.2-16.1,16.1V102c-6.1-5.1-14-8.1-22.6-8.1h-3.2
				c-10.7,0-20.9,4.9-27.6,13.2c-10.2,2.5-17.5,11.7-17.5,22.3c0,11.1,4.8,21.6,13.1,28.9c1.1,10,7.3,18.5,16,22.8v7l-22.5,5.3
				c-19,4.5-32.3,21.3-32.3,40.8v14.5h135.5v-14.5c0-6.3-1.4-12.3-3.9-17.8H194l13.2,15.8c1.9,2.2,4.6,3.5,7.5,3.5
				c5.4,0,9.8-4.4,9.8-9.8v-9.5h9.7c8.9,0,16.1-7.2,16.1-16.1v-25.8c0-8.9-7.2-16.1-16.1-16.1h-64.5c-8.9,0-16.1,7.2-16.1,16.1v18.9
				c0,0,0,0-0.1,0l-22.5-5.3v-7c8.7-4.3,14.9-12.8,16-22.8c7.5-6.6,12.1-15.8,12.9-25.7h19.5v9.5C179.4,147.6,183.8,152,189.2,152
				L189.2,152z M198.8,55.2c7.1,0,12.9,5.8,12.9,12.9S205.9,81,198.8,81s-12.9-5.8-12.9-12.9S191.6,55.2,198.8,55.2z M107.1,194.3
				l7,9.3l-7.5,10l-6.5-17.6L107.1,194.3z M118.1,209l8.9,11.9l-7.9,21.5h-2l-7.9-21.5L118.1,209z M56.8,234.2
				c0-16.5,11.2-30.7,27.4-34.5l9.6-2.2l16.5,44.8H82.6v-19.4h-6.5v19.4H56.8V234.2z M160.1,174.5c0-5.3,4.3-9.7,9.7-9.7h64.5
				c5.3,0,9.7,4.3,9.7,9.7v25.8c0,5.3-4.3,9.7-9.7,9.7h-16.1v16c0,1.9-1.5,3.4-3.4,3.4c-1,0-1.9-0.4-2.6-1.2L197,210h-18.9
				c-4.5-6.3-10.7-11.4-18.1-14.5L160.1,174.5z M179.4,234.2v8.1h-19.4v-19.4h-6.5v19.4H126l16.5-44.8l9.6,2.2
				C168.2,203.5,179.4,217.7,179.4,234.2L179.4,234.2z M136.2,196l-6.5,17.6l-7.5-10l7-9.3L136.2,196z M124.6,189.6l-6.5,8.6
				l-6.5-8.6v-6.1c2.1,0.5,4.2,0.7,6.5,0.7s4.4-0.3,6.5-0.7V189.6z M140.7,155.2c0,12.5-10.1,22.6-22.6,22.6s-22.6-10.1-22.6-22.6
				V140c0-2.3,1.9-4.2,4.2-4.2c0.8,0,1.6,0.2,2.3,0.7l8.6,5.7H131c5.3,0,9.7,4.3,9.7,9.7V155.2z M146.9,149.1
				c-1.4-7.5-7.9-13.3-15.8-13.3h-18.4l-7-4.7c-1.8-1.2-3.8-1.8-5.9-1.8c-5.9,0-10.7,4.8-10.7,10.7v8.7c-4.1-5.5-6.5-12.3-6.5-19.3
				c0-7.8,5.6-14.6,13.2-16.1l1.5-0.3l0.7-1c5.5-7.3,14.1-11.6,23.2-11.6h3.2c16,0,29,13,29,29C153.6,136.6,151.2,143.5,146.9,149.1
				z M159.9,126.2c-0.6-6.3-2.8-12.2-6.3-17.1V84.2c0-5.3,4.3-9.7,9.7-9.7h17.3c1.2,3.5,3.4,6.5,6.3,8.8
				c-11.9,4.8-20.3,16.4-20.3,29.9v6.5H231v-6.5c0-13.6-8.4-25.2-20.3-29.9c2.9-2.2,5.1-5.3,6.3-8.8h17.3c5.3,0,9.7,4.3,9.7,9.7
				v32.3c0,5.3-4.3,9.7-9.7,9.7h-27.3l-15.1,18.1c-0.6,0.8-1.6,1.2-2.6,1.2c-1.9,0-3.4-1.5-3.4-3.4v-16H159.9z M198.8,87.5
				c14.2,0,25.8,11.6,25.8,25.8H173C173,99,184.5,87.5,198.8,87.5z"/>
			<path class="st0" d="M166.5,171.3h71v6.5h-71V171.3z"/>
			<path class="st0" d="M166.5,184.2h71v6.5h-71V184.2z"/>
			<path class="st0" d="M179.4,197.1h45.2v6.5h-45.2V197.1z"/>
			<path class="st0" d="M231,197.1h6.5v6.5H231V197.1z"/>
		</g>
	</g>
</g>
<path class="st0" d="M-256.8,398.9c0-4-0.5-7.8-1.4-11.5c1.3-3.1,2-6.4,2-9.8c0-13.9-11.3-25.2-25.2-25.2c-3.2,0-6.4,0.6-9.3,1.8
	l0.1,0.1c-3.9-1.1-8.1-1.7-12.4-1.7c-4.6,0-9,0.7-13.1,1.9l0.1-0.4c-3-1.2-6.1-1.8-9.3-1.8c-13.9,0-25.2,11.3-25.2,25.2
	c0,3.5,0.7,6.9,2.1,10.1l0.5-0.2c-0.9,3.7-1.4,7.5-1.4,11.4c0,4.1,0.5,8,1.5,11.8l-0.6-0.3c-1.4,3.2-2.1,6.6-2.1,10.1
	c0,13.9,11.3,25.2,25.2,25.2c3.2,0,6.4-0.6,9.3-1.8l-0.3-0.7c4.2,1.3,8.7,1.9,13.3,1.9c4.3,0,8.5-0.6,12.5-1.7l-0.2,0.5
	c3,1.2,6.1,1.8,9.3,1.8c13.9,0,25.2-11.3,25.2-25.2c0-3.5-0.7-6.8-2.1-10C-257.3,406.9-256.8,402.9-256.8,398.9z M-261.3,393.1H-279
	c-2.2-9-9.4-16.1-18.4-18.3v-17.6C-278.7,359.7-263.9,374.4-261.3,393.1z M-303,419.5c-11.4,0-20.6-9.2-20.6-20.6
	s9.2-20.6,20.6-20.6c11.4,0,20.6,9.2,20.6,20.6S-291.6,419.5-303,419.5z M-308.8,374.9c-9,2.2-16.1,9.4-18.3,18.4h-17.6
	c2.5-18.7,17.3-33.5,35.9-36.1V374.9z M-327,404.7c2.2,9,9.4,16.1,18.4,18.3v17.6c-18.7-2.5-33.5-17.3-36.1-35.9H-327z
	 M-297.2,422.9c9-2.2,16.1-9.4,18.3-18.4h17.6c-2.5,18.7-17.3,33.5-35.9,36.1V422.9z M-281.4,356.5c11.6,0,21,9.4,21,21
	c0,1-0.1,2-0.2,3c-4.6-10.6-13-19.1-23.5-23.9C-283.2,356.6-282.3,356.5-281.4,356.5z M-346.3,377.6c0-11.6,9.4-21,21-21
	c1.1,0,2.2,0.1,3.2,0.2c-10.8,4.9-19.4,13.9-23.8,24.9C-346.2,380.4-346.3,379-346.3,377.6z M-325.3,441.6c-11.6,0-21-9.4-21-21
	c0-1.5,0.2-2.9,0.5-4.4c4.5,11.2,13.3,20.2,24.3,25.1C-322.8,441.5-324,441.6-325.3,441.6z M-260.3,420.6c0,11.6-9.4,21-21,21
	c-1.1,0-2.2-0.1-3.3-0.3c10.7-4.7,19.4-13.3,24-24C-260.4,418.4-260.3,419.5-260.3,420.6z"/>
<g>
	<g>
		<g>
			<path class="st0" d="M-673,436.4h-9.1v-38l27.6-27.6c0.3,0,0.5,0,0.8,0c4.8,0,9.7-2.1,13.4-5.8c4.1-4.1,6.3-9.7,5.7-15
				c-0.1-1.1-1-1.9-2-2c-0.5-0.1-1.1-0.1-1.6-0.1c-4.8,0-9.7,2.1-13.4,5.8c-3.8,3.8-5.9,8.7-5.8,13.6l-24.7,24.7v-1
				c0-1.3-1-2.3-2.3-2.3s-2.3,1-2.3,2.3v6.5c0,0,0,0,0,0v39h-9.1c-1.3,0-2.3,1-2.3,2.3s1,2.3,2.3,2.3h22.8c1.3,0,2.3-1,2.3-2.3
				S-671.7,436.4-673,436.4z M-648.4,356.9c2.6-2.6,6-4.2,9.3-4.4c-0.2,3.3-1.8,6.6-4.4,9.3c-2.6,2.6-6,4.2-9.3,4.4
				C-652.6,362.9-651,359.6-648.4,356.9z"/>
			<path class="st0" d="M-722.5,339.2c-4.5,0-8.8,1.9-11.4,5.1c-0.7,0.8-0.7,2,0,2.9c2.6,3.2,6.8,5.1,11.4,5.1
				c4.5,0,8.8-1.9,11.4-5.1c0.7-0.8,0.7-2,0-2.9C-713.8,341.1-718,339.2-722.5,339.2z M-722.5,347.7c-2.4,0-4.6-0.7-6.3-2
				c1.7-1.3,3.9-2,6.3-2s4.6,0.7,6.3,2C-717.9,347-720.2,347.7-722.5,347.7z"/>
			<path class="st0" d="M-702.9,335.9c0.4,0.3,0.9,0.5,1.4,0.5s1-0.2,1.4-0.5c3.4-2.8,5.4-7.3,5.4-12.1s-2-9.3-5.4-12.1
				c-0.8-0.7-2-0.7-2.9,0c-3.4,2.8-5.4,7.3-5.4,12.1S-706.2,333.2-702.9,335.9z M-701.4,316.8c1.5,1.9,2.3,4.4,2.3,7.1
				s-0.8,5.2-2.3,7.1c-1.5-1.9-2.3-4.4-2.3-7.1S-702.9,318.7-701.4,316.8z"/>
			<path class="st0" d="M-634.8,379c-2.6-3.2-6.8-5.1-11.4-5.1c-4.5,0-8.8,1.9-11.4,5.1c-0.7,0.8-0.7,2,0,2.9
				c2.6,3.2,6.8,5.1,11.4,5.1c4.5,0,8.8-1.9,11.4-5.1C-634.1,381-634.1,379.8-634.8,379z M-646.2,382.4c-2.4,0-4.6-0.7-6.3-2
				c1.7-1.3,3.9-2,6.3-2s4.6,0.7,6.3,2C-641.6,381.7-643.8,382.4-646.2,382.4z"/>
			<path class="st0" d="M-668.7,370.6c0.4,0.3,0.9,0.5,1.4,0.5s1-0.2,1.4-0.5c3.4-2.8,5.4-7.3,5.4-12.1s-2-9.3-5.4-12.1
				c-0.8-0.7-2-0.7-2.9,0c-3.4,2.8-5.4,7.3-5.4,12.1S-672.1,367.9-668.7,370.6z M-667.3,351.5c1.5,1.9,2.3,4.4,2.3,7.1
				s-0.8,5.2-2.3,7.1c-1.5-1.9-2.3-4.4-2.3-7.1S-668.7,353.4-667.3,351.5z"/>
			<path class="st0" d="M-694.1,368.8c-0.9-0.9-2.3-0.9-3.2,0c-0.9,0.9-0.9,2.3,0,3.2l11.4,11.4c0,0,0,0,0,0c0,0,0.1,0.1,0.1,0.1
				c0,0,0.1,0,0.1,0.1c0,0,0.1,0,0.1,0.1c0,0,0.1,0,0.1,0.1c0,0,0.1,0,0.1,0.1c0,0,0.1,0,0.1,0c0,0,0.1,0,0.1,0c0,0,0.1,0,0.1,0
				c0,0,0.1,0,0.1,0c0,0,0.1,0,0.1,0c0,0,0.1,0,0.1,0c0,0,0.1,0,0.1,0c0,0,0.1,0,0.1,0c0.1,0,0.1,0,0.2,0c0.1,0,0.1,0,0.2,0
				c0,0,0.1,0,0.1,0c0,0,0.1,0,0.1,0c0,0,0.1,0,0.1,0c0,0,0.1,0,0.1,0c0,0,0.1,0,0.1,0c0,0,0.1,0,0.1,0c0,0,0.1,0,0.1,0
				c0,0,0.1,0,0.1-0.1c0,0,0.1,0,0.1-0.1c0,0,0.1,0,0.1-0.1c0,0,0.1,0,0.1-0.1c0,0,0.1,0,0.1-0.1c0,0,0.1-0.1,0.1-0.1c0,0,0,0,0,0
				c0,0,0,0,0-0.1c0,0,0.1-0.1,0.1-0.1c0,0,0-0.1,0.1-0.1c0,0,0-0.1,0.1-0.1c0,0,0-0.1,0.1-0.1c0,0,0-0.1,0-0.1c0,0,0-0.1,0.1-0.1
				c0,0,0-0.1,0-0.1c0,0,0-0.1,0-0.1c0,0,0-0.1,0-0.1c0,0,0-0.1,0-0.1c0,0,0-0.1,0-0.1c0,0,0-0.1,0-0.1c0,0,0-0.1,0-0.1
				c0-0.1,0-0.2,0-0.2v-19.1c0,0,0,0,0,0v-23.9c0-1.3-1-2.3-2.3-2.3s-2.3,1-2.3,2.3v18.4l-24.7-24.7c0.1-4.8-2-9.8-5.8-13.6
				c-3.7-3.7-8.6-5.8-13.4-5.8c-0.5,0-1.1,0-1.6,0.1c-1.1,0.1-1.9,1-2,2c-0.5,5.2,1.6,10.8,5.7,15c3.7,3.7,8.6,5.8,13.4,5.8
				c0,0,0,0,0,0c0.3,0,0.5,0,0.8,0l27.6,27.6v12.6L-694.1,368.8z M-729.6,317.8c3.3,0.2,6.7,1.8,9.3,4.4c2.6,2.6,4.2,6,4.4,9.3
				c-3.3-0.2-6.7-1.8-9.3-4.4C-727.8,324.4-729.4,321.1-729.6,317.8z"/>
		</g>
	</g>
</g>
<g>
	<g>
		<path class="st0" d="M440.9-258.2c-1.4,0-2.6,1.2-2.6,2.6v15.3c0,1.4,1.2,2.6,2.6,2.6s2.6-1.2,2.6-2.6v-15.3
			C443.5-257,442.3-258.2,440.9-258.2z"/>
		<path class="st0" d="M440.9-286.6c-1.4,0-2.6,1.2-2.6,2.6v15.3c0,1.4,1.2,2.6,2.6,2.6s2.6-1.2,2.6-2.6V-284
			C443.5-285.5,442.3-286.6,440.9-286.6z"/>
		<path class="st0" d="M440.9-315.1c-1.4,0-2.6,1.2-2.6,2.6v15.3c0,1.4,1.2,2.6,2.6,2.6s2.6-1.2,2.6-2.6v-15.3
			C443.5-313.9,442.3-315.1,440.9-315.1z"/>
		<path class="st0" d="M440.9-343.5c-1.4,0-2.6,1.2-2.6,2.6v15.3c0,1.4,1.2,2.6,2.6,2.6s2.6-1.2,2.6-2.6v-15.3
			C443.5-342.4,442.3-343.5,440.9-343.5z"/>
		<path class="st0" d="M440.9-372c-1.4,0-2.6,1.2-2.6,2.6v15.3c0,1.4,1.2,2.6,2.6,2.6s2.6-1.2,2.6-2.6v-15.3
			C443.5-370.8,442.3-372,440.9-372z"/>
		<path class="st0" d="M425.8-371.8c-1.4-0.5-2.9,0.2-3.4,1.5l-48.6,129.1c-0.5,1.4,0.2,2.9,1.5,3.4c0.3,0.1,0.6,0.2,0.9,0.2
			c1.1,0,2.1-0.6,2.5-1.7l48.6-129.1C427.9-369.8,427.2-371.3,425.8-371.8z"/>
		<path class="st0" d="M375.1-294.8c0.4,0.2,0.8,0.3,1.2,0.3c1,0,1.9-0.5,2.4-1.5l23.7-48.1c0.1-0.1,0.1-0.2,0.2-0.3l11.8-23.9
			c0.6-1.3,0.1-2.9-1.2-3.5c-1.3-0.6-2.9-0.1-3.5,1.2l-10.3,20.8c-0.1,0.1-0.1,0.2-0.2,0.3L374-298.3
			C373.3-297,373.8-295.4,375.1-294.8z"/>
		<path class="st0" d="M507.9-241.1l-17.7-46.8c0-0.2-0.1-0.3-0.1-0.5l0-0.1c-0.1-0.2-0.1-0.3-0.2-0.5l-3.1-8.2
			c0-0.1-0.1-0.2-0.1-0.2c0-0.2-0.1-0.4-0.1-0.6l-27.2-72.2c-0.5-1.4-2-2-3.4-1.5c-1.4,0.5-2,2-1.5,3.4l27.2,72.2
			c0,0.1,0.1,0.2,0.1,0.2c0,0.2,0.1,0.4,0.1,0.6l21.2,56.1c0.4,1.1,1.4,1.7,2.5,1.7c0.3,0,0.6-0.1,0.9-0.2
			C507.7-238.3,508.4-239.8,507.9-241.1z"/>
		<path class="st0" d="M503.1-296c0.5,0.9,1.4,1.5,2.4,1.5c0.4,0,0.8-0.1,1.2-0.3c1.3-0.6,1.8-2.2,1.2-3.5l-35.7-72.2
			c-0.6-1.3-2.2-1.8-3.5-1.2c-1.3,0.6-1.8,2.2-1.2,3.5L503.1-296z"/>
	</g>
</g>
<g>
	<g>
		<g>
			<g>
				<path class="st0" d="M456.6,402.2h-2.5c-0.9,0-1.8-0.6-2.1-1.4c-0.3-0.7-0.6-1.4-0.9-2.1c-0.4-0.8-0.2-1.8,0.4-2.5l1.8-1.8
					c2.6-2.6,2.6-6.9,0-9.5l-6.3-6.3c-2.6-2.6-6.9-2.6-9.5,0l-1.8,1.8c-0.7,0.7-1.7,0.8-2.5,0.4c-0.7-0.3-1.4-0.6-2.1-0.9
					c-0.9-0.3-1.5-1.2-1.5-2.1v-2.5c0-3.7-3-6.7-6.7-6.7h-9c-3.7,0-6.7,3-6.7,6.7v2.5c0,0.9-0.6,1.8-1.4,2.1
					c-0.7,0.3-1.4,0.6-2.1,0.9c-0.8,0.4-1.8,0.2-2.5-0.4l-1.8-1.8c-2.6-2.6-6.9-2.6-9.5,0l-6.3,6.4c-2.6,2.6-2.6,6.9,0,9.5l1.8,1.8
					c0.7,0.7,0.8,1.7,0.4,2.5c-0.3,0.7-0.6,1.4-0.9,2.1c-0.3,0.9-1.2,1.5-2.1,1.4h-2.5c-3.7,0-6.7,3-6.7,6.7v9c0,3.7,3,6.7,6.7,6.7
					h2.5c0.9,0,1.8,0.6,2.1,1.4c0.3,0.7,0.6,1.4,0.9,2.1c0.4,0.8,0.2,1.8-0.4,2.5l-1.8,1.8c-2.6,2.6-2.6,6.9,0,9.5l6.3,6.3
					c2.6,2.6,6.9,2.6,9.5,0l1.8-1.8c0.7-0.7,1.7-0.8,2.5-0.4c0.7,0.3,1.4,0.6,2.1,0.9c0.9,0.3,1.5,1.1,1.5,2.1v2.5
					c0,3.7,3,6.7,6.7,6.7h9c3.7,0,6.7-3,6.7-6.7v-2.5c0-0.9,0.6-1.8,1.4-2.1c0.7-0.3,1.4-0.6,2.1-0.9c0.8-0.4,1.8-0.2,2.5,0.4
					l1.8,1.8c2.6,2.6,6.9,2.6,9.5,0l6.3-6.3c2.6-2.6,2.6-6.9,0-9.5l-1.8-1.8c-0.7-0.7-0.8-1.7-0.4-2.5c0.3-0.7,0.6-1.4,0.9-2.1
					c0.3-0.9,1.2-1.5,2.1-1.5h2.5c3.7,0,6.7-3,6.7-6.7v-9C463.3,405.2,460.3,402.2,456.6,402.2z M458.8,417.9c0,1.2-1,2.2-2.2,2.2
					h-2.5c-2.8,0-5.3,1.7-6.3,4.3c-0.2,0.6-0.5,1.2-0.8,1.9c-1.2,2.5-0.6,5.5,1.3,7.5l1.8,1.8c0.9,0.9,0.9,2.3,0,3.2c0,0,0,0,0,0
					l-6.3,6.3c-0.9,0.9-2.3,0.9-3.2,0l-1.8-1.8c-2-2-5-2.5-7.5-1.3c-0.6,0.3-1.2,0.5-1.9,0.8c-2.6,1-4.3,3.5-4.3,6.3v2.5
					c0,1.2-1,2.2-2.2,2.2h-9c-1.2,0-2.2-1-2.2-2.2v-2.5c0-2.8-1.7-5.3-4.3-6.3c-0.6-0.2-1.2-0.5-1.9-0.8c-2.5-1.2-5.5-0.6-7.5,1.3
					l-1.8,1.8c-0.9,0.9-2.3,0.9-3.2,0c0,0,0,0,0,0l-6.3-6.3c-0.9-0.9-0.9-2.3,0-3.2l1.8-1.8c2-2,2.5-5,1.3-7.5
					c-0.3-0.6-0.5-1.2-0.8-1.9c-1-2.6-3.5-4.3-6.3-4.3h-2.5c-1.2,0-2.2-1-2.2-2.2v-9c0-1.2,1-2.2,2.2-2.2h2.5c2.8,0,5.3-1.7,6.3-4.3
					c0.2-0.6,0.5-1.2,0.8-1.9c1.2-2.5,0.6-5.5-1.3-7.5l-1.8-1.8c-0.9-0.9-0.9-2.3,0-3.2c0,0,0,0,0,0l6.3-6.3c0.9-0.9,2.3-0.9,3.2,0
					l1.8,1.8c2,2,5,2.5,7.5,1.3c0.6-0.3,1.2-0.5,1.9-0.8c2.6-1,4.3-3.5,4.3-6.3v-2.5c0-1.2,1-2.2,2.2-2.2h9c1.2,0,2.2,1,2.2,2.2v2.5
					c0,2.8,1.7,5.3,4.3,6.3c0.6,0.2,1.2,0.5,1.9,0.8c2.5,1.2,5.5,0.6,7.5-1.3l1.8-1.8c0.9-0.9,2.3-0.9,3.2,0l6.3,6.3
					c0.9,0.9,0.9,2.3,0,3.2l-1.8,1.8c-2,2-2.5,5-1.3,7.5c0.3,0.6,0.5,1.2,0.8,1.9c1,2.6,3.5,4.3,6.3,4.3h2.5c1.2,0,2.2,1,2.2,2.2
					V417.9L458.8,417.9z"/>
			</g>
		</g>
		<g>
			<g>
				<path class="st0" d="M438.6,412.5c0-0.5-0.1-1.1-0.1-1.6c-0.1-0.6-0.2-1.1-0.3-1.7c-0.1-0.4-0.2-0.7-0.3-1.1
					c-0.1-0.5-0.3-0.9-0.4-1.4c-0.1-0.3-0.2-0.6-0.3-0.9c-0.3-0.7-0.6-1.4-1-2.1c0-0.1,0-0.1-0.1-0.2c-0.6-1-1.3-2-2-2.9
					c-0.1-0.1-0.1-0.2-0.2-0.2c-0.3-0.4-0.6-0.7-1-1.1c-0.2-0.2-0.4-0.4-0.5-0.5c-0.2-0.2-0.4-0.4-0.7-0.6c-0.3-0.2-0.5-0.5-0.8-0.7
					l-0.4-0.3c-3.5-2.6-7.7-4-12-4c-0.2,0-0.4,0-0.7,0c-0.5,0-1,0-1.4,0.1c-0.3,0-0.5,0.1-0.8,0.1c-0.7,0.1-1.5,0.2-2.2,0.4
					c-10.8,2.8-17.3,13.8-14.5,24.6c1.8,7.1,7.4,12.7,14.5,14.5c0,0,0.1,0,0.1,0c0.8,0.2,1.6,0.3,2.4,0.4c0.5,0.1,1,0.1,1.6,0.1
					c0.4,0,0.7,0.1,1,0.1c0.6,0,1.3,0,2-0.1c0.1,0,0.1,0,0.2,0c0.5-0.1,1.1-0.1,1.7-0.3c0.2,0,0.4-0.1,0.6-0.1
					c0.4-0.1,0.8-0.2,1.2-0.3c0.3-0.1,0.6-0.2,0.9-0.3c0.3-0.1,0.6-0.2,0.9-0.3c0.3-0.1,0.6-0.3,0.9-0.4c0.4-0.2,0.8-0.3,1.1-0.5h0
					c2.1-1.1,4-2.5,5.8-4.2c0.5-0.4,0.9-0.9,1.2-1.5c1.8-2.8,2.9-5.9,3.4-9.2c0.1-0.4,0.1-0.9,0.2-1.3c0-0.4,0.1-0.8,0.1-1.2
					c0-0.1,0-0.2,0-0.4C438.6,413.1,438.6,412.8,438.6,412.5z M434.1,414c0,0.2,0,0.4,0,0.6c0,0.5-0.1,1.1-0.2,1.6
					c-0.8,4.7-3.7,8.7-7.9,11c-0.3,0.1-0.6,0.3-0.8,0.4l-0.2,0.1c-1.3,0.6-2.7,1-4.1,1.2c-0.1,0-0.2,0-0.3,0c-0.3,0-0.6,0.1-0.8,0.1
					c-0.4,0-0.7,0-1.1,0.1c-0.2,0-0.3,0-0.5,0c-0.5,0-1.1,0-1.6-0.1l-0.3,0c-0.6-0.1-1.2-0.2-1.8-0.3c-8.4-2.2-13.5-10.7-11.3-19.1
					c1.4-5.6,5.8-9.9,11.3-11.3v0c1.3-0.3,2.6-0.5,3.9-0.5c0.6,0,1.3,0,1.9,0.1c0.2,0,0.3,0.1,0.5,0.1c0.5,0.1,1,0.2,1.4,0.3
					c0.2,0,0.3,0.1,0.5,0.1c1.2,0.3,2.3,0.8,3.4,1.4c0.2,0.1,0.3,0.2,0.5,0.3c0.4,0.2,0.7,0.4,1,0.7c0.2,0.1,0.4,0.3,0.5,0.4
					c0.4,0.4,0.9,0.7,1.3,1.1c0.2,0.2,0.3,0.3,0.5,0.5c0.3,0.3,0.5,0.6,0.7,0.9c0.2,0.2,0.3,0.4,0.5,0.6c0.2,0.3,0.4,0.7,0.7,1
					c0.1,0.2,0.2,0.4,0.3,0.6c0.3,0.5,0.5,1.1,0.8,1.6c0.1,0.2,0.2,0.4,0.2,0.7c0.1,0.4,0.3,0.8,0.4,1.3c0.1,0.2,0.1,0.4,0.2,0.6
					c0.1,0.6,0.2,1.2,0.3,1.8c0,0.2,0,0.3,0,0.5C434.1,412.9,434.1,413.5,434.1,414z"/>
			</g>
		</g>
		<g>
			<g>
				<path class="st0" d="M501.5,370.8h-7.1c-0.9,0-1.8-0.6-2.1-1.5c-0.7-2.1-1.5-4.1-2.5-6.1c-0.4-0.8-0.2-1.9,0.4-2.5l5-5
					c2.6-2.6,2.6-6.9,0-9.5l-9.5-9.5c-2.6-2.6-6.9-2.6-9.5,0l-5,5c-0.7,0.7-1.7,0.8-2.5,0.4c-2-1-4-1.8-6.1-2.5
					c-0.9-0.3-1.5-1.1-1.5-2.1v-7.1c0-3.7-3-6.7-6.7-6.7h-13.5c-3.7,0-6.7,3-6.7,6.7v7.1c0,0.9-0.6,1.8-1.5,2.1
					c-2.1,0.7-4.1,1.5-6.1,2.5c-0.8,0.4-1.9,0.2-2.5-0.4l-5-5c-2.6-2.6-6.9-2.6-9.5,0l-9.5,9.5c-2.6,2.6-2.6,6.9,0,9.5l7.4,7.4
					c0.9,0.9,2.3,0.8,3.2-0.1c0.8-0.9,0.8-2.2,0-3.1l-7.4-7.4c-0.9-0.9-0.9-2.3,0-3.2l9.5-9.5c0.9-0.9,2.3-0.9,3.2,0l5,5
					c2,2,5.1,2.6,7.7,1.3c1.8-0.9,3.6-1.7,5.5-2.3c2.7-0.9,4.5-3.5,4.5-6.4v-7.1c0-1.2,1-2.2,2.2-2.2h13.5c1.2,0,2.2,1,2.2,2.2v7.1
					c0,2.9,1.8,5.4,4.5,6.3c1.9,0.6,3.7,1.4,5.5,2.3c2.6,1.3,5.7,0.8,7.7-1.3l5-5c0.9-0.9,2.3-0.9,3.2,0l9.5,9.5
					c0.9,0.9,0.9,2.3,0,3.2l-5,5c-2,2-2.5,5.1-1.3,7.7c0.9,1.8,1.7,3.6,2.3,5.5c0.9,2.7,3.5,4.5,6.4,4.5h7.1c1.2,0,2.2,1,2.2,2.2
					V391c0,1.2-1,2.2-2.2,2.2h-7.1c-2.9,0-5.4,1.8-6.3,4.5c-0.6,1.9-1.4,3.7-2.3,5.5c-1.3,2.6-0.8,5.7,1.3,7.7l5,5
					c0.9,0.9,0.9,2.3,0,3.2l-9.5,9.5c-0.9,0.9-2.3,0.9-3.2,0l-7.4-7.4c-0.9-0.9-2.3-0.9-3.2-0.1c-0.9,0.9-0.9,2.3-0.1,3.2
					c0,0,0,0,0.1,0.1l7.4,7.4c2.6,2.6,6.9,2.6,9.5,0l9.5-9.5c2.6-2.6,2.6-6.9,0-9.5l-5-5c-0.7-0.7-0.8-1.7-0.4-2.5
					c1-2,1.8-4,2.5-6.1c0.3-0.9,1.1-1.5,2.1-1.5h7.1c3.7,0,6.7-3,6.7-6.7v-13.5C508.2,373.8,505.2,370.8,501.5,370.8z"/>
			</g>
		</g>
		<g>
			<g>
				<path class="st0" d="M468.2,363.6c-11.4-11.4-29.9-11.4-41.3,0c-0.9,0.9-0.8,2.3,0.1,3.2c0.9,0.8,2.2,0.8,3.1,0
					c9.6-9.7,25.2-9.8,34.9-0.2s9.8,25.2,0.2,34.9c-0.1,0.1-0.2,0.2-0.2,0.2c-0.9,0.9-0.9,2.3-0.1,3.2c0.9,0.9,2.3,0.9,3.2,0.1
					c0,0,0,0,0.1-0.1C479.6,393.5,479.6,375,468.2,363.6z"/>
			</g>
		</g>
	</g>
</g>
<g>
	<g>
		<path class="st0" d="M-1033.3,374.9c0.7,0,1.3-0.4,1.7-0.9l11.6-18.5c0.5-0.8,0.4-1.7-0.1-2.4c-0.5-0.7-1.4-0.9-2.4-0.5l-3.4,1.3
			l-10.5-23.2c-0.4-0.8-1.1-1.2-1.8-1.2h-34.1c-0.7,0-1.2,0.3-1.6,0.8l-19.3,23.1c-0.4,0.4-0.5,1.1-0.4,1.6s0.4,1.1,0.8,1.4
			l19.3,14.3c0.9,0.7,2.2,0.5,2.9-0.4l12.6-17.1l6,10.8l-3.8,2c-0.8,0.4-1.2,1.2-1.1,2s0.7,1.6,1.6,1.7l21.5,5.3
			C-1033.7,374.9-1033.5,374.9-1033.3,374.9z M-1072.8,366.1l-15.9-11.8l17.3-20.8h2.8l8.5,15.9L-1072.8,366.1z M-1049,367.2
			l0.8-0.4c0.5-0.3,0.9-0.7,1.1-1.2c0.1-0.5,0.1-1.1-0.1-1.6l-8.7-15.5l-8.1-15.1h24.4l10.8,23.9c0.4,0.8,1.3,1.3,2.1,1.2l-7.6,12.2
			L-1049,367.2z"/>
		<path class="st0" d="M-1065.6,406.2l-21.3-0.9l5.5-11l3.7,2.1c0.8,0.4,1.7,0.4,2.4-0.3c0.7-0.5,0.9-1.4,0.5-2.2l-7.7-20.8
			c-0.3-0.8-1.1-1.3-2-1.3l-21.9,0.8c-0.9,0-1.6,0.7-1.8,1.4c-0.3,0.8,0.1,1.7,0.8,2.2l3,2.1l-13.3,21.8c-0.4,0.7-0.4,1.6,0,2.2
			l14.7,21.7l5.6,8.5c0.4,0.5,1.1,0.9,1.7,0.9h29.9c1.2,0,2.1-0.9,2.1-2.1v-23.1C-1063.6,407.2-1064.5,406.3-1065.6,406.2z
			 M-1099.9,421.4l-13.7-20.2l13.8-22.3c0.5-0.8,0.4-1.7-0.3-2.4l14.3-0.7l5.3,14.2l-0.8-0.4c-0.5-0.3-1.1-0.4-1.6-0.1
			c-0.5,0.1-0.9,0.5-1.2,1.1l-7.9,15.8L-1099.9,421.4z M-1067.8,429.4h-26.8l-2.6-4.1l8.4-16l21,0.9V429.4z"/>
		<path class="st0" d="M-996,399.3l-13.1-27.1c-0.3-0.5-0.7-0.9-1.2-1.1c-0.5-0.1-1.1-0.1-1.6,0.3l-21,11.7
			c-0.9,0.5-1.3,1.8-0.8,2.8l10.2,18.5l-12.3,1.1l-0.1-4.2c0-0.9-0.7-1.6-1.4-1.8c-0.8-0.3-1.7,0-2.2,0.7l-13.7,17.5
			c-0.5,0.7-0.5,1.7-0.1,2.4l12.2,18.1c0.4,0.5,1.1,0.9,1.7,0.9c0.1,0,0.4,0,0.5-0.1c0.8-0.3,1.4-1.1,1.4-1.8l0.1-3.7h25.5
			c0.8,0,1.6-0.5,1.8-1.2L-996,401C-995.7,400.5-995.7,399.9-996,399.3z M-1012.9,429.4h-26.1c-0.9,0-1.7,0.7-2,1.4l-8-12l9.3-12
			v0.9c0,0.5,0.3,1.1,0.7,1.4s0.9,0.5,1.6,0.5l17.6-1.6l17.1-1.2L-1012.9,429.4z M-1001.1,402.7l-18,1.3l-10.1-18.4l17.3-9.7
			l12,24.3L-1001.1,402.7z"/>
	</g>
</g>
</svg>
