<?xml version="1.0" encoding="utf-8"?>
<!-- Generator: Adobe Illustrator 25.2.0, SVG Export Plug-In . SVG Version: 6.00 Build 0)  -->
<svg version="1.1" id="Capa_1" xmlns="http://www.w3.org/2000/svg" xmlns:xlink="http://www.w3.org/1999/xlink" x="0px" y="0px"
	 viewBox="0 0 300 300" style="enable-background:new 0 0 300 300;" xml:space="preserve">
<style type="text/css">
	.st0{fill:#80CEF3;}
</style>
<g>
	<g>
		<g>
			<path class="st0" d="M166.2,245.4H152V186l43.2-43.2c0.4,0,0.8,0,1.2,0c7.5,0,15.1-3.3,20.9-9.1c6.4-6.4,9.8-15.2,9-23.4
				c-0.2-1.7-1.5-3-3.2-3.2c-0.8-0.1-1.7-0.1-2.5-0.1c-7.5,0-15.1,3.3-20.9,9.1c-5.9,5.9-9.2,13.7-9.1,21.2L152,175.9v-1.6
				c0-2-1.6-3.6-3.6-3.6s-3.6,1.6-3.6,3.6v10.2c0,0,0,0,0,0v60.9h-14.2c-2,0-3.6,1.6-3.6,3.6c0,2,1.6,3.6,3.6,3.6h35.6
				c2,0,3.6-1.6,3.6-3.6C169.8,247,168.2,245.4,166.2,245.4z M204.7,121.1c4.1-4.1,9.3-6.6,14.5-7c-0.4,5.2-2.8,10.4-7,14.5
				c-4.1,4.1-9.3,6.6-14.5,7C198.1,130.5,200.6,125.2,204.7,121.1z"/>
			<path class="st0" d="M88.7,93.4c-7.1,0-13.7,3-17.8,7.9c-1.1,1.3-1.1,3.2,0,4.5c4.1,5,10.7,7.9,17.8,7.9c7.1,0,13.7-3,17.8-7.9
				c1.1-1.3,1.1-3.2,0-4.5C102.4,96.3,95.8,93.4,88.7,93.4z M88.7,106.6c-3.7,0-7.2-1.1-9.9-3.1c2.7-2,6.2-3.1,9.9-3.1
				c3.7,0,7.2,1.1,9.9,3.1C95.9,105.5,92.4,106.6,88.7,106.6z"/>
			<path class="st0" d="M119.5,88.3c0.7,0.5,1.5,0.8,2.2,0.8s1.6-0.3,2.2-0.8c5.3-4.3,8.4-11.4,8.4-18.9s-3.2-14.6-8.4-18.9
				c-1.3-1.1-3.2-1.1-4.5,0c-5.3,4.3-8.4,11.4-8.4,18.9S114.2,84,119.5,88.3z M121.7,58.4c2.3,2.9,3.6,6.9,3.6,11
				c0,4.2-1.3,8.1-3.6,11c-2.3-2.9-3.6-6.9-3.6-11S119.5,61.3,121.7,58.4z"/>
			<path class="st0" d="M225.9,155.6c-4.1-5-10.7-7.9-17.8-7.9c-7.1,0-13.7,3-17.8,7.9c-1.1,1.3-1.1,3.2,0,4.5
				c4.1,5,10.7,7.9,17.8,7.9c7.1,0,13.7-3,17.8-7.9C227,158.7,227,156.9,225.9,155.6z M208.2,160.9c-3.7,0-7.2-1.1-9.9-3.1
				c2.7-2,6.2-3.1,9.9-3.1s7.2,1.1,9.9,3.1C215.4,159.8,211.9,160.9,208.2,160.9z"/>
			<path class="st0" d="M172.9,142.5c0.7,0.5,1.5,0.8,2.2,0.8c0.8,0,1.6-0.3,2.2-0.8c5.3-4.3,8.4-11.4,8.4-18.9
				c0-7.5-3.2-14.6-8.4-18.9c-1.3-1.1-3.2-1.1-4.5,0c-5.3,4.3-8.4,11.4-8.4,18.9S167.6,138.2,172.9,142.5z M175.1,112.6
				c2.3,2.9,3.6,6.9,3.6,11s-1.3,8.1-3.6,11c-2.3-2.9-3.6-6.9-3.6-11S172.9,115.6,175.1,112.6z"/>
			<path class="st0" d="M133.2,139.7c-1.4-1.4-3.6-1.4-5,0c-1.4,1.4-1.4,3.6,0,5l17.8,17.8c0,0,0,0,0,0c0.1,0.1,0.2,0.1,0.2,0.2
				c0,0,0.1,0.1,0.1,0.1c0,0,0.1,0.1,0.1,0.1c0.1,0,0.1,0.1,0.2,0.1c0,0,0.1,0.1,0.1,0.1c0.1,0,0.1,0.1,0.2,0.1c0.1,0,0.1,0,0.2,0.1
				c0.1,0,0.1,0,0.2,0.1c0.1,0,0.1,0,0.2,0.1c0.1,0,0.1,0,0.2,0c0.1,0,0.1,0,0.2,0c0.1,0,0.1,0,0.2,0c0.1,0,0.1,0,0.2,0
				c0.1,0,0.2,0,0.4,0c0.1,0,0.2,0,0.4,0c0.1,0,0.1,0,0.2,0c0.1,0,0.1,0,0.2,0c0.1,0,0.1,0,0.2,0c0.1,0,0.1,0,0.2,0
				c0.1,0,0.1,0,0.2-0.1c0.1,0,0.1,0,0.2-0.1c0.1,0,0.1,0,0.1-0.1c0.1,0,0.1-0.1,0.2-0.1c0,0,0.1-0.1,0.1-0.1c0.1,0,0.1-0.1,0.2-0.1
				c0,0,0.1-0.1,0.1-0.1c0,0,0.1-0.1,0.1-0.1c0.1-0.1,0.1-0.1,0.2-0.2c0,0,0.1,0,0.1-0.1c0,0,0-0.1,0.1-0.1c0.1-0.1,0.1-0.1,0.2-0.2
				c0,0,0.1-0.1,0.1-0.2c0,0,0.1-0.1,0.1-0.1c0-0.1,0.1-0.1,0.1-0.2c0,0,0.1-0.1,0.1-0.1c0-0.1,0.1-0.1,0.1-0.2c0,0,0-0.1,0.1-0.1
				c0-0.1,0-0.1,0.1-0.2c0-0.1,0-0.1,0.1-0.2c0-0.1,0-0.1,0-0.2c0-0.1,0-0.1,0-0.2c0-0.1,0-0.1,0-0.2c0,0,0-0.1,0-0.1
				c0-0.1,0-0.2,0-0.4v-29.8c0,0,0,0,0,0V92.9c0-2-1.6-3.6-3.6-3.6s-3.6,1.6-3.6,3.6v28.8L106.3,83c0.1-7.5-3.2-15.3-9.1-21.2
				c-5.8-5.8-13.4-9.1-20.9-9.1c-0.8,0-1.7,0-2.5,0.1c-1.7,0.2-3,1.5-3.2,3.2c-0.8,8.2,2.5,17,9,23.4c5.8,5.8,13.4,9.1,20.9,9.1
				c0,0,0,0,0,0c0.4,0,0.8,0,1.2,0l43.2,43.2v19.7L133.2,139.7z M77.7,59.9c5.2,0.4,10.4,2.9,14.5,7c4.1,4.1,6.6,9.4,7,14.5
				c-5.2-0.4-10.4-2.9-14.5-7C80.5,70.3,78,65,77.7,59.9z"/>
		</g>
	</g>
</g>
</svg>
