<?xml version="1.0" encoding="utf-8"?>
<!-- Generator: Adobe Illustrator 25.2.0, SVG Export Plug-In . SVG Version: 6.00 Build 0)  -->
<svg version="1.1" id="Capa_1" xmlns="http://www.w3.org/2000/svg" xmlns:xlink="http://www.w3.org/1999/xlink" x="0px" y="0px"
	 viewBox="0 0 300 300" style="enable-background:new 0 0 300 300;" xml:space="preserve">
<style type="text/css">
	.st0{fill:#80CEF3;}
</style>
<path class="st0" d="M231.3,151.1c0-7.4-0.9-14.5-2.7-21.3c2.5-5.8,3.7-11.9,3.7-18.2c0-25.7-20.9-46.7-46.7-46.7
	c-6,0-11.8,1.1-17.3,3.3l0.1,0.3c-7.3-2-15-3.1-22.9-3.1c-8.5,0-16.6,1.2-24.4,3.5l0.3-0.7c-5.5-2.2-11.3-3.3-17.3-3.3
	c-25.7,0-46.7,20.9-46.7,46.7c0,6.5,1.3,12.9,3.9,18.8l1-0.4c-1.7,6.8-2.7,13.9-2.7,21.2c0,7.6,1,14.9,2.8,21.9l-1.2-0.5
	c-2.6,5.9-3.9,12.3-3.9,18.8c0,25.7,20.9,46.7,46.7,46.7c6,0,11.8-1.1,17.3-3.3l-0.5-1.4c7.8,2.3,16.1,3.6,24.6,3.6
	c8,0,15.8-1.1,23.2-3.2l-0.4,0.9c5.5,2.2,11.3,3.3,17.3,3.3c25.7,0,46.7-20.9,46.7-46.7c0-6.4-1.3-12.6-3.8-18.5
	C230.4,165.9,231.3,158.6,231.3,151.1z M222.9,140.3h-32.8c-4.1-16.8-17.4-30-34.2-33.9V73.7C190.6,78.3,218.1,105.7,222.9,140.3z
	 M145.5,189.4c-21.1,0-38.2-17.2-38.2-38.2s17.2-38.2,38.2-38.2s38.2,17.2,38.2,38.2S166.6,189.4,145.5,189.4z M134.7,106.5
	c-16.8,4.1-30,17.4-33.9,34.2H68.1c4.6-34.6,32.1-62.2,66.6-67V106.5z M100.9,162c4.1,16.8,17.4,30,34.2,33.9v32.8
	c-34.6-4.6-62.2-32.1-67-66.6H100.9z M156.3,195.7c16.8-4.1,30-17.4,33.9-34.2H223c-4.6,34.6-32.1,62.2-66.6,67V195.7z M185.7,72.5
	c21.5,0,39,17.5,39,39c0,1.9-0.1,3.7-0.4,5.6c-8.5-19.6-24.2-35.5-43.7-44.3C182.3,72.6,184,72.5,185.7,72.5z M65.1,111.6
	c0-21.5,17.5-39,39-39c2,0,4,0.2,6,0.5c-20.1,9.1-36,25.7-44.3,46.3C65.4,116.7,65.1,114.2,65.1,111.6z M104.1,230.4
	c-21.5,0-39-17.5-39-39c0-2.8,0.3-5.5,0.8-8.1c8.4,20.8,24.7,37.5,45.2,46.5C108.8,230.1,106.5,230.4,104.1,230.4z M224.7,191.3
	c0,21.5-17.5,39-39,39c-2,0-4.1-0.2-6.1-0.5c19.9-8.7,35.9-24.7,44.6-44.6C224.5,187.3,224.7,189.3,224.7,191.3z"/>
</svg>
