<?xml version="1.0" encoding="utf-8"?>
<!-- Generator: Adobe Illustrator 25.2.0, SVG Export Plug-In . SVG Version: 6.00 Build 0)  -->
<svg version="1.1" id="Capa_1" xmlns="http://www.w3.org/2000/svg" xmlns:xlink="http://www.w3.org/1999/xlink" x="0px" y="0px"
	 viewBox="0 0 300 300" style="enable-background:new 0 0 300 300;" xml:space="preserve">
<style type="text/css">
	.st0{fill:#80CEF3;}
</style>
<g>
	<g>
		<path class="st0" d="M150.8,127c-29.3,0-53.2,23.9-53.2,53.2c0,29.3,23.9,53.2,53.2,53.2c29.3,0,53.2-23.9,53.2-53.2
			C204,150.9,180.1,127,150.8,127 M150.8,220.2c-22.1,0-40-18-40-40c0-22.1,18-40,40-40c22.1,0,40,18,40,40
			C190.9,202.3,172.9,220.2,150.8,220.2"/>
		<path class="st0" d="M122.5,122.7c14.1,0,25.6-11.5,25.6-25.6c0-14.1-11.5-25.6-25.6-25.6c-14.1,0-25.6,11.5-25.6,25.6
			C96.9,111.3,108.4,122.7,122.5,122.7 M122.5,84.7c6.9,0,12.5,5.6,12.5,12.5c0,6.9-5.6,12.5-12.5,12.5c-6.9,0-12.5-5.6-12.5-12.5
			C110,90.3,115.6,84.7,122.5,84.7"/>
		<path class="st0" d="M179.1,122.7c14.1,0,25.6-11.5,25.6-25.6c0-14.1-11.5-25.6-25.6-25.6c-14.1,0-25.6,11.5-25.6,25.6
			C153.5,111.3,165,122.7,179.1,122.7 M179.1,84.7c6.9,0,12.5,5.6,12.5,12.5c0,6.9-5.6,12.5-12.5,12.5c-6.9,0-12.5-5.6-12.5-12.5
			C166.7,90.3,172.3,84.7,179.1,84.7"/>
		<path class="st0" d="M105.4,136.7c0-13.1-10.6-23.7-23.7-23.7C68.6,113,58,123.6,58,136.7c0,13.1,10.6,23.7,23.7,23.7
			C94.8,160.4,105.4,149.7,105.4,136.7 M81.7,147.2c-5.8,0-10.6-4.7-10.6-10.6c0-5.8,4.7-10.6,10.6-10.6c5.8,0,10.6,4.7,10.6,10.6
			C92.3,142.5,87.5,147.2,81.7,147.2"/>
		<path class="st0" d="M219.9,113c-13.1,0-23.7,10.6-23.7,23.7s10.6,23.7,23.7,23.7c13.1,0,23.7-10.6,23.7-23.7S233,113,219.9,113
			 M219.9,147.2c-5.8,0-10.6-4.7-10.6-10.6c0-5.8,4.7-10.6,10.6-10.6c5.8,0,10.6,4.7,10.6,10.6C230.5,142.5,225.8,147.2,219.9,147.2
			"/>
		<path class="st0" d="M169.3,171.8h-10.2v-10.2c0-1.2-1-2.2-2.2-2.2h-12.3c-1.2,0-2.2,1-2.2,2.2v10.2h-10.2c-1.2,0-2.2,1-2.2,2.2
			v12.3c0,1.2,1,2.2,2.2,2.2h10.2v10.2c0,1.2,1,2.2,2.2,2.2H157c1.2,0,2.2-1,2.2-2.2v-10.2h10.2c1.2,0,2.2-1,2.2-2.2V174
			C171.5,172.8,170.5,171.8,169.3,171.8"/>
	</g>
</g>
</svg>
