<?xml version="1.0" encoding="utf-8"?>
<!-- Generator: Adobe Illustrator 25.2.0, SVG Export Plug-In . SVG Version: 6.00 Build 0)  -->
<svg version="1.1" id="Capa_1" xmlns="http://www.w3.org/2000/svg" xmlns:xlink="http://www.w3.org/1999/xlink" x="0px" y="0px"
	 viewBox="0 0 300 300" style="enable-background:new 0 0 300 300;" xml:space="preserve">
<style type="text/css">
	.st0{fill:#80CEF3;}
</style>
<g>
	<g>
		<path class="st0" d="M151.6,225.8c-2.3,0-4.1,1.8-4.1,4.1V254c0,2.3,1.8,4.1,4.1,4.1s4.1-1.8,4.1-4.1v-24.1
			C155.7,227.7,153.9,225.8,151.6,225.8z"/>
		<path class="st0" d="M151.6,181.1c-2.3,0-4.1,1.8-4.1,4.1v24.1c0,2.3,1.8,4.1,4.1,4.1s4.1-1.8,4.1-4.1v-24.1
			C155.7,183,153.9,181.1,151.6,181.1z"/>
		<path class="st0" d="M151.6,136.5c-2.3,0-4.1,1.8-4.1,4.1v24.1c0,2.3,1.8,4.1,4.1,4.1s4.1-1.8,4.1-4.1v-24.1
			C155.7,138.3,153.9,136.5,151.6,136.5z"/>
		<path class="st0" d="M151.6,91.8c-2.3,0-4.1,1.8-4.1,4.1V120c0,2.3,1.8,4.1,4.1,4.1s4.1-1.8,4.1-4.1V95.9
			C155.7,93.6,153.9,91.8,151.6,91.8z"/>
		<path class="st0" d="M151.6,47.1c-2.3,0-4.1,1.8-4.1,4.1v24.1c0,2.3,1.8,4.1,4.1,4.1s4.1-1.8,4.1-4.1V51.2
			C155.7,48.9,153.9,47.1,151.6,47.1z"/>
		<path class="st0" d="M128,47.4c-2.1-0.8-4.5,0.3-5.3,2.4L46.3,252.6c-0.8,2.1,0.3,4.5,2.4,5.3c0.5,0.2,1,0.3,1.5,0.3
			c1.7,0,3.2-1,3.9-2.7l76.3-202.8C131.2,50.5,130.1,48.2,128,47.4z"/>
		<path class="st0" d="M48.4,168.3c0.6,0.3,1.2,0.4,1.8,0.4c1.5,0,3-0.8,3.7-2.3L91.1,91c0.1-0.1,0.2-0.3,0.2-0.4L109.9,53
			c1-2,0.2-4.5-1.9-5.5c-2-1-4.5-0.2-5.5,1.9L86.4,82.1c-0.1,0.1-0.2,0.3-0.3,0.5l-39.6,80.3C45.5,164.9,46.3,167.3,48.4,168.3z"/>
		<path class="st0" d="M256.9,252.6l-27.7-73.5c0-0.3-0.1-0.5-0.2-0.8l-0.1-0.2c-0.1-0.3-0.2-0.5-0.4-0.7l-4.9-12.9
			c0-0.1-0.1-0.3-0.2-0.4c0-0.3-0.1-0.6-0.2-0.9L180.5,49.8c-0.8-2.1-3.2-3.2-5.3-2.4c-2.1,0.8-3.2,3.2-2.4,5.3l42.7,113.4
			c0,0.1,0.1,0.3,0.2,0.4c0,0.3,0.1,0.6,0.2,0.9l33.2,88.1c0.6,1.7,2.2,2.7,3.9,2.7c0.5,0,1-0.1,1.5-0.3
			C256.6,257.1,257.7,254.7,256.9,252.6z"/>
		<path class="st0" d="M249.3,166.5c0.7,1.5,2.2,2.3,3.7,2.3c0.6,0,1.2-0.1,1.8-0.4c2-1,2.9-3.5,1.9-5.5l-56-113.4
			c-1-2-3.5-2.9-5.5-1.9c-2,1-2.9,3.5-1.9,5.5L249.3,166.5z"/>
	</g>
</g>
</svg>
