<?xml version="1.0" encoding="utf-8"?>
<!-- Generator: Adobe Illustrator 25.2.0, SVG Export Plug-In . SVG Version: 6.00 Build 0)  -->
<svg version="1.1" id="Capa_1" xmlns="http://www.w3.org/2000/svg" xmlns:xlink="http://www.w3.org/1999/xlink" x="0px" y="0px"
	 viewBox="0 0 300 300" style="enable-background:new 0 0 300 300;" xml:space="preserve">
<style type="text/css">
	.st0{fill:#80CEF3;}
</style>
<path class="st0" d="M227,101.8c-1.4-1.9-2.8-3.8-4.3-5.7c-16.6-19.9-41.6-32.6-69.5-32.6c-0.1,0-0.1,0-0.1,0c0,0-0.1,0-0.1,0
	c-0.1,0-0.2,0-0.3,0c-27.7,0.2-52.4,12.8-68.9,32.6c-1.5,1.8-3,3.7-4.3,5.7c-10.4,14.7-16.6,32.7-16.6,52.1
	c0,19.4,6.2,37.4,16.6,52.1c1.4,1.9,2.8,3.8,4.3,5.7c16.5,19.8,41.3,32.5,68.9,32.6c0.1,0,0.2,0,0.3,0c0,0,0.1,0,0.1,0
	c0,0,0.1,0,0.1,0c27.9,0,52.9-12.7,69.5-32.6c1.5-1.8,3-3.7,4.3-5.7c10.4-14.7,16.6-32.7,16.6-52.1
	C243.6,134.6,237.4,116.6,227,101.8z M126.8,75.3c-8.3,8-15.2,19.7-20,33.8c-6.4-2.4-12.1-5.2-17.1-8.5
	C99.4,89.1,112.2,80.2,126.8,75.3z M85.4,106.3c5.6,3.8,12.1,7,19.3,9.7c-3.1,11.3-4.9,23.9-4.9,37.2H70.2
	C70.4,135.8,76,119.6,85.4,106.3z M70.5,160.6h29.4c0.5,11.1,2.2,21.6,4.8,31.3c-7.2,2.7-13.7,6-19.3,9.7
	C77,189.9,71.7,175.8,70.5,160.6z M89.7,207.3c4.9-3.2,10.7-6.1,17-8.5c4.8,14.1,11.7,25.8,20,33.8
	C112.2,227.7,99.4,218.8,89.7,207.3z M149.5,236.7c-15.2-2.1-28.4-17.7-35.8-40.2c10.7-3.2,22.9-5.2,35.8-5.5V236.7z M149.5,183.6
	c-13.6,0.3-26.5,2.4-37.9,5.9c-2.3-8.9-3.8-18.6-4.3-28.9h42.2V183.6z M149.5,153.2h-42.3c0.1-12.5,1.7-24.2,4.5-34.8
	c11.4,3.5,24.3,5.6,37.9,5.9L149.5,153.2L149.5,153.2z M149.5,116.9c-12.9-0.3-25.1-2.3-35.8-5.5c7.4-22.5,20.6-38.1,35.8-40.2
	V116.9z M236.2,153.2h-29.9c-0.1-13.2-1.8-25.7-4.9-37c7.3-2.7,14-6.1,19.7-9.9C230.4,119.6,236,135.8,236.2,153.2z M216.7,100.6
	c-5,3.3-10.9,6.2-17.4,8.6C194.4,95,187.4,83.1,179,75.1C193.8,79.9,206.8,88.9,216.7,100.6z M156.9,71.3
	c15.1,2.3,28,17.9,35.4,40.3c-10.6,3.1-22.6,5.1-35.4,5.4V71.3z M156.9,124.3c13.4-0.3,26.1-2.4,37.5-5.8
	c2.8,10.6,4.4,22.3,4.4,34.7h-41.9V124.3z M156.9,160.6h41.8c-0.4,10.2-1.9,19.9-4.3,28.8c-11.3-3.4-24-5.5-37.5-5.8L156.9,160.6
	L156.9,160.6z M156.9,236.7V191c12.8,0.3,24.8,2.2,35.4,5.4C184.9,218.7,172,234.3,156.9,236.7z M179,232.9
	c8.4-8,15.5-19.9,20.3-34.2c6.5,2.4,12.4,5.3,17.4,8.6C206.8,219,193.8,228,179,232.9z M221,201.7c-5.7-3.8-12.4-7.2-19.7-9.9
	c2.6-9.6,4.3-20.1,4.7-31.1h29.8C234.7,175.8,229.3,189.9,221,201.7z"/>
</svg>
