<?xml version="1.0" encoding="utf-8"?>
<!-- Generator: Adobe Illustrator 25.2.0, SVG Export Plug-In . SVG Version: 6.00 Build 0)  -->
<svg version="1.1" id="Capa_1" xmlns="http://www.w3.org/2000/svg" xmlns:xlink="http://www.w3.org/1999/xlink" x="0px" y="0px"
	 viewBox="0 0 300 300" style="enable-background:new 0 0 300 300;" xml:space="preserve">
<style type="text/css">
	.st0{fill:#80CEF3;}
</style>
<g>
	<g>
		<g>
			<g>
				<path class="st0" d="M254.8,160.9c-7.4-14.4-22.3-23.5-38.5-23.4c-4.6,0-9.1,0.7-13.5,2.2l-17.7-35.4h27.9
					c1.8,0,3.3,1.5,3.3,3.3s-1.5,3.3-3.3,3.3h-13.3c-1.8,0-3.3,1.5-3.3,3.3s1.5,3.3,3.3,3.3h13.3c5.5,0,10-4.5,10-10s-4.5-10-10-10
					h-33.3c-1.8,0-3.3,1.5-3.3,3.3c0,0.5,0.1,1,0.4,1.5l4.3,8.5h-59.1l-3.3-6.7h17.9c1.8,0,3.3-1.5,3.3-3.3s-1.5-3.3-3.3-3.3h-33.3
					c-1.8,0-3.3,1.5-3.3,3.3s1.5,3.3,3.3,3.3h7.9l5,10l-12.7,25.5c-22.7-7.5-47.1,4.9-54.6,27.5s4.9,47.1,27.5,54.6
					s47.1-4.9,54.6-27.5c1.1-3.3,1.8-6.7,2-10.2h20.1c0.3,0,0.5,0,0.8-0.1l0.1,0c0.1,0,0.1-0.1,0.2-0.1c0.1,0,0.3-0.1,0.4-0.1
					c0,0,0,0,0,0c0,0,0.1,0,0.1-0.1c0.1-0.1,0.2-0.1,0.3-0.2c0.1-0.1,0.3-0.2,0.4-0.3l0.1-0.1c0-0.1,0.1-0.1,0.1-0.2
					c0-0.1,0.2-0.2,0.2-0.3c0,0,0-0.1,0.1-0.1c0,0,0.1-0.1,0.1-0.1l30.3-60.6l10.3,20.6c-21.2,10.9-29.5,36.9-18.6,58.1
					c10.9,21.2,36.9,29.5,58.1,18.6C257.3,208.1,265.7,182.1,254.8,160.9z M89.9,217.3c-20.2,0-36.6-16.3-36.6-36.5
					s16.3-36.6,36.5-36.6c3.6,0,7.1,0.5,10.6,1.5l-16.8,33.6c-0.8,1.6-0.2,3.6,1.5,4.5c0.5,0.2,1,0.4,1.5,0.4h39.7
					C124.6,202.9,108.8,217.3,89.9,217.3z M91.9,177.4l14.6-29.2c11.1,5.7,18.6,16.7,19.8,29.2H91.9z M132.9,177.4
					c-1.2-15-10-28.3-23.4-35.1l10.3-20.6l27.9,55.8H132.9z M153.1,173.3l-27.9-55.8H181L153.1,173.3z M226.8,215.8
					c-3.4,1-7,1.6-10.6,1.5c-20.2,0-36.6-16.3-36.6-36.5c0-13.7,7.7-26.3,19.9-32.6l17,34c0.8,1.6,2.8,2.3,4.5,1.5
					c1.6-0.8,2.3-2.8,1.5-4.5l-16.8-33.6c19.4-5.8,39.8,5.2,45.6,24.5C257.2,189.6,246.2,210,226.8,215.8z"/>
				<path class="st0" d="M89.8,224.9c-4.6,0-9.2-0.7-13.8-2.2c-23.1-7.6-35.8-32.6-28.1-55.8c7.5-22.9,32.1-35.5,55-28.4l12.2-24.3
					l-4.5-9h-7.3c-2.4,0-4.3-1.9-4.3-4.3c0-2.4,1.9-4.3,4.3-4.3h33.3c2.4,0,4.3,1.9,4.3,4.3c0,2.4-1.9,4.3-4.3,4.3h-16.4l2.4,4.8h57
					l-3.6-7.1c-0.3-0.6-0.5-1.3-0.5-1.9c0-2.3,1.9-4.3,4.3-4.3c0,0,0,0,0,0h33.3c6,0,10.9,4.9,10.9,10.9s-4.9,10.9-10.9,10.9h-13.3
					c-2.4,0-4.3-1.9-4.3-4.3s1.9-4.3,4.3-4.3h13.3c1.3,0,2.4-1.1,2.4-2.4c0-1.3-1.1-2.4-2.4-2.4h-26.3l16.7,33.3
					c4.3-1.3,8.7-2,13.1-2c16.6,0,31.6,9.2,39.2,23.9l0,0c11.1,21.6,2.6,48.3-19.1,59.4c-10.5,5.4-22.4,6.4-33.6,2.8
					c-11.2-3.6-20.4-11.4-25.7-21.8c-11-21.3-2.8-47.6,18.2-59l-9-18.1l-29.4,58.9c0,0.1-0.1,0.2-0.2,0.2c-0.1,0.2-0.2,0.3-0.3,0.4
					c-0.1,0.1-0.1,0.2-0.2,0.3c0,0-0.2,0.2-0.2,0.2c-0.2,0.2-0.3,0.3-0.5,0.4c-0.1,0.1-0.2,0.1-0.3,0.2c-0.1,0.2-0.3,0.2-0.5,0.2
					c-0.1,0-0.2,0.1-0.3,0.1c0,0-0.2,0.1-0.2,0.1c-0.4,0.1-0.8,0.1-1.1,0.2h-19.3c-0.3,3.3-1,6.5-2,9.6
					C125.7,213.1,108.4,224.9,89.8,224.9z M89.9,138.5c-17.8,0-34.3,11.3-40.2,29.1c-7.3,22.1,4.8,46.1,26.9,53.4
					c22.1,7.3,46.1-4.8,53.4-26.9c1.1-3.2,1.7-6.6,2-10c0-0.5,0.4-0.9,0.9-0.9h20.1c0.2,0,0.4,0,0.6-0.1c0.1,0,0.2-0.1,0.3-0.1
					c0.1,0,0.1,0,0.2-0.1c0,0,0,0,0,0c0.2-0.1,0.2-0.2,0.3-0.2c0.2-0.1,0.3-0.2,0.3-0.3c0,0,0.1-0.2,0.2-0.2l0.8,0.5l-0.6-0.7
					c0-0.1,0.1-0.2,0.2-0.3l30.2-60.4c0.3-0.6,1.4-0.6,1.7,0l10.3,20.6c0.2,0.5,0,1-0.4,1.3c-20.7,10.6-28.9,36.1-18.2,56.8
					c5.2,10,13.9,17.4,24.6,20.9c10.7,3.4,22.2,2.5,32.2-2.7c20.7-10.6,28.9-36.1,18.2-56.8l0,0c-7.3-14.1-21.6-22.9-37.5-22.9
					c-4.5,0-9,0.7-13.3,2.1c-0.4,0.1-0.9-0.1-1.1-0.5l-17.7-35.4c-0.1-0.3-0.1-0.6,0-0.9s0.5-0.4,0.8-0.4h27.9
					c2.4,0,4.3,1.9,4.3,4.3c0,2.4-1.9,4.3-4.3,4.3h-13.3c-1.3,0-2.4,1.1-2.4,2.4c0,1.3,1.1,2.4,2.4,2.4h13.3c5,0,9-4.1,9-9
					c0-5-4.1-9-9-9h-33.3c-0.6-0.1-1.2,0.2-1.7,0.7c-0.5,0.4-0.7,1-0.7,1.7c0,0.4,0.1,0.7,0.3,1.1l4.3,8.5c0.1,0.3,0.1,0.6,0,0.9
					c-0.2,0.3-0.5,0.4-0.8,0.4h-59.1c-0.4,0-0.7-0.2-0.8-0.5l-3.3-6.7c-0.1-0.3-0.1-0.6,0-0.9c0.2-0.3,0.5-0.4,0.8-0.4h17.9
					c1.3,0,2.4-1.1,2.4-2.4c0-1.3-1.1-2.4-2.4-2.4h-33.3c-1.3,0-2.4,1.1-2.4,2.4c0,1.3,1.1,2.4,2.4,2.4h7.9c0.4,0,0.7,0.2,0.8,0.5
					l5,10c0.1,0.3,0.1,0.6,0,0.8l-12.7,25.5c-0.2,0.4-0.7,0.6-1.1,0.5C98.7,139.1,94.2,138.5,89.9,138.5z M89.8,218.3
					c-20.7,0-37.5-16.8-37.5-37.5c0-20.7,16.8-37.6,37.5-37.6c3.6,0.1,7.3,0.5,10.9,1.6c0.3,0.1,0.5,0.3,0.6,0.5s0.1,0.5,0,0.8
					l-16.8,33.6c-0.3,0.6-0.3,1.2-0.1,1.8c0.2,0.6,0.6,1.1,1.2,1.4c0.3,0.2,0.7,0.3,1.1,0.3h39.7c0.3,0,0.5,0.1,0.7,0.3
					c0.2,0.2,0.3,0.5,0.2,0.7C125.4,203.6,109.4,218.2,89.8,218.3l0.1-0.9L89.8,218.3C89.9,218.3,89.8,218.3,89.8,218.3z
					 M89.8,145.1C89.8,145.1,89.8,145.1,89.8,145.1c-19.7,0-35.7,16-35.6,35.7c0,19.6,16,35.6,35.6,35.6c0,0,0,0,0,0
					c18.2,0,33.2-13.4,35.4-31.4H86.6c-0.7,0-1.3-0.2-1.9-0.5c-1-0.5-1.8-1.4-2.1-2.5c-0.4-1.1-0.3-2.2,0.2-3.3L99,146.3
					C96,145.5,92.9,145.1,89.8,145.1z M216.3,218.3C216.3,218.3,216.3,218.3,216.3,218.3c-10.1,0-19.5-3.9-26.6-11
					c-7.1-7.1-11-16.5-11-26.5c0-14.2,7.8-27,20.4-33.4c0.2-0.1,0.5-0.1,0.7-0.1c0.2,0.1,0.4,0.3,0.6,0.5l17,34
					c0.6,1.2,2,1.7,3.2,1.1c0.6-0.3,1-0.8,1.2-1.4c0.2-0.6,0.2-1.2-0.1-1.8l-16.8-33.6c-0.1-0.2-0.1-0.5,0-0.8
					c0.1-0.3,0.3-0.5,0.6-0.5c19.8-6,40.8,5.3,46.7,25.1c2.9,9.6,1.9,19.8-2.9,28.6c-4.8,8.8-12.7,15.3-22.3,18.2l0,0
					C223.6,217.7,220,218.3,216.3,218.3z M216.3,216.4C216.3,216.4,216.3,216.4,216.3,216.4c3.5,0,7-0.5,10.3-1.5l0,0
					c9.1-2.7,16.6-8.9,21.1-17.2c4.5-8.4,5.5-18,2.7-27.1c-5.5-18.5-24.8-29.1-43.3-24.2l16.3,32.5c0.5,1,0.6,2.2,0.2,3.3
					c-0.4,1.1-1.1,2-2.1,2.5c-1,0.5-2.2,0.6-3.3,0.2c-1.1-0.4-2-1.1-2.5-2.1l-16.6-33.2c-11.5,6.3-18.6,18.2-18.6,31.3
					C180.6,200.4,196.6,216.4,216.3,216.4C216.2,216.4,216.3,216.4,216.3,216.4z M226.8,215.8L226.8,215.8L226.8,215.8z
					 M147.7,178.4h-14.7c-0.5,0-0.9-0.4-0.9-0.9c-1.1-14.6-9.9-27.7-22.9-34.4c-0.5-0.2-0.6-0.8-0.4-1.3l10.3-20.6
					c0.3-0.6,1.4-0.6,1.7,0l27.9,55.8c0.1,0.3,0.1,0.6,0,0.9C148.3,178.2,148,178.4,147.7,178.4z M133.8,176.5h12.3l-26.3-52.7
					l-9,18.1C123.6,148.8,132.4,161.9,133.8,176.5z M126.3,178.4H91.9c-0.3,0-0.6-0.2-0.8-0.4c-0.2-0.3-0.2-0.6,0-0.9l14.6-29.2
					c0.1-0.2,0.3-0.4,0.6-0.5c0.2-0.1,0.5-0.1,0.7,0.1c11.5,5.9,19.1,17.1,20.3,30c0,0.3-0.1,0.5-0.2,0.7S126.6,178.4,126.3,178.4z
					 M93.5,176.5h31.8c-1.4-11.5-8.1-21.4-18.3-27L93.5,176.5z M153.1,174.2c-0.4,0-0.7-0.2-0.8-0.5L124.3,118
					c-0.1-0.3-0.1-0.6,0-0.9c0.2-0.3,0.5-0.4,0.8-0.4H181c0.3,0,0.6,0.2,0.8,0.4s0.2,0.6,0,0.9l-27.9,55.8
					C153.8,174,153.4,174.2,153.1,174.2z M126.7,118.5l26.3,52.7l26.3-52.7H126.7z"/>
			</g>
		</g>
	</g>
</g>
</svg>
