<svg id="Capa_1" data-name="Capa 1" xmlns="http://www.w3.org/2000/svg" xmlns:xlink="http://www.w3.org/1999/xlink" viewBox="0 0 225 65.59"><defs><style>.cls-1{fill:none;}.cls-2{clip-path:url(#clip-path);}.cls-3{fill:#bfe9ff;}.cls-4{fill:#fff;}.cls-5{fill:#64afe0;}.cls-6{fill:#5289c7;}.cls-7{fill:#3b66a9;}.cls-8{fill:#497ebb;}.cls-9{fill:#3c6aab;}.cls-10{fill:#5997d1;}</style><clipPath id="clip-path"><rect class="cls-1" x="-99" y="-17.19" width="1906" height="2438"/></clipPath></defs><g class="cls-2"><path class="cls-3" d="M1745.16,139.94q-15.37,3.59-30.59,6.25c-148.26,25.86-289.9-11.6-445.73-117.89C983.88,30.06,727.25-72.5,506-276.52,374.53-397.78,218.57-485.44,42.47-537.06l.38-1,0-1.07a1351.61,1351.61,0,0,1,319.33,19.63C471.56-499.61,583-465.4,693.42-417.82c115.08,49.61,221.9,145.09,335,246.17,77.1,68.91,156.81,140.16,241.24,197.81,218.85-1.45,446.71-63.67,677.29-184.95q31.26-16.44,61.19-32.27c160.41-84.68,298.94-157.81,439.18-210.12l.4,1,.8.73c-44.18,42.42-89.31,89.15-134.15,138.9C2202.11-136,2093.12-38.51,1990.44,29.14,1906.82,84.22,1824.46,121.41,1745.16,139.94ZM1272.74,28.27c154.32,104.63,294.68,141.43,441.49,115.82,88.29-15.4,180.78-54.66,274.93-116.68,102.51-67.53,211.34-164.87,323.47-289.31,43.63-48.4,87.54-94,130.58-135.47-138.42,52.12-275.54,124.5-434,208.15q-30,15.83-61.2,32.27C1718.2-36.07,1491,26.24,1272.74,28.27ZM49.11-537.36c174,51.94,328.28,139.16,458.56,259.3,220,202.87,475,305.22,758.07,304.24-83.61-57.42-162.57-128-239-196.27C913.84-271,807.14-366.41,692.4-415.88c-110.24-47.51-221.53-81.67-330.77-101.54A1349.59,1349.59,0,0,0,49.11-537.36Z"/></g><rect class="cls-4" x="-101" y="-70.19" width="1908" height="176"/><path class="cls-5" d="M65.21,35.91a32.06,32.06,0,0,1,2.1,8.33,25.26,25.26,0,0,1-.08,4.19A32.1,32.1,0,0,1,65.14,52a23.93,23.93,0,0,0,0-3,36.67,36.67,0,0,0-1.78-8.84,119.66,119.66,0,0,1-3.53-15.58l.87,1.56c1.73,3.09,2.77,5.93,4.47,9.77"/><path class="cls-5" d="M55.92,42.07c3.39,6.17,4.09,13.28-1.44,14.48a3,3,0,0,1-2.23-.39c4.25-1.11,5.27-6.87,3.67-14.09"/><path class="cls-6" d="M55.92,42.07A25.53,25.53,0,0,0,52.26,37a34.36,34.36,0,0,1-7.77-12.26c-1.15-3-2.35-5.84-3.66-8.51A53.09,53.09,0,0,1,55.92,42.07"/><path class="cls-6" d="M58.6,18A31.94,31.94,0,0,0,52.53,5.59C50.35,3,49.22,2,46.75,1.46c-1.67-.36-4.14.8-4.14.8s.81.61,1.62,1.25c1,.85,2,1.75,3.06,2.73a58.54,58.54,0,0,1,7.5,9.53c1.91,3,3.38,5.73,5.08,8.81-.5-2.83-.91-5.19-1.27-6.54"/><path class="cls-7" d="M70.38,30.86A31.18,31.18,0,0,0,53.12,6.33,32.13,32.13,0,0,1,58.6,18h0c.11.4.22.9.34,1.47s.26,1.33.41,2.11c0,.15,0,.3.08.46s.06.37.1.56c.11.61.22,1.26.34,1.94l.87,1.56c1.73,3.09,2.77,5.93,4.47,9.77a31.66,31.66,0,0,1,2.1,8.33,25.26,25.26,0,0,1-.08,4.19,31.09,31.09,0,0,0,3.15-17.57"/><path class="cls-8" d="M48.81,64.12c-2.18-2-4-5.12-6-8.14,3.31,2.72,6.28,5.61,9.11,7a31.37,31.37,0,0,1-3.15,1.19"/><path class="cls-7" d="M42.85,56c1.94,3,3.78,6.1,6,8.14a30.79,30.79,0,0,1-6,1.27A31.18,31.18,0,0,1,18,57.17c1.82-2.11,3.52-4.24,5.2-6a18.08,18.08,0,0,1,6.21-1.3c5.16,0,10.27,1.68,13.42,6.15"/><path class="cls-5" d="M30.63,46.49c5.61-.2,9.05,4.56,12.22,9.49-3.05-4.35-8.27-6.19-13.42-6.15a17.87,17.87,0,0,0-6.21,1.31c2.46-2.64,4.85-4.56,7.41-4.65"/><path class="cls-6" d="M25,37.79a22.56,22.56,0,0,1,4.44-1.63c14.56-3.55,17.21,16.66,22.82,20h0c-5.89,1.48-9.73-19.34-24.27-18.67-1,0-2,.15-2.94.29"/><path class="cls-6" d="M15.55,54.58c-1.53.71-4,2.15-4,2.15,1.18,1.52,3.74,2.8,6.48.44,1.81-2.11,3.52-4.24,5.2-6-2.38.89-4.87,2.13-7.67,3.45"/><path class="cls-5" d="M8.93,41.42A61.38,61.38,0,0,1,0,42.07c0,.09,1.37,5.76,10,3,6.52-2.18,10.76-5.22,15-7.23-4.84.73-8.92,2.53-16.06,3.63"/><path class="cls-7" d="M55.92,42.07A25.53,25.53,0,0,0,52.26,37a34.36,34.36,0,0,1-7.77-12.26c-1.15-3-2.35-5.84-3.66-8.51l-.39-.36L40,15.5l-.37-.32-.05,0a103.66,103.66,0,0,0-13-9.3,31.22,31.22,0,0,0-18.31,32,31.86,31.86,0,0,0,.61,3.56c7.14-1.1,11.22-2.9,16.06-3.63a22.56,22.56,0,0,1,4.44-1.63c14.56-3.55,17.21,16.66,22.82,20,4.25-1.11,5.27-6.87,3.67-14.09"/><path class="cls-5" d="M39.62,15.13l.05,0h0l.13.12c.35.3.69.61,1,.92A38.28,38.28,0,0,0,33.5,5.38,19.44,19.44,0,0,0,31.91,4c-2.39-1.91-6.1-4-9.16-4C20.22-.14,17.48,2,17.48,2a31.51,31.51,0,0,1,9.15,3.88,103.66,103.66,0,0,1,13,9.3"/><path class="cls-7" d="M88.09,13.76a8.12,8.12,0,0,0-4.46,1.54l-.08-1.22h0a12.75,12.75,0,0,0-4.67,2h0V34.34h5V19.63a4.68,4.68,0,0,1,3.81-1.74c2.83,0,4,1.78,4,5.55v10.9h5V23.44c0-5.71-2.31-9.68-8.63-9.68"/><path class="cls-7" d="M216.37,13.76a8.12,8.12,0,0,0-4.46,1.54l-.08-1.22h0a12.82,12.82,0,0,0-4.67,2h0V34.34h5V19.63A4.68,4.68,0,0,1,216,17.89c2.83,0,4,1.78,4,5.55v10.9h5V23.44c0-5.71-2.31-9.68-8.63-9.68"/><path class="cls-7" d="M134.22,34.34h0a12.84,12.84,0,0,0,4.67-2h0V14.08h-5V28.83a4.7,4.7,0,0,1-3.8,1.7c-2.84,0-4-1.78-4-5.55V14.08h-5V25c0,5.71,2.27,9.76,8.59,9.76a8,8,0,0,0,4.5-1.62Z"/><path class="cls-7" d="M178.11,34.34h0a12.84,12.84,0,0,0,4.67-2h0V14.08h-5V28.83a4.7,4.7,0,0,1-3.8,1.7c-2.84,0-4-1.78-4-5.55V14.08h-5V25c0,5.71,2.27,9.76,8.59,9.76a8,8,0,0,0,4.5-1.62Z"/><path class="cls-7" d="M161.68,16.07h0a12.54,12.54,0,0,0-4.38-1.9l-.38,1.1a8.06,8.06,0,0,0-5-1.5c-6.49,0-9.93,4.82-9.93,10.49s3.44,10.49,9.93,10.49a7.66,7.66,0,0,0,4.73-1.38v7.91h5m-9.44-10.66c-3.24,0-5.11-2.59-5.11-6.36s1.87-6.36,5.11-6.36,4.66,2.59,4.66,6.36-1.42,6.36-4.66,6.36"/><path class="cls-7" d="M198.86,4l-7.47,3.63v3l7-2.28A13,13,0,0,0,198.86,4"/><path class="cls-7" d="M203.26,29a15.32,15.32,0,0,1-6.12,1.6,5.88,5.88,0,0,1-6-5.31h13.09a13.51,13.51,0,0,0,.32-2.75c0-5.35-3.81-8.79-8.91-8.79-6.24,0-9.72,4.86-9.72,10.49s3.65,10.49,11,10.49a13.61,13.61,0,0,0,5.89-1.25,13.05,13.05,0,0,0,.51-4.48m-7.5-11.12c2.72,0,3.65,2.19,3.65,4h-8.18c.48-2.31,1.94-4,4.53-4"/><path class="cls-7" d="M117,29a15.28,15.28,0,0,1-6.12,1.6,5.86,5.86,0,0,1-6-5.31h13.08a13.51,13.51,0,0,0,.32-2.75c0-5.35-3.8-8.79-8.91-8.79-6.24,0-9.72,4.86-9.72,10.49s3.65,10.49,11,10.49a13.57,13.57,0,0,0,5.89-1.25A12.81,12.81,0,0,0,117,29m-7.5-11.12c2.72,0,3.65,2.19,3.65,4h-8.18c.48-2.31,1.94-4,4.53-4"/><path class="cls-9" d="M88.09,13.76a8.12,8.12,0,0,0-4.46,1.54l-.08-1.22h0a12.75,12.75,0,0,0-4.67,2h0V34.34h5V19.63a4.68,4.68,0,0,1,3.81-1.74c2.83,0,4,1.78,4,5.55v10.9h5V23.44c0-5.71-2.31-9.68-8.63-9.68"/><path class="cls-9" d="M216.37,13.76a8.12,8.12,0,0,0-4.46,1.54l-.08-1.22h0a12.82,12.82,0,0,0-4.67,2h0V34.34h5V19.63A4.68,4.68,0,0,1,216,17.89c2.83,0,4,1.78,4,5.55v10.9h5V23.44c0-5.71-2.31-9.68-8.63-9.68"/><path class="cls-9" d="M134.22,34.34h0a12.84,12.84,0,0,0,4.67-2h0V14.08h-5V28.83a4.7,4.7,0,0,1-3.8,1.7c-2.84,0-4-1.78-4-5.55V14.08h-5V25c0,5.71,2.27,9.76,8.59,9.76a8,8,0,0,0,4.5-1.62Z"/><path class="cls-9" d="M178.11,34.34h0a12.84,12.84,0,0,0,4.67-2h0V14.08h-5V28.83a4.7,4.7,0,0,1-3.8,1.7c-2.84,0-4-1.78-4-5.55V14.08h-5V25c0,5.71,2.27,9.76,8.59,9.76a8,8,0,0,0,4.5-1.62Z"/><path class="cls-9" d="M161.68,16.07h0a12.54,12.54,0,0,0-4.38-1.9l-.38,1.1a8.06,8.06,0,0,0-5-1.5c-6.49,0-9.93,4.82-9.93,10.49s3.44,10.49,9.93,10.49a7.66,7.66,0,0,0,4.73-1.38v7.91h5m-9.44-10.66c-3.24,0-5.11-2.59-5.11-6.36s1.87-6.36,5.11-6.36,4.66,2.59,4.66,6.36-1.42,6.36-4.66,6.36"/><path class="cls-9" d="M198.86,4l-7.47,3.63v3l7-2.28A13,13,0,0,0,198.86,4"/><path class="cls-9" d="M203.26,29a15.32,15.32,0,0,1-6.12,1.6,5.88,5.88,0,0,1-6-5.31h13.09a13.51,13.51,0,0,0,.32-2.75c0-5.35-3.81-8.79-8.91-8.79-6.24,0-9.72,4.86-9.72,10.49s3.65,10.49,11,10.49a13.61,13.61,0,0,0,5.89-1.25,13.05,13.05,0,0,0,.51-4.48m-7.5-11.12c2.72,0,3.65,2.19,3.65,4h-8.18c.48-2.31,1.94-4,4.53-4"/><path class="cls-9" d="M117,29a15.28,15.28,0,0,1-6.12,1.6,5.86,5.86,0,0,1-6-5.31h13.08a13.51,13.51,0,0,0,.32-2.75c0-5.35-3.8-8.79-8.91-8.79-6.24,0-9.72,4.86-9.72,10.49s3.65,10.49,11,10.49a13.57,13.57,0,0,0,5.89-1.25A12.81,12.81,0,0,0,117,29m-7.5-11.12c2.72,0,3.65,2.19,3.65,4h-8.18c.48-2.31,1.94-4,4.53-4"/><rect class="cls-5" x="112.14" y="40.82" width="2" height="2.22"/><path class="cls-5" d="M87.08,52.86a6.4,6.4,0,0,1-2.83.66c-2.42,0-3.58-1.55-3.58-3.93s1.16-3.86,3.58-3.86a6.39,6.39,0,0,1,2.82.66l.31-1.79A7,7,0,0,0,84,44c-3.61,0-5.39,2.47-5.39,5.64s1.8,5.68,5.42,5.68a6.21,6.21,0,0,0,2.68-.48,5.43,5.43,0,0,0,.35-1.93"/><path class="cls-5" d="M105,44a3.68,3.68,0,0,0-3.23,1.78l-.22-1.53a4.57,4.57,0,0,0-1.56.66V60.42h2V53.67a3.93,3.93,0,0,0,3,1.6c3.22,0,4.87-2.48,4.87-5.66,0-3-1.8-5.66-4.84-5.66m-.25,9.55c-1.18,0-2.87-1.16-2.87-3.89s1.71-3.88,2.87-3.88c1.91,0,3,1.66,3,3.88s-1.13,3.89-3,3.89"/><path class="cls-5" d="M112.14,45.06v10h2V44.21a5.8,5.8,0,0,0-2,.85"/><path class="cls-5" d="M123,45.73V44.21h-2.86V41.43h-2v2.78h-1.48a6.15,6.15,0,0,0-.28,1.52h1.76v7A2.51,2.51,0,0,0,121,55.27h1.8l.15-1.6h-.51c-2.15,0-2.28-.13-2.28-2.22V45.73Z"/><path class="cls-5" d="M98.25,53.67c-1.15,0-1.24-.73-1.24-2.28V49.17C97,45.24,95.92,44,93.17,44a6.27,6.27,0,0,0-3.64,1.11,5.85,5.85,0,0,0,.85,1.27,4.45,4.45,0,0,1,2.26-.6c1.53,0,2.37.44,2.37,2.51-2.77,0-6.07.82-6.07,3.88a3.12,3.12,0,0,0,3.36,3.15,3.46,3.46,0,0,0,2.89-1.6,2.23,2.23,0,0,0,2.42,1.59,5,5,0,0,0,.8-1.59ZM95,52.21a2.71,2.71,0,0,1-2.34,1.46A1.55,1.55,0,0,1,91,52c0-1.62,1.44-2.4,4-2.4Z"/><path class="cls-5" d="M134,53.67c-1.15,0-1.24-.73-1.24-2.28V49.17c0-3.93-1.09-5.22-3.84-5.22a6.27,6.27,0,0,0-3.64,1.11,5.85,5.85,0,0,0,.85,1.27,4.45,4.45,0,0,1,2.26-.6c1.53,0,2.37.44,2.37,2.51-2.77,0-6.07.82-6.07,3.88a3.12,3.12,0,0,0,3.36,3.15,3.46,3.46,0,0,0,2.89-1.6,2.23,2.23,0,0,0,2.42,1.59,5,5,0,0,0,.8-1.59Zm-3.24-1.46a2.71,2.71,0,0,1-2.34,1.46A1.55,1.55,0,0,1,126.77,52c0-1.62,1.43-2.4,4-2.4Z"/><path class="cls-5" d="M139.39,53.67c-1.4,0-1.61-.37-1.61-2.17V40.82h-2V52.65a2.49,2.49,0,0,0,2.8,2.62,5.42,5.42,0,0,0,.81-1.6"/><rect class="cls-10" x="112.14" y="40.82" width="2" height="2.22"/><path class="cls-10" d="M87.08,52.86a6.4,6.4,0,0,1-2.83.66c-2.42,0-3.58-1.55-3.58-3.93s1.16-3.86,3.58-3.86a6.39,6.39,0,0,1,2.82.66l.31-1.79A7,7,0,0,0,84,44c-3.61,0-5.39,2.47-5.39,5.64s1.8,5.68,5.42,5.68a6.21,6.21,0,0,0,2.68-.48,5.43,5.43,0,0,0,.35-1.93"/><path class="cls-10" d="M105,44a3.68,3.68,0,0,0-3.23,1.78l-.22-1.53a4.57,4.57,0,0,0-1.56.66V60.42h2V53.67a3.93,3.93,0,0,0,3,1.6c3.22,0,4.87-2.48,4.87-5.66,0-3-1.8-5.66-4.84-5.66m-.25,9.55c-1.18,0-2.87-1.16-2.87-3.89s1.71-3.88,2.87-3.88c1.91,0,3,1.66,3,3.88s-1.13,3.89-3,3.89"/><path class="cls-10" d="M112.14,45.06v10h2V44.21a5.8,5.8,0,0,0-2,.85"/><path class="cls-10" d="M123,45.73V44.21h-2.86V41.43h-2v2.78h-1.48a6.15,6.15,0,0,0-.28,1.52h1.76v7A2.51,2.51,0,0,0,121,55.27h1.8l.15-1.6h-.51c-2.15,0-2.28-.13-2.28-2.22V45.73Z"/><path class="cls-10" d="M98.25,53.67c-1.15,0-1.24-.73-1.24-2.28V49.17C97,45.24,95.92,44,93.17,44a6.27,6.27,0,0,0-3.64,1.11,5.85,5.85,0,0,0,.85,1.27,4.45,4.45,0,0,1,2.26-.6c1.53,0,2.37.44,2.37,2.51-2.77,0-6.07.82-6.07,3.88a3.12,3.12,0,0,0,3.36,3.15,3.46,3.46,0,0,0,2.89-1.6,2.23,2.23,0,0,0,2.42,1.59,5,5,0,0,0,.8-1.59ZM95,52.21a2.71,2.71,0,0,1-2.34,1.46A1.55,1.55,0,0,1,91,52c0-1.62,1.44-2.4,4-2.4Z"/><path class="cls-10" d="M134,53.67c-1.15,0-1.24-.73-1.24-2.28V49.17c0-3.93-1.09-5.22-3.84-5.22a6.27,6.27,0,0,0-3.64,1.11,5.85,5.85,0,0,0,.85,1.27,4.45,4.45,0,0,1,2.26-.6c1.53,0,2.37.44,2.37,2.51-2.77,0-6.07.82-6.07,3.88a3.12,3.12,0,0,0,3.36,3.15,3.46,3.46,0,0,0,2.89-1.6,2.23,2.23,0,0,0,2.42,1.59,5,5,0,0,0,.8-1.59Zm-3.24-1.46a2.71,2.71,0,0,1-2.34,1.46A1.55,1.55,0,0,1,126.77,52c0-1.62,1.43-2.4,4-2.4Z"/><path class="cls-10" d="M139.39,53.67c-1.4,0-1.61-.37-1.61-2.17V40.82h-2V52.65a2.49,2.49,0,0,0,2.8,2.62,5.42,5.42,0,0,0,.81-1.6"/></svg>