<?xml version="1.0" encoding="utf-8"?>
<!-- Generator: Adobe Illustrator 25.2.0, SVG Export Plug-In . SVG Version: 6.00 Build 0)  -->
<svg version="1.1" id="Capa_1" xmlns="http://www.w3.org/2000/svg" xmlns:xlink="http://www.w3.org/1999/xlink" x="0px" y="0px"
	 viewBox="0 0 300 300" style="enable-background:new 0 0 300 300;" xml:space="preserve">
<style type="text/css">
	.st0{fill:#80CEF3;}
	.st1{fill:#FFFFFF;}
	.st2{fill:#1D97D3;}
	.st3{fill:#0966AC;}
	.st4{fill:#016AAE;}
	.st5{fill:#9BC23D;}
</style>
<g>
	<circle class="st1" cx="149.1" cy="148.7" r="131.8"/>
	<g>
		<g>
			<path class="st2" d="M49.3,146.3c1.5,0,2.6,1.2,2.6,2.6c0,1.5-1.2,2.6-2.6,2.6c-1.5,0-2.6-1.2-2.6-2.6
				C46.6,147.5,47.8,146.3,49.3,146.3z"/>
			<path class="st3" d="M61.4,164.8l1.6,6.4c0.2,1,0.3,1.9,0.3,2.7c-0.1,0.9-0.3,1.6-0.6,2.3c-0.3,0.7-0.8,1.2-1.4,1.7
				c-0.6,0.5-1.3,0.8-2.2,1l0,0c-0.9,0.2-1.8,0.2-2.6,0.1c-0.8-0.2-1.5-0.5-2.1-1c-0.6-0.5-1.2-1.1-1.6-1.9c-0.4-0.8-0.8-1.6-1-2.5
				l-1-4.2l-6,1.5l-0.5-1.9L61.4,164.8z M53.6,173.3c0.2,0.7,0.4,1.3,0.7,1.9c0.3,0.5,0.7,1,1.1,1.3c0.4,0.3,0.9,0.6,1.4,0.7
				c0.5,0.1,1.1,0.1,1.6,0l0,0c1.2-0.3,2-0.9,2.5-1.9c0.4-1,0.5-2.2,0.1-3.6l-1.1-4.3l-7.5,1.9L53.6,173.3z"/>
			<path class="st3" d="M68.3,186l0.8,1.7l-12.7,14.8l-0.9-1.9l3.3-3.8l-4-8.7l-5.1,0.1l-0.9-1.8L68.3,186z M60.2,195.2l6.5-7.4
				l-9.8,0.1L60.2,195.2z"/>
			<path class="st3" d="M74,197.1l1.2,1.6l-12.8,9.2l5.8,8.1l-1.5,1.1l-6.9-9.7L74,197.1z"/>
			<path class="st3" d="M87.5,213.3l1.3,1.3L82.3,233l-1.5-1.5l1.7-4.8l-6.9-6.6l-4.7,1.9l-1.5-1.4L87.5,213.3z M83.2,224.9l3.3-9.2
				l-9.1,3.7L83.2,224.9z"/>
			<path class="st3" d="M96.7,221.6l6.3,4c0.8,0.5,1.5,1.1,2,1.8c0.5,0.6,0.8,1.3,1,2c0.2,1.1,0,2.1-0.5,3l0,0
				c-0.3,0.5-0.6,0.9-1,1.2c-0.4,0.3-0.8,0.5-1.2,0.6c-0.4,0.1-0.8,0.2-1.2,0.2c-0.4,0-0.8,0-1.2-0.1c0.4,0.4,0.7,0.8,0.9,1.3
				c0.3,0.5,0.4,0.9,0.5,1.4c0.1,0.5,0.1,0.9,0,1.4c-0.1,0.5-0.3,1-0.6,1.5l0,0c-0.4,0.6-0.9,1.1-1.5,1.5c-0.6,0.3-1.2,0.5-1.9,0.6
				c-0.7,0-1.4,0-2.2-0.3c-0.8-0.2-1.6-0.6-2.4-1.1l-6.6-4.2L96.7,221.6z M94.9,239.2c1.1,0.7,2.2,1,3.1,1c0.9-0.1,1.7-0.5,2.2-1.3
				l0,0c0.5-0.8,0.6-1.6,0.2-2.5c-0.4-0.9-1.2-1.7-2.5-2.5l-4.7-3l-3.3,5.3L94.9,239.2z M98.6,232.1c1,0.6,2,0.9,2.9,0.9
				c0.9,0,1.6-0.5,2.2-1.4l0,0c0.5-0.7,0.5-1.5,0.3-2.3c-0.3-0.8-1-1.5-2-2.2l-4.5-2.8l-3.2,5.1L98.6,232.1z"/>
			<path class="st3" d="M111.5,230.5l7.1,2.7c1,0.4,1.9,0.9,2.5,1.5c0.7,0.6,1.2,1.2,1.5,2c0.2,0.6,0.4,1.2,0.4,1.8
				c0,0.6-0.1,1.3-0.4,1.9l0,0c-0.3,0.7-0.6,1.3-1,1.7c-0.4,0.5-0.9,0.8-1.5,1c-0.6,0.2-1.2,0.4-1.8,0.4c-0.6,0-1.3,0-2-0.1l2.4,8.7
				l-2.3-0.9l-2.3-8.2l0,0l-4.6-1.8l-2.5,6.4l-1.9-0.7L111.5,230.5z M115.1,241.5c0.6,0.2,1.2,0.4,1.8,0.4c0.6,0,1.1,0,1.6-0.2
				c0.5-0.1,0.9-0.4,1.3-0.7c0.4-0.3,0.7-0.8,0.9-1.3l0,0c0.4-1,0.3-2-0.2-2.8c-0.5-0.9-1.4-1.5-2.8-2.1l-5.1-2l-2.6,6.7
				L115.1,241.5z"/>
			<path class="st3" d="M134.1,237.4l1.8,0.3l5,18.8l-2.1-0.4l-1.3-4.9l-9.4-1.6l-2.8,4.2l-2-0.3L134.1,237.4z M137.1,249.3
				l-2.4-9.5l-5.5,8.2L137.1,249.3z"/>
			<path class="st3" d="M152.7,248.1L152.7,248.1c-0.6-5.1,2.9-9.6,8.2-10.1c3.6-0.4,6,0.9,7.8,2.8l-3.3,3.2c-1.1-1.1-2.4-1.8-4-1.6
				c-2.4,0.3-3.9,2.5-3.7,5.1l0,0.1c0.3,2.6,2.2,4.5,4.7,4.2c1.8-0.2,2.8-1.2,3.7-2.6l3.9,2.2c-1.4,2.5-3.4,4.4-7.3,4.8
				C157.7,256.7,153.2,253.3,152.7,248.1z"/>
			<path class="st3" d="M172.4,246.6l-3-9.4l4.7-1.5l3,9.3c0.8,2.4,2.4,3.2,4.2,2.6c1.9-0.6,2.7-2.1,2-4.4l-3-9.4l4.7-1.5l3,9.3
				c1.7,5.4-0.6,8.8-5.4,10.3C177.8,253.4,174.1,251.9,172.4,246.6z"/>
			<path class="st3" d="M186.9,231.6l4.5-2.6l7,3.8l0.2-8l4.5-2.6l8.8,15.2l-4.2,2.4l-5.1-8.7l-0.4,8.2l-0.1,0.1l-7.3-3.7l5,8.7
				l-4.1,2.4L186.9,231.6z"/>
			<path class="st3" d="M204.7,220.7l5.6-5c3.3-3,7-3.2,9.6-0.3l0,0c2.8,3.1,1.8,6.9-1.4,9.8l-1.8,1.6l3.3,3.8l-3.6,3.2L204.7,220.7
				z M215.9,222.4c1.3-1.2,1.5-2.5,0.6-3.6l0,0c-1-1.1-2.3-1-3.6,0.1l-1.7,1.5l3.1,3.5L215.9,222.4z"/>
			<path class="st3" d="M216.5,209.8l3-3.8l10.4,8.3l5.3-6.7l3.3,2.7l-8.4,10.5L216.5,209.8z"/>
			<path class="st3" d="M225.4,198.1l2.6-4.2l15,9.2l-2.6,4.2L225.4,198.1z"/>
			<path class="st3" d="M229.4,192l2.7-6.2c2.5-5.8,7.2-7.7,11.9-5.7l0,0c4.7,2,6.7,6.9,4.2,12.7l-2.6,6.1L229.4,192z M244.3,190.9
				c1.2-2.7,0.4-5.1-2.2-6.2l0,0c-2.6-1.1-4.9,0-6,2.7l-0.8,1.8l8.2,3.5L244.3,190.9z"/>
			<path class="st3" d="M237.2,170.3l1-4.6l18.9-3.6l-1.1,5.1l-3.3,0.6l-1.4,6.6l2.8,1.9l-1.1,5L237.2,170.3z M248.7,168.3l-5.3,0.9
				l4.5,3L248.7,168.3z"/>
			<path class="st2" d="M250.8,153.1c-1.5,0-2.6-1.2-2.6-2.7c0-1.5,1.2-2.6,2.7-2.6c1.5,0,2.6,1.2,2.6,2.7
				C253.5,151.9,252.3,153.1,250.8,153.1z"/>
			<path class="st3" d="M239.1,135.9l-1.4-6.4c-0.2-1-0.3-1.9-0.2-2.7c0.1-0.8,0.3-1.6,0.6-2.3c0.3-0.7,0.8-1.2,1.4-1.7
				c0.6-0.4,1.3-0.8,2.2-0.9l0,0c0.9-0.2,1.8-0.2,2.6,0c0.8,0.2,1.5,0.6,2.1,1.1c0.6,0.5,1.1,1.2,1.5,1.9c0.4,0.8,0.7,1.6,0.9,2.5
				l0.9,4.2l6.1-1.3l0.4,1.9L239.1,135.9z M247.1,127.7c-0.2-0.7-0.4-1.3-0.7-1.9c-0.3-0.5-0.7-1-1.1-1.3c-0.4-0.3-0.9-0.6-1.4-0.7
				c-0.5-0.1-1.1-0.1-1.6,0l0,0c-1.2,0.3-2.1,0.9-2.5,1.9c-0.4,1-0.5,2.2-0.2,3.6l0.9,4.4l7.6-1.6L247.1,127.7z"/>
			<path class="st3" d="M232.8,114.5l-0.7-1.7l13.1-14.4l0.8,2l-3.5,3.7l3.8,8.8l5.1,0.1l0.8,1.9L232.8,114.5z M241.2,105.5
				l-6.7,7.2l9.8,0.1L241.2,105.5z"/>
			<path class="st3" d="M227.4,103.3l-1.1-1.6l13.1-8.8l-5.6-8.2l1.5-1l6.7,9.9L227.4,103.3z"/>
			<path class="st3" d="M214.4,86.7l-1.3-1.3l7-18.2l1.5,1.5l-1.9,4.7l6.7,6.8l4.8-1.8l1.4,1.4L214.4,86.7z M219,75.3l-3.6,9.2
				l9.2-3.5L219,75.3z"/>
			<path class="st3" d="M205.4,78.1l-6.2-4.2c-0.8-0.6-1.5-1.2-2-1.8c-0.5-0.7-0.8-1.3-1-2c-0.2-1.1,0-2.1,0.6-3l0,0
				c0.3-0.5,0.7-0.8,1-1.1c0.4-0.3,0.8-0.5,1.2-0.6c0.4-0.1,0.8-0.2,1.2-0.2c0.4,0,0.8,0,1.2,0.1c-0.3-0.4-0.6-0.9-0.9-1.3
				c-0.2-0.5-0.4-0.9-0.5-1.4c-0.1-0.5-0.1-0.9,0-1.4c0.1-0.5,0.3-1,0.6-1.5l0,0c0.4-0.6,0.9-1.1,1.5-1.4c0.6-0.3,1.2-0.5,1.9-0.5
				c0.7,0,1.4,0.1,2.2,0.3c0.8,0.3,1.6,0.6,2.4,1.2l6.5,4.3L205.4,78.1z M203.8,67.6c-1-0.7-2-1-2.9-1c-0.9,0-1.7,0.5-2.2,1.3l0,0
				c-0.5,0.7-0.6,1.5-0.3,2.3c0.3,0.8,0.9,1.6,2,2.2l4.4,3l3.4-5L203.8,67.6z M207.6,60.6c-1.1-0.7-2.1-1.1-3.1-1.1
				c-0.9,0-1.7,0.5-2.2,1.3l0,0c-0.5,0.8-0.6,1.6-0.3,2.5c0.4,0.9,1.2,1.7,2.5,2.6l4.6,3.1l3.5-5.2L207.6,60.6z"/>
			<path class="st3" d="M190.9,68.9l-7-2.9c-1-0.4-1.8-0.9-2.5-1.6c-0.7-0.6-1.1-1.3-1.4-2c-0.2-0.6-0.3-1.2-0.3-1.8
				c0-0.6,0.2-1.3,0.4-1.9l0,0c0.3-0.7,0.6-1.2,1.1-1.7c0.4-0.4,0.9-0.8,1.5-1c0.6-0.2,1.2-0.4,1.8-0.4c0.6,0,1.3,0,2,0.2l-2.2-8.7
				l2.3,0.9l2.1,8.3l0,0l4.6,1.9l2.6-6.3l1.8,0.8L190.9,68.9z M187.5,57.7c-0.6-0.3-1.2-0.4-1.8-0.5c-0.6-0.1-1.1,0-1.6,0.1
				c-0.5,0.1-0.9,0.4-1.3,0.7c-0.4,0.3-0.7,0.7-0.9,1.3l0,0c-0.4,1-0.4,1.9,0.1,2.8c0.5,0.9,1.4,1.6,2.7,2.1l5,2.1l2.8-6.6
				L187.5,57.7z"/>
			<path class="st3" d="M168.4,61.4l-1.8-0.4l-4.4-18.9l2.1,0.4l1.1,5l9.4,1.8l2.9-4.2l2,0.4L168.4,61.4z M165.8,49.4l2.2,9.6l5.7-8
				L165.8,49.4z"/>
			<path class="st3" d="M150.2,50.2L150.2,50.2c0.4,5.2-3.2,9.5-8.5,9.9c-3.6,0.3-6-1-7.7-3.1l3.4-3.1c1.1,1.2,2.3,1.9,4,1.7
				c2.5-0.2,4-2.4,3.8-5l0-0.1c-0.2-2.6-2.1-4.5-4.6-4.3c-1.8,0.1-2.8,1.1-3.8,2.5l-3.9-2.3c1.5-2.4,3.6-4.3,7.4-4.6
				C145.4,41.4,149.8,44.9,150.2,50.2z"/>
			<path class="st3" d="M130.4,51.1l2.7,9.5l-4.8,1.4l-2.7-9.4c-0.7-2.4-2.3-3.2-4.2-2.7c-1.9,0.5-2.8,2-2.1,4.4l2.7,9.5l-4.8,1.4
				l-2.7-9.4c-1.6-5.5,0.9-8.8,5.7-10.1C125.2,44.2,128.9,45.8,130.4,51.1z"/>
			<path class="st3" d="M115.5,65.7l-4.5,2.5l-6.9-4l-0.4,8l-4.5,2.5l-8.4-15.5l4.3-2.3l4.8,8.9l0.7-8.2l0.1,0l7.2,3.9l-4.8-8.8
				l4.2-2.3L115.5,65.7z"/>
			<path class="st3" d="M97.4,76.1L91.6,81c-3.4,2.9-7.1,3-9.6,0l0,0c-2.7-3.2-1.6-6.9,1.7-9.7l1.8-1.6l-3.2-3.8l3.7-3.1L97.4,76.1z
				 M86.3,74.1c-1.3,1.1-1.5,2.5-0.7,3.5l0,0c1,1.2,2.3,1.1,3.6-0.1l1.7-1.5l-3-3.6L86.3,74.1z"/>
			<path class="st3" d="M85.3,86.7l-3.1,3.7L72,81.8l-5.5,6.5l-3.3-2.8l8.6-10.3L85.3,86.7z"/>
			<path class="st3" d="M76.1,98.2l-2.7,4.1l-14.7-9.6l2.7-4.1L76.1,98.2z"/>
			<path class="st3" d="M71.9,104.2l-2.8,6.2c-2.6,5.7-7.4,7.5-12.1,5.4l0,0c-4.6-2.1-6.5-7.1-3.8-12.8l2.8-6.1L71.9,104.2z
				 M57,104.8c-1.2,2.6-0.6,5.1,2,6.3l0,0c2.6,1.2,4.9,0.1,6.1-2.5l0.8-1.8l-8.1-3.8L57,104.8z"/>
			<path class="st3" d="M63.5,125.7l-1.1,4.6l-19,3.1l1.2-5.1l3.4-0.5l1.6-6.6l-2.8-2l1.2-5L63.5,125.7z M52,127.3l5.3-0.7l-4.4-3.1
				L52,127.3z"/>
		</g>
		<g>
			<path class="st2" d="M149,221.5c-40-0.6-72-33.5-71.5-73.5S111,76,151,76.6c40,0.6,72,33.5,71.5,73.5S189,222.1,149,221.5z
				 M150.9,83.5c-36.2-0.5-66,28.5-66.5,64.7c-0.5,36.2,28.5,66,64.7,66.5c36.2,0.5,66-28.5,66.5-64.7
				C216.1,113.8,187.1,84,150.9,83.5z"/>
		</g>
		<g>
			<g>
				<path class="st4" d="M148.9,229.7c-44.5-0.6-80.1-37.3-79.5-81.8c0.6-44.5,37.3-80.1,81.8-79.5c44.5,0.6,80.1,37.3,79.5,81.8
					C230,194.6,193.3,230.3,148.9,229.7z M151.1,71.2c-42.9-0.6-78.4,33.8-79,76.8c-0.6,42.9,33.8,78.4,76.8,79
					c42.9,0.6,78.4-33.8,79-76.8C228.5,107.2,194,71.8,151.1,71.2z"/>
			</g>
		</g>
		<g>
			<g>
				<path class="st4" d="M148.3,273.1C79.9,272.1,25,215.7,26,147.3S83.4,24.1,151.7,25C220.1,26,275,82.4,274,150.8
					C273.1,219.2,216.6,274,148.3,273.1z M151.7,27.8c-66.9-0.9-122,52.7-123,119.5s52.7,122,119.5,123c66.9,0.9,122-52.7,123-119.5
					C272.2,83.9,218.6,28.7,151.7,27.8z"/>
			</g>
		</g>
		<g>
			<path class="st2" d="M148.1,287.6c-76.4-1.1-137.6-64.1-136.6-140.5S75.6,9.5,151.9,10.5c76.4,1.1,137.6,64.1,136.6,140.5
				C287.4,227.4,224.4,288.6,148.1,287.6z M151.8,18.8c-71.8-1-131,56.6-132,128.4c-1,71.8,56.6,131,128.4,132
				c71.8,1,131-56.6,132-128.4S223.6,19.8,151.8,18.8z"/>
		</g>
		<g>
			<circle class="st5" cx="149.3" cy="148.8" r="53.6"/>
		</g>
		<polygon class="st1" points="165.8,112.5 141.7,153 126.9,144.2 117.9,159.2 147.8,177 180.8,121.5 		"/>
	</g>
</g>
</svg>
